<ttFont>
<head>
    <!-- Most of this table will be recalculated by the compiler -->
    <tableVersion value="1.0"/>
    <fontRevision value="1.0"/>
    <checkSumAdjustment value="0x4c44c9db"/>
    <magicNumber value="0x5f0f3cf5"/>
    <flags value="00000000 00011111"/>
    <unitsPerEm value="1000"/>
    <created value="Mon Aug 17 19:00:36 2015"/>
    <modified value="Mon Aug 17 19:00:36 2015"/>
    <xMin value="-178"/>
    <yMin value="-207"/>
    <xMax value="1196"/>
    <yMax value="937"/>
    <macStyle value="00000000 00000000"/>
    <lowestRecPPEM value="8"/>
    <fontDirectionHint value="2"/>
    <indexToLocFormat value="0"/>
    <glyphDataFormat value="0"/>
  </head>
    <TTGlyph name=".notdef" xMin="42" yMin="-15" xMax="738" yMax="684">
      <contour>
        <pt x="391" y="684" on="1"/>
        <pt x="535" y="684" on="0"/>
        <pt x="738" y="484" on="0"/>
        <pt x="738" y="333" on="1"/>
        <pt x="738" y="184" on="0"/>
        <pt x="535" y="-15" on="0"/>
        <pt x="391" y="-15" on="1"/>
        <pt x="246" y="-15" on="0"/>
        <pt x="42" y="184" on="0"/>
        <pt x="42" y="333" on="1"/>
        <pt x="42" y="484" on="0"/>
        <pt x="246" y="684" on="0"/>
      </contour>
      <contour>
        <pt x="391" y="638" on="1"/>
        <pt x="266" y="638" on="0"/>
        <pt x="92" y="465" on="0"/>
        <pt x="92" y="334" on="1"/>
        <pt x="92" y="204" on="0"/>
        <pt x="266" y="31" on="0"/>
        <pt x="391" y="31" on="1"/>
        <pt x="514" y="31" on="0"/>
        <pt x="688" y="204" on="0"/>
        <pt x="688" y="334" on="1"/>
        <pt x="688" y="465" on="0"/>
        <pt x="514" y="638" on="0"/>
      </contour>
      <contour>
        <pt x="523" y="400" on="1"/>
        <pt x="523" y="356" on="0"/>
        <pt x="462" y="298" on="0"/>
        <pt x="412" y="293" on="1"/>
        <pt x="412" y="256" on="1"/>
        <pt x="356" y="256" on="1"/>
        <pt x="356" y="340" on="1"/>
        <pt x="391" y="340" on="1"/>
        <pt x="423" y="340" on="0"/>
        <pt x="464" y="373" on="0"/>
        <pt x="464" y="400" on="1"/>
        <pt x="464" y="429" on="0"/>
        <pt x="424" y="465" on="0"/>
        <pt x="392" y="465" on="1"/>
        <pt x="358" y="465" on="0"/>
        <pt x="315" y="424" on="0"/>
        <pt x="312" y="390" on="1"/>
        <pt x="254" y="400" on="1"/>
        <pt x="256" y="450" on="0"/>
        <pt x="334" y="519" on="0"/>
        <pt x="392" y="519" on="1"/>
        <pt x="451" y="519" on="0"/>
        <pt x="523" y="453" on="0"/>
      </contour>
      <contour>
        <pt x="383" y="213" on="1"/>
        <pt x="399" y="213" on="0"/>
        <pt x="421" y="192" on="0"/>
        <pt x="421" y="177" on="1"/>
        <pt x="421" y="161" on="0"/>
        <pt x="399" y="139" on="0"/>
        <pt x="367" y="139" on="0"/>
        <pt x="346" y="161" on="0"/>
        <pt x="346" y="177" on="1"/>
        <pt x="346" y="192" on="0"/>
        <pt x="368" y="213" on="0"/>
      </contour>
    </TTGlyph>
    <TTGlyph name="A" xMin="5" yMin="0" xMax="695" yMax="670">
      <contour>
        <pt x="695" y="0" on="1"/>
        <pt x="579" y="0" on="1"/>
        <pt x="513" y="156" on="1"/>
        <pt x="187" y="156" on="1"/>
        <pt x="121" y="0" on="1"/>
        <pt x="5" y="0" on="1"/>
        <pt x="300" y="670" on="1"/>
        <pt x="400" y="670" on="1"/>
      </contour>
      <contour>
        <pt x="471" y="254" on="1"/>
        <pt x="350" y="539" on="1"/>
        <pt x="229" y="254" on="1"/>
      </contour>
    </TTGlyph>
    <TTGlyph name="AE" xMin="5" yMin="0" xMax="998" yMax="670">
      <contour>
        <pt x="998" y="97" on="1"/>
        <pt x="998" y="0" on="1"/>
        <pt x="499" y="0" on="1"/>
        <pt x="499" y="139" on="1"/>
        <pt x="223" y="139" on="1"/>
        <pt x="129" y="0" on="1"/>
        <pt x="5" y="0" on="1"/>
        <pt x="470" y="670" on="1"/>
        <pt x="997" y="670" on="1"/>
        <pt x="997" y="573" on="1"/>
        <pt x="606" y="573" on="1"/>
        <pt x="606" y="384" on="1"/>
        <pt x="967" y="384" on="1"/>
        <pt x="967" y="288" on="1"/>
        <pt x="606" y="288" on="1"/>
        <pt x="606" y="97" on="1"/>
      </contour>
      <contour>
        <pt x="499" y="236" on="1"/>
        <pt x="499" y="549" on="1"/>
        <pt x="288" y="236" on="1"/>
      </contour>
    </TTGlyph>
    <TTGlyph name="AEacute" xMin="5" yMin="0" xMax="998" yMax="883">
      <contour>
        <pt x="725" y="741" on="1"/>
        <pt x="636" y="741" on="1"/>
        <pt x="709" y="883" on="1"/>
        <pt x="831" y="883" on="1"/>
      </contour>
      <contour>
        <pt x="998" y="97" on="1"/>
        <pt x="998" y="0" on="1"/>
        <pt x="499" y="0" on="1"/>
        <pt x="499" y="139" on="1"/>
        <pt x="223" y="139" on="1"/>
        <pt x="129" y="0" on="1"/>
        <pt x="5" y="0" on="1"/>
        <pt x="470" y="670" on="1"/>
        <pt x="997" y="670" on="1"/>
        <pt x="997" y="573" on="1"/>
        <pt x="606" y="573" on="1"/>
        <pt x="606" y="384" on="1"/>
        <pt x="967" y="384" on="1"/>
        <pt x="967" y="288" on="1"/>
        <pt x="606" y="288" on="1"/>
        <pt x="606" y="97" on="1"/>
      </contour>
      <contour>
        <pt x="499" y="236" on="1"/>
        <pt x="499" y="549" on="1"/>
        <pt x="288" y="236" on="1"/>
      </contour>
    </TTGlyph>
    <TTGlyph name="Aacute" xMin="5" yMin="0" xMax="695" yMax="883">
      <contour>
        <pt x="399" y="741" on="1"/>
        <pt x="310" y="741" on="1"/>
        <pt x="383" y="883" on="1"/>
        <pt x="505" y="883" on="1"/>
      </contour>
      <contour>
        <pt x="695" y="0" on="1"/>
        <pt x="579" y="0" on="1"/>
        <pt x="513" y="156" on="1"/>
        <pt x="187" y="156" on="1"/>
        <pt x="121" y="0" on="1"/>
        <pt x="5" y="0" on="1"/>
        <pt x="300" y="670" on="1"/>
        <pt x="400" y="670" on="1"/>
      </contour>
      <contour>
        <pt x="471" y="254" on="1"/>
        <pt x="350" y="539" on="1"/>
        <pt x="229" y="254" on="1"/>
      </contour>
    </TTGlyph>
    <TTGlyph name="Abreve" xMin="5" yMin="0" xMax="695" yMax="868">
      <contour>
        <pt x="421" y="726" on="0"/>
        <pt x="279" y="726" on="0"/>
        <pt x="194" y="803" on="0"/>
        <pt x="194" y="868" on="1"/>
        <pt x="281" y="868" on="1"/>
        <pt x="281" y="837" on="0"/>
        <pt x="321" y="798" on="0"/>
        <pt x="350" y="798" on="1"/>
        <pt x="380" y="798" on="0"/>
        <pt x="420" y="837" on="0"/>
        <pt x="420" y="868" on="1"/>
        <pt x="506" y="868" on="1"/>
        <pt x="506" y="803" on="0"/>
      </contour>
      <contour>
        <pt x="695" y="0" on="1"/>
        <pt x="579" y="0" on="1"/>
        <pt x="513" y="156" on="1"/>
        <pt x="187" y="156" on="1"/>
        <pt x="121" y="0" on="1"/>
        <pt x="5" y="0" on="1"/>
        <pt x="300" y="670" on="1"/>
        <pt x="400" y="670" on="1"/>
      </contour>
      <contour>
        <pt x="471" y="254" on="1"/>
        <pt x="350" y="539" on="1"/>
        <pt x="229" y="254" on="1"/>
      </contour>
    </TTGlyph>
    <TTGlyph name="Acircumflex" xMin="5" yMin="0" xMax="695" yMax="878">
      <contour>
        <pt x="290" y="733" on="1"/>
        <pt x="186" y="733" on="1"/>
        <pt x="301" y="878" on="1"/>
        <pt x="400" y="878" on="1"/>
        <pt x="516" y="733" on="1"/>
        <pt x="411" y="733" on="1"/>
        <pt x="351" y="810" on="1"/>
      </contour>
      <contour>
        <pt x="695" y="0" on="1"/>
        <pt x="579" y="0" on="1"/>
        <pt x="513" y="156" on="1"/>
        <pt x="187" y="156" on="1"/>
        <pt x="121" y="0" on="1"/>
        <pt x="5" y="0" on="1"/>
        <pt x="300" y="670" on="1"/>
        <pt x="400" y="670" on="1"/>
      </contour>
      <contour>
        <pt x="471" y="254" on="1"/>
        <pt x="350" y="539" on="1"/>
        <pt x="229" y="254" on="1"/>
      </contour>
    </TTGlyph>
    <TTGlyph name="Adieresis" xMin="5" yMin="0" xMax="695" yMax="873">
      <contour>
        <pt x="276" y="744" on="0"/>
        <pt x="218" y="744" on="0"/>
        <pt x="181" y="780" on="0"/>
        <pt x="181" y="808" on="1"/>
        <pt x="181" y="834" on="0"/>
        <pt x="219" y="873" on="0"/>
        <pt x="275" y="873" on="0"/>
        <pt x="313" y="834" on="0"/>
        <pt x="313" y="808" on="1"/>
        <pt x="313" y="780" on="0"/>
      </contour>
      <contour>
        <pt x="483" y="744" on="0"/>
        <pt x="425" y="744" on="0"/>
        <pt x="388" y="780" on="0"/>
        <pt x="388" y="808" on="1"/>
        <pt x="388" y="834" on="0"/>
        <pt x="426" y="873" on="0"/>
        <pt x="482" y="873" on="0"/>
        <pt x="520" y="834" on="0"/>
        <pt x="520" y="808" on="1"/>
        <pt x="520" y="780" on="0"/>
      </contour>
      <contour>
        <pt x="695" y="0" on="1"/>
        <pt x="579" y="0" on="1"/>
        <pt x="513" y="156" on="1"/>
        <pt x="187" y="156" on="1"/>
        <pt x="121" y="0" on="1"/>
        <pt x="5" y="0" on="1"/>
        <pt x="300" y="670" on="1"/>
        <pt x="400" y="670" on="1"/>
      </contour>
      <contour>
        <pt x="471" y="254" on="1"/>
        <pt x="350" y="539" on="1"/>
        <pt x="229" y="254" on="1"/>
      </contour>
    </TTGlyph>
    <TTGlyph name="Agrave" xMin="5" yMin="0" xMax="695" yMax="883">
      <contour>
        <pt x="305" y="741" on="1"/>
        <pt x="199" y="883" on="1"/>
        <pt x="321" y="883" on="1"/>
        <pt x="394" y="741" on="1"/>
      </contour>
      <contour>
        <pt x="695" y="0" on="1"/>
        <pt x="579" y="0" on="1"/>
        <pt x="513" y="156" on="1"/>
        <pt x="187" y="156" on="1"/>
        <pt x="121" y="0" on="1"/>
        <pt x="5" y="0" on="1"/>
        <pt x="300" y="670" on="1"/>
        <pt x="400" y="670" on="1"/>
      </contour>
      <contour>
        <pt x="471" y="254" on="1"/>
        <pt x="350" y="539" on="1"/>
        <pt x="229" y="254" on="1"/>
      </contour>
    </TTGlyph>
    <TTGlyph name="Amacron" xMin="5" yMin="0" xMax="695" yMax="837">
      <contour>
        <pt x="501" y="752" on="1"/>
        <pt x="200" y="752" on="1"/>
        <pt x="200" y="837" on="1"/>
        <pt x="501" y="837" on="1"/>
      </contour>
      <contour>
        <pt x="695" y="0" on="1"/>
        <pt x="579" y="0" on="1"/>
        <pt x="513" y="156" on="1"/>
        <pt x="187" y="156" on="1"/>
        <pt x="121" y="0" on="1"/>
        <pt x="5" y="0" on="1"/>
        <pt x="300" y="670" on="1"/>
        <pt x="400" y="670" on="1"/>
      </contour>
      <contour>
        <pt x="471" y="254" on="1"/>
        <pt x="350" y="539" on="1"/>
        <pt x="229" y="254" on="1"/>
      </contour>
    </TTGlyph>
    <TTGlyph name="Aogonek" xMin="5" yMin="-205" xMax="717" yMax="670">
      <contour>
        <pt x="711" y="-122" on="1"/>
        <pt x="717" y="-187" on="1"/>
        <pt x="675" y="-205" on="0"/>
        <pt x="640" y="-205" on="1"/>
        <pt x="602" y="-205" on="0"/>
        <pt x="551" y="-162" on="0"/>
        <pt x="551" y="-119" on="1"/>
        <pt x="551" y="-88" on="0"/>
        <pt x="583" y="-34" on="0"/>
        <pt x="622" y="0" on="1"/>
        <pt x="579" y="0" on="1"/>
        <pt x="513" y="156" on="1"/>
        <pt x="187" y="156" on="1"/>
        <pt x="121" y="0" on="1"/>
        <pt x="5" y="0" on="1"/>
        <pt x="300" y="670" on="1"/>
        <pt x="400" y="670" on="1"/>
        <pt x="695" y="0" on="1"/>
        <pt x="664" y="-34" on="0"/>
        <pt x="646" y="-55" on="0"/>
        <pt x="629" y="-86" on="0"/>
        <pt x="629" y="-100" on="1"/>
        <pt x="629" y="-133" on="0"/>
        <pt x="663" y="-133" on="1"/>
        <pt x="676" y="-133" on="0"/>
      </contour>
      <contour>
        <pt x="471" y="254" on="1"/>
        <pt x="350" y="539" on="1"/>
        <pt x="229" y="254" on="1"/>
      </contour>
    </TTGlyph>
    <TTGlyph name="Aring" xMin="5" yMin="0" xMax="695" yMax="937">
      <contour>
        <pt x="350" y="722" on="1"/>
        <pt x="304" y="722" on="0"/>
        <pt x="239" y="785" on="0"/>
        <pt x="239" y="829" on="1"/>
        <pt x="239" y="874" on="0"/>
        <pt x="304" y="937" on="0"/>
        <pt x="350" y="937" on="1"/>
        <pt x="397" y="937" on="0"/>
        <pt x="461" y="874" on="0"/>
        <pt x="461" y="784" on="0"/>
        <pt x="397" y="722" on="0"/>
      </contour>
      <contour>
        <pt x="371" y="876" on="0"/>
        <pt x="329" y="876" on="0"/>
        <pt x="301" y="849" on="0"/>
        <pt x="301" y="829" on="1"/>
        <pt x="301" y="810" on="0"/>
        <pt x="329" y="782" on="0"/>
        <pt x="371" y="782" on="0"/>
        <pt x="399" y="810" on="0"/>
        <pt x="399" y="829" on="1"/>
        <pt x="399" y="849" on="0"/>
      </contour>
      <contour>
        <pt x="695" y="0" on="1"/>
        <pt x="579" y="0" on="1"/>
        <pt x="513" y="156" on="1"/>
        <pt x="187" y="156" on="1"/>
        <pt x="121" y="0" on="1"/>
        <pt x="5" y="0" on="1"/>
        <pt x="300" y="670" on="1"/>
        <pt x="400" y="670" on="1"/>
      </contour>
      <contour>
        <pt x="471" y="254" on="1"/>
        <pt x="350" y="539" on="1"/>
        <pt x="229" y="254" on="1"/>
      </contour>
    </TTGlyph>
    <TTGlyph name="Atilde" xMin="5" yMin="0" xMax="695" yMax="879">
      <contour>
        <pt x="298" y="803" on="1"/>
        <pt x="283" y="803" on="0"/>
        <pt x="265" y="781" on="0"/>
        <pt x="265" y="763" on="1"/>
        <pt x="194" y="763" on="1"/>
        <pt x="194" y="824" on="0"/>
        <pt x="252" y="879" on="0"/>
        <pt x="291" y="879" on="1"/>
        <pt x="325" y="879" on="0"/>
        <pt x="394" y="836" on="0"/>
        <pt x="414" y="836" on="1"/>
        <pt x="429" y="836" on="0"/>
        <pt x="446" y="860" on="0"/>
        <pt x="446" y="879" on="1"/>
        <pt x="516" y="879" on="1"/>
        <pt x="516" y="816" on="0"/>
        <pt x="460" y="761" on="0"/>
        <pt x="420" y="761" on="1"/>
        <pt x="385" y="761" on="0"/>
        <pt x="317" y="803" on="0"/>
      </contour>
      <contour>
        <pt x="695" y="0" on="1"/>
        <pt x="579" y="0" on="1"/>
        <pt x="513" y="156" on="1"/>
        <pt x="187" y="156" on="1"/>
        <pt x="121" y="0" on="1"/>
        <pt x="5" y="0" on="1"/>
        <pt x="300" y="670" on="1"/>
        <pt x="400" y="670" on="1"/>
      </contour>
      <contour>
        <pt x="471" y="254" on="1"/>
        <pt x="350" y="539" on="1"/>
        <pt x="229" y="254" on="1"/>
      </contour>
    </TTGlyph>
    <TTGlyph name="B" xMin="79" yMin="0" xMax="617" yMax="670">
      <contour>
        <pt x="491" y="345" on="1"/>
        <pt x="491" y="341" on="1"/>
        <pt x="543" y="335" on="0"/>
        <pt x="617" y="251" on="0"/>
        <pt x="617" y="184" on="1"/>
        <pt x="617" y="100" on="0"/>
        <pt x="508" y="0" on="0"/>
        <pt x="405" y="0" on="1"/>
        <pt x="79" y="0" on="1"/>
        <pt x="79" y="670" on="1"/>
        <pt x="398" y="670" on="1"/>
        <pt x="489" y="670" on="0"/>
        <pt x="597" y="571" on="0"/>
        <pt x="597" y="489" on="1"/>
        <pt x="597" y="430" on="0"/>
        <pt x="532" y="352" on="0"/>
      </contour>
      <contour>
        <pt x="186" y="578" on="1"/>
        <pt x="186" y="380" on="1"/>
        <pt x="386" y="380" on="1"/>
        <pt x="434" y="380" on="0"/>
        <pt x="493" y="437" on="0"/>
        <pt x="493" y="483" on="1"/>
        <pt x="493" y="525" on="0"/>
        <pt x="434" y="578" on="0"/>
        <pt x="387" y="578" on="1"/>
      </contour>
      <contour>
        <pt x="186" y="92" on="1"/>
        <pt x="394" y="92" on="1"/>
        <pt x="447" y="92" on="0"/>
        <pt x="507" y="148" on="0"/>
        <pt x="507" y="194" on="1"/>
        <pt x="507" y="239" on="0"/>
        <pt x="446" y="294" on="0"/>
        <pt x="397" y="294" on="1"/>
        <pt x="186" y="294" on="1"/>
      </contour>
    </TTGlyph>
    <TTGlyph name="C" xMin="48" yMin="-14" xMax="722" yMax="684">
      <contour>
        <pt x="397" y="87" on="1"/>
        <pt x="478" y="87" on="0"/>
        <pt x="596" y="173" on="0"/>
        <pt x="618" y="256" on="1"/>
        <pt x="722" y="234" on="1"/>
        <pt x="695" y="118" on="0"/>
        <pt x="517" y="-14" on="0"/>
        <pt x="397" y="-14" on="1"/>
        <pt x="251" y="-14" on="0"/>
        <pt x="48" y="188" on="0"/>
        <pt x="48" y="335" on="1"/>
        <pt x="48" y="481" on="0"/>
        <pt x="251" y="684" on="0"/>
        <pt x="397" y="684" on="1"/>
        <pt x="516" y="684" on="0"/>
        <pt x="694" y="554" on="0"/>
        <pt x="722" y="444" on="1"/>
        <pt x="618" y="414" on="1"/>
        <pt x="596" y="497" on="0"/>
        <pt x="478" y="583" on="0"/>
        <pt x="397" y="583" on="1"/>
        <pt x="295" y="583" on="0"/>
        <pt x="156" y="440" on="0"/>
        <pt x="156" y="230" on="0"/>
        <pt x="295" y="87" on="0"/>
      </contour>
    </TTGlyph>
    <TTGlyph name="Cacute" xMin="48" yMin="-14" xMax="722" yMax="883">
      <contour>
        <pt x="445" y="741" on="1"/>
        <pt x="356" y="741" on="1"/>
        <pt x="429" y="883" on="1"/>
        <pt x="551" y="883" on="1"/>
      </contour>
      <contour>
        <pt x="397" y="87" on="1"/>
        <pt x="478" y="87" on="0"/>
        <pt x="596" y="173" on="0"/>
        <pt x="618" y="256" on="1"/>
        <pt x="722" y="234" on="1"/>
        <pt x="695" y="118" on="0"/>
        <pt x="517" y="-14" on="0"/>
        <pt x="397" y="-14" on="1"/>
        <pt x="251" y="-14" on="0"/>
        <pt x="48" y="188" on="0"/>
        <pt x="48" y="335" on="1"/>
        <pt x="48" y="481" on="0"/>
        <pt x="251" y="684" on="0"/>
        <pt x="397" y="684" on="1"/>
        <pt x="516" y="684" on="0"/>
        <pt x="694" y="554" on="0"/>
        <pt x="722" y="444" on="1"/>
        <pt x="618" y="414" on="1"/>
        <pt x="596" y="497" on="0"/>
        <pt x="478" y="583" on="0"/>
        <pt x="397" y="583" on="1"/>
        <pt x="295" y="583" on="0"/>
        <pt x="156" y="440" on="0"/>
        <pt x="156" y="230" on="0"/>
        <pt x="295" y="87" on="0"/>
      </contour>
    </TTGlyph>
    <TTGlyph name="Ccaron" xMin="48" yMin="-14" xMax="722" yMax="879">
      <contour>
        <pt x="347" y="733" on="1"/>
        <pt x="232" y="879" on="1"/>
        <pt x="336" y="879" on="1"/>
        <pt x="397" y="801" on="1"/>
        <pt x="457" y="879" on="1"/>
        <pt x="562" y="879" on="1"/>
        <pt x="446" y="733" on="1"/>
      </contour>
      <contour>
        <pt x="397" y="87" on="1"/>
        <pt x="478" y="87" on="0"/>
        <pt x="596" y="173" on="0"/>
        <pt x="618" y="256" on="1"/>
        <pt x="722" y="234" on="1"/>
        <pt x="695" y="118" on="0"/>
        <pt x="517" y="-14" on="0"/>
        <pt x="397" y="-14" on="1"/>
        <pt x="251" y="-14" on="0"/>
        <pt x="48" y="188" on="0"/>
        <pt x="48" y="335" on="1"/>
        <pt x="48" y="481" on="0"/>
        <pt x="251" y="684" on="0"/>
        <pt x="397" y="684" on="1"/>
        <pt x="516" y="684" on="0"/>
        <pt x="694" y="554" on="0"/>
        <pt x="722" y="444" on="1"/>
        <pt x="618" y="414" on="1"/>
        <pt x="596" y="497" on="0"/>
        <pt x="478" y="583" on="0"/>
        <pt x="397" y="583" on="1"/>
        <pt x="295" y="583" on="0"/>
        <pt x="156" y="440" on="0"/>
        <pt x="156" y="230" on="0"/>
        <pt x="295" y="87" on="0"/>
      </contour>
    </TTGlyph>
    <TTGlyph name="Ccedilla" xMin="48" yMin="-165" xMax="722" yMax="684">
      <contour>
        <pt x="397" y="87" on="1"/>
        <pt x="478" y="87" on="0"/>
        <pt x="596" y="173" on="0"/>
        <pt x="618" y="256" on="1"/>
        <pt x="722" y="234" on="1"/>
        <pt x="696" y="125" on="0"/>
        <pt x="536" y="-5" on="0"/>
        <pt x="425" y="-13" on="1"/>
        <pt x="365" y="-165" on="1"/>
        <pt x="254" y="-165" on="1"/>
        <pt x="346" y="-10" on="1"/>
        <pt x="218" y="8" on="0"/>
        <pt x="48" y="202" on="0"/>
        <pt x="48" y="335" on="1"/>
        <pt x="48" y="481" on="0"/>
        <pt x="251" y="684" on="0"/>
        <pt x="397" y="684" on="1"/>
        <pt x="516" y="684" on="0"/>
        <pt x="694" y="554" on="0"/>
        <pt x="722" y="444" on="1"/>
        <pt x="618" y="414" on="1"/>
        <pt x="596" y="497" on="0"/>
        <pt x="478" y="583" on="0"/>
        <pt x="397" y="583" on="1"/>
        <pt x="295" y="583" on="0"/>
        <pt x="156" y="440" on="0"/>
        <pt x="156" y="230" on="0"/>
        <pt x="295" y="87" on="0"/>
      </contour>
    </TTGlyph>
    <TTGlyph name="Cdotaccent" xMin="48" yMin="-14" xMax="722" yMax="878">
      <contour>
        <pt x="423" y="752" on="0"/>
        <pt x="367" y="752" on="0"/>
        <pt x="331" y="788" on="0"/>
        <pt x="331" y="815" on="1"/>
        <pt x="331" y="841" on="0"/>
        <pt x="368" y="878" on="0"/>
        <pt x="422" y="878" on="0"/>
        <pt x="460" y="841" on="0"/>
        <pt x="460" y="815" on="1"/>
        <pt x="460" y="788" on="0"/>
      </contour>
      <contour>
        <pt x="397" y="87" on="1"/>
        <pt x="478" y="87" on="0"/>
        <pt x="596" y="173" on="0"/>
        <pt x="618" y="256" on="1"/>
        <pt x="722" y="234" on="1"/>
        <pt x="695" y="118" on="0"/>
        <pt x="517" y="-14" on="0"/>
        <pt x="397" y="-14" on="1"/>
        <pt x="251" y="-14" on="0"/>
        <pt x="48" y="188" on="0"/>
        <pt x="48" y="335" on="1"/>
        <pt x="48" y="481" on="0"/>
        <pt x="251" y="684" on="0"/>
        <pt x="397" y="684" on="1"/>
        <pt x="516" y="684" on="0"/>
        <pt x="694" y="554" on="0"/>
        <pt x="722" y="444" on="1"/>
        <pt x="618" y="414" on="1"/>
        <pt x="596" y="497" on="0"/>
        <pt x="478" y="583" on="0"/>
        <pt x="397" y="583" on="1"/>
        <pt x="295" y="583" on="0"/>
        <pt x="156" y="440" on="0"/>
        <pt x="156" y="230" on="0"/>
        <pt x="295" y="87" on="0"/>
      </contour>
    </TTGlyph>
    <TTGlyph name="D" xMin="79" yMin="0" xMax="683" yMax="670">
      <contour>
        <pt x="79" y="670" on="1"/>
        <pt x="313" y="670" on="1"/>
        <pt x="482" y="670" on="0"/>
        <pt x="683" y="483" on="0"/>
        <pt x="683" y="187" on="0"/>
        <pt x="482" y="0" on="0"/>
        <pt x="313" y="0" on="1"/>
        <pt x="79" y="0" on="1"/>
      </contour>
      <contour>
        <pt x="186" y="97" on="1"/>
        <pt x="313" y="97" on="1"/>
        <pt x="433" y="97" on="0"/>
        <pt x="575" y="229" on="0"/>
        <pt x="575" y="441" on="0"/>
        <pt x="433" y="573" on="0"/>
        <pt x="313" y="573" on="1"/>
        <pt x="186" y="573" on="1"/>
      </contour>
    </TTGlyph>
    <TTGlyph name="Dcaron" xMin="79" yMin="0" xMax="683" yMax="879">
      <contour>
        <pt x="302" y="733" on="1"/>
        <pt x="187" y="879" on="1"/>
        <pt x="291" y="879" on="1"/>
        <pt x="352" y="801" on="1"/>
        <pt x="412" y="879" on="1"/>
        <pt x="517" y="879" on="1"/>
        <pt x="401" y="733" on="1"/>
      </contour>
      <contour>
        <pt x="79" y="670" on="1"/>
        <pt x="313" y="670" on="1"/>
        <pt x="482" y="670" on="0"/>
        <pt x="683" y="483" on="0"/>
        <pt x="683" y="187" on="0"/>
        <pt x="482" y="0" on="0"/>
        <pt x="313" y="0" on="1"/>
        <pt x="79" y="0" on="1"/>
      </contour>
      <contour>
        <pt x="186" y="97" on="1"/>
        <pt x="313" y="97" on="1"/>
        <pt x="433" y="97" on="0"/>
        <pt x="575" y="229" on="0"/>
        <pt x="575" y="441" on="0"/>
        <pt x="433" y="573" on="0"/>
        <pt x="313" y="573" on="1"/>
        <pt x="186" y="573" on="1"/>
      </contour>
    </TTGlyph>
    <TTGlyph name="Dcroat" xMin="30" yMin="0" xMax="702" yMax="670">
      <contour>
        <pt x="98" y="670" on="1"/>
        <pt x="332" y="670" on="1"/>
        <pt x="501" y="670" on="0"/>
        <pt x="702" y="483" on="0"/>
        <pt x="702" y="187" on="0"/>
        <pt x="501" y="0" on="0"/>
        <pt x="332" y="0" on="1"/>
        <pt x="98" y="0" on="1"/>
        <pt x="98" y="288" on="1"/>
        <pt x="30" y="288" on="1"/>
        <pt x="30" y="386" on="1"/>
        <pt x="98" y="386" on="1"/>
      </contour>
      <contour>
        <pt x="205" y="97" on="1"/>
        <pt x="332" y="97" on="1"/>
        <pt x="452" y="97" on="0"/>
        <pt x="593" y="229" on="0"/>
        <pt x="593" y="441" on="0"/>
        <pt x="452" y="573" on="0"/>
        <pt x="332" y="573" on="1"/>
        <pt x="205" y="573" on="1"/>
        <pt x="205" y="386" on="1"/>
        <pt x="353" y="386" on="1"/>
        <pt x="353" y="288" on="1"/>
        <pt x="205" y="288" on="1"/>
      </contour>
    </TTGlyph>
    <TTGlyph name="E" xMin="79" yMin="0" xMax="578" yMax="670">
      <contour>
        <pt x="578" y="97" on="1"/>
        <pt x="578" y="0" on="1"/>
        <pt x="79" y="0" on="1"/>
        <pt x="79" y="670" on="1"/>
        <pt x="577" y="670" on="1"/>
        <pt x="577" y="573" on="1"/>
        <pt x="186" y="573" on="1"/>
        <pt x="186" y="384" on="1"/>
        <pt x="547" y="384" on="1"/>
        <pt x="547" y="288" on="1"/>
        <pt x="186" y="288" on="1"/>
        <pt x="186" y="97" on="1"/>
      </contour>
    </TTGlyph>
    <TTGlyph name="Eacute" xMin="79" yMin="0" xMax="578" yMax="883">
      <contour>
        <pt x="389" y="741" on="1"/>
        <pt x="300" y="741" on="1"/>
        <pt x="373" y="883" on="1"/>
        <pt x="495" y="883" on="1"/>
      </contour>
      <contour>
        <pt x="578" y="97" on="1"/>
        <pt x="578" y="0" on="1"/>
        <pt x="79" y="0" on="1"/>
        <pt x="79" y="670" on="1"/>
        <pt x="577" y="670" on="1"/>
        <pt x="577" y="573" on="1"/>
        <pt x="186" y="573" on="1"/>
        <pt x="186" y="384" on="1"/>
        <pt x="547" y="384" on="1"/>
        <pt x="547" y="288" on="1"/>
        <pt x="186" y="288" on="1"/>
        <pt x="186" y="97" on="1"/>
      </contour>
    </TTGlyph>
    <TTGlyph name="Ecaron" xMin="79" yMin="0" xMax="578" yMax="879">
      <contour>
        <pt x="291" y="733" on="1"/>
        <pt x="176" y="879" on="1"/>
        <pt x="280" y="879" on="1"/>
        <pt x="341" y="801" on="1"/>
        <pt x="401" y="879" on="1"/>
        <pt x="506" y="879" on="1"/>
        <pt x="390" y="733" on="1"/>
      </contour>
      <contour>
        <pt x="578" y="97" on="1"/>
        <pt x="578" y="0" on="1"/>
        <pt x="79" y="0" on="1"/>
        <pt x="79" y="670" on="1"/>
        <pt x="577" y="670" on="1"/>
        <pt x="577" y="573" on="1"/>
        <pt x="186" y="573" on="1"/>
        <pt x="186" y="384" on="1"/>
        <pt x="547" y="384" on="1"/>
        <pt x="547" y="288" on="1"/>
        <pt x="186" y="288" on="1"/>
        <pt x="186" y="97" on="1"/>
      </contour>
    </TTGlyph>
    <TTGlyph name="Ecircumflex" xMin="79" yMin="0" xMax="578" yMax="878">
      <contour>
        <pt x="280" y="733" on="1"/>
        <pt x="176" y="733" on="1"/>
        <pt x="291" y="878" on="1"/>
        <pt x="390" y="878" on="1"/>
        <pt x="506" y="733" on="1"/>
        <pt x="401" y="733" on="1"/>
        <pt x="341" y="810" on="1"/>
      </contour>
      <contour>
        <pt x="578" y="97" on="1"/>
        <pt x="578" y="0" on="1"/>
        <pt x="79" y="0" on="1"/>
        <pt x="79" y="670" on="1"/>
        <pt x="577" y="670" on="1"/>
        <pt x="577" y="573" on="1"/>
        <pt x="186" y="573" on="1"/>
        <pt x="186" y="384" on="1"/>
        <pt x="547" y="384" on="1"/>
        <pt x="547" y="288" on="1"/>
        <pt x="186" y="288" on="1"/>
        <pt x="186" y="97" on="1"/>
      </contour>
    </TTGlyph>
    <TTGlyph name="Edieresis" xMin="79" yMin="0" xMax="578" yMax="873">
      <contour>
        <pt x="266" y="744" on="0"/>
        <pt x="208" y="744" on="0"/>
        <pt x="171" y="780" on="0"/>
        <pt x="171" y="808" on="1"/>
        <pt x="171" y="834" on="0"/>
        <pt x="209" y="873" on="0"/>
        <pt x="265" y="873" on="0"/>
        <pt x="303" y="834" on="0"/>
        <pt x="303" y="808" on="1"/>
        <pt x="303" y="780" on="0"/>
      </contour>
      <contour>
        <pt x="473" y="744" on="0"/>
        <pt x="415" y="744" on="0"/>
        <pt x="378" y="780" on="0"/>
        <pt x="378" y="808" on="1"/>
        <pt x="378" y="834" on="0"/>
        <pt x="416" y="873" on="0"/>
        <pt x="472" y="873" on="0"/>
        <pt x="510" y="834" on="0"/>
        <pt x="510" y="808" on="1"/>
        <pt x="510" y="780" on="0"/>
      </contour>
      <contour>
        <pt x="578" y="97" on="1"/>
        <pt x="578" y="0" on="1"/>
        <pt x="79" y="0" on="1"/>
        <pt x="79" y="670" on="1"/>
        <pt x="577" y="670" on="1"/>
        <pt x="577" y="573" on="1"/>
        <pt x="186" y="573" on="1"/>
        <pt x="186" y="384" on="1"/>
        <pt x="547" y="384" on="1"/>
        <pt x="547" y="288" on="1"/>
        <pt x="186" y="288" on="1"/>
        <pt x="186" y="97" on="1"/>
      </contour>
    </TTGlyph>
    <TTGlyph name="Edotaccent" xMin="79" yMin="0" xMax="578" yMax="878">
      <contour>
        <pt x="367" y="752" on="0"/>
        <pt x="311" y="752" on="0"/>
        <pt x="275" y="788" on="0"/>
        <pt x="275" y="815" on="1"/>
        <pt x="275" y="841" on="0"/>
        <pt x="312" y="878" on="0"/>
        <pt x="366" y="878" on="0"/>
        <pt x="404" y="841" on="0"/>
        <pt x="404" y="815" on="1"/>
        <pt x="404" y="788" on="0"/>
      </contour>
      <contour>
        <pt x="578" y="97" on="1"/>
        <pt x="578" y="0" on="1"/>
        <pt x="79" y="0" on="1"/>
        <pt x="79" y="670" on="1"/>
        <pt x="577" y="670" on="1"/>
        <pt x="577" y="573" on="1"/>
        <pt x="186" y="573" on="1"/>
        <pt x="186" y="384" on="1"/>
        <pt x="547" y="384" on="1"/>
        <pt x="547" y="288" on="1"/>
        <pt x="186" y="288" on="1"/>
        <pt x="186" y="97" on="1"/>
      </contour>
    </TTGlyph>
    <TTGlyph name="Egrave" xMin="79" yMin="0" xMax="578" yMax="883">
      <contour>
        <pt x="294" y="741" on="1"/>
        <pt x="188" y="883" on="1"/>
        <pt x="310" y="883" on="1"/>
        <pt x="383" y="741" on="1"/>
      </contour>
      <contour>
        <pt x="578" y="97" on="1"/>
        <pt x="578" y="0" on="1"/>
        <pt x="79" y="0" on="1"/>
        <pt x="79" y="670" on="1"/>
        <pt x="577" y="670" on="1"/>
        <pt x="577" y="573" on="1"/>
        <pt x="186" y="573" on="1"/>
        <pt x="186" y="384" on="1"/>
        <pt x="547" y="384" on="1"/>
        <pt x="547" y="288" on="1"/>
        <pt x="186" y="288" on="1"/>
        <pt x="186" y="97" on="1"/>
      </contour>
    </TTGlyph>
    <TTGlyph name="Emacron" xMin="79" yMin="0" xMax="578" yMax="837">
      <contour>
        <pt x="491" y="752" on="1"/>
        <pt x="190" y="752" on="1"/>
        <pt x="190" y="837" on="1"/>
        <pt x="491" y="837" on="1"/>
      </contour>
      <contour>
        <pt x="578" y="97" on="1"/>
        <pt x="578" y="0" on="1"/>
        <pt x="79" y="0" on="1"/>
        <pt x="79" y="670" on="1"/>
        <pt x="577" y="670" on="1"/>
        <pt x="577" y="573" on="1"/>
        <pt x="186" y="573" on="1"/>
        <pt x="186" y="384" on="1"/>
        <pt x="547" y="384" on="1"/>
        <pt x="547" y="288" on="1"/>
        <pt x="186" y="288" on="1"/>
        <pt x="186" y="97" on="1"/>
      </contour>
    </TTGlyph>
    <TTGlyph name="Eng" xMin="79" yMin="-180" xMax="682" yMax="670">
      <contour>
        <pt x="682" y="670" on="1"/>
        <pt x="682" y="-39" on="1"/>
        <pt x="682" y="-100" on="0"/>
        <pt x="607" y="-180" on="0"/>
        <pt x="547" y="-180" on="1"/>
        <pt x="492" y="-180" on="0"/>
        <pt x="442" y="-157" on="1"/>
        <pt x="461" y="-76" on="1"/>
        <pt x="494" y="-89" on="0"/>
        <pt x="522" y="-89" on="1"/>
        <pt x="547" y="-89" on="0"/>
        <pt x="577" y="-62" on="0"/>
        <pt x="577" y="-39" on="1"/>
        <pt x="577" y="17" on="1"/>
        <pt x="186" y="481" on="1"/>
        <pt x="186" y="0" on="1"/>
        <pt x="79" y="0" on="1"/>
        <pt x="79" y="670" on="1"/>
        <pt x="170" y="670" on="1"/>
        <pt x="574" y="181" on="1"/>
        <pt x="574" y="670" on="1"/>
      </contour>
    </TTGlyph>
    <TTGlyph name="Eogonek" xMin="79" yMin="-205" xMax="578" yMax="670">
      <contour>
        <pt x="578" y="0" on="1"/>
        <pt x="552" y="0" on="1"/>
        <pt x="521" y="-34" on="0"/>
        <pt x="503" y="-55" on="0"/>
        <pt x="486" y="-86" on="0"/>
        <pt x="486" y="-100" on="1"/>
        <pt x="486" y="-133" on="0"/>
        <pt x="520" y="-133" on="1"/>
        <pt x="533" y="-133" on="0"/>
        <pt x="568" y="-122" on="1"/>
        <pt x="574" y="-187" on="1"/>
        <pt x="532" y="-205" on="0"/>
        <pt x="497" y="-205" on="1"/>
        <pt x="459" y="-205" on="0"/>
        <pt x="408" y="-162" on="0"/>
        <pt x="408" y="-119" on="1"/>
        <pt x="408" y="-88" on="0"/>
        <pt x="440" y="-34" on="0"/>
        <pt x="479" y="0" on="1"/>
        <pt x="79" y="0" on="1"/>
        <pt x="79" y="670" on="1"/>
        <pt x="577" y="670" on="1"/>
        <pt x="577" y="573" on="1"/>
        <pt x="186" y="573" on="1"/>
        <pt x="186" y="384" on="1"/>
        <pt x="547" y="384" on="1"/>
        <pt x="547" y="288" on="1"/>
        <pt x="186" y="288" on="1"/>
        <pt x="186" y="97" on="1"/>
        <pt x="578" y="97" on="1"/>
      </contour>
    </TTGlyph>
    <TTGlyph name="Eth" xMin="30" yMin="0" xMax="702" yMax="670">
      <contour>
        <pt x="98" y="670" on="1"/>
        <pt x="332" y="670" on="1"/>
        <pt x="501" y="670" on="0"/>
        <pt x="702" y="483" on="0"/>
        <pt x="702" y="187" on="0"/>
        <pt x="501" y="0" on="0"/>
        <pt x="332" y="0" on="1"/>
        <pt x="98" y="0" on="1"/>
        <pt x="98" y="288" on="1"/>
        <pt x="30" y="288" on="1"/>
        <pt x="30" y="386" on="1"/>
        <pt x="98" y="386" on="1"/>
      </contour>
      <contour>
        <pt x="205" y="97" on="1"/>
        <pt x="332" y="97" on="1"/>
        <pt x="452" y="97" on="0"/>
        <pt x="593" y="229" on="0"/>
        <pt x="593" y="441" on="0"/>
        <pt x="452" y="573" on="0"/>
        <pt x="332" y="573" on="1"/>
        <pt x="205" y="573" on="1"/>
        <pt x="205" y="386" on="1"/>
        <pt x="353" y="386" on="1"/>
        <pt x="353" y="288" on="1"/>
        <pt x="205" y="288" on="1"/>
      </contour>
    </TTGlyph>
    <TTGlyph name="Euro" xMin="79" yMin="-14" xMax="738" yMax="684">
      <contour>
        <pt x="465" y="87" on="1"/>
        <pt x="524" y="87" on="0"/>
        <pt x="611" y="165" on="0"/>
        <pt x="632" y="242" on="1"/>
        <pt x="738" y="219" on="1"/>
        <pt x="711" y="112" on="0"/>
        <pt x="567" y="-14" on="0"/>
        <pt x="465" y="-14" on="1"/>
        <pt x="362" y="-14" on="0"/>
        <pt x="217" y="113" on="0"/>
        <pt x="191" y="223" on="1"/>
        <pt x="79" y="223" on="1"/>
        <pt x="79" y="300" on="1"/>
        <pt x="180" y="300" on="1"/>
        <pt x="179" y="311" on="0"/>
        <pt x="179" y="335" on="1"/>
        <pt x="179" y="357" on="0"/>
        <pt x="180" y="367" on="1"/>
        <pt x="79" y="367" on="1"/>
        <pt x="79" y="443" on="1"/>
        <pt x="190" y="443" on="1"/>
        <pt x="215" y="554" on="0"/>
        <pt x="362" y="684" on="0"/>
        <pt x="465" y="684" on="1"/>
        <pt x="567" y="684" on="0"/>
        <pt x="711" y="558" on="0"/>
        <pt x="738" y="451" on="1"/>
        <pt x="629" y="429" on="1"/>
        <pt x="612" y="505" on="0"/>
        <pt x="524" y="584" on="0"/>
        <pt x="465" y="584" on="1"/>
        <pt x="407" y="584" on="0"/>
        <pt x="322" y="509" on="0"/>
        <pt x="302" y="443" on="1"/>
        <pt x="536" y="443" on="1"/>
        <pt x="518" y="367" on="1"/>
        <pt x="289" y="367" on="1"/>
        <pt x="288" y="357" on="0"/>
        <pt x="288" y="335" on="1"/>
        <pt x="288" y="311" on="0"/>
        <pt x="289" y="300" on="1"/>
        <pt x="501" y="300" on="1"/>
        <pt x="483" y="223" on="1"/>
        <pt x="304" y="223" on="1"/>
        <pt x="324" y="159" on="0"/>
        <pt x="408" y="87" on="0"/>
      </contour>
    </TTGlyph>
    <TTGlyph name="Euro.tf" xMin="18" yMin="-14" xMax="582" yMax="684">
      <contour>
        <pt x="328" y="87" on="1"/>
        <pt x="430" y="87" on="0"/>
        <pt x="474" y="234" on="1"/>
        <pt x="582" y="214" on="1"/>
        <pt x="558" y="110" on="0"/>
        <pt x="422" y="-14" on="0"/>
        <pt x="328" y="-14" on="1"/>
        <pt x="229" y="-14" on="0"/>
        <pt x="94" y="110" on="0"/>
        <pt x="71" y="223" on="1"/>
        <pt x="18" y="223" on="1"/>
        <pt x="18" y="300" on="1"/>
        <pt x="62" y="300" on="1"/>
        <pt x="61" y="311" on="0"/>
        <pt x="61" y="335" on="1"/>
        <pt x="62" y="367" on="1"/>
        <pt x="18" y="367" on="1"/>
        <pt x="18" y="443" on="1"/>
        <pt x="71" y="443" on="1"/>
        <pt x="93" y="558" on="0"/>
        <pt x="228" y="684" on="0"/>
        <pt x="328" y="684" on="1"/>
        <pt x="423" y="684" on="0"/>
        <pt x="558" y="558" on="0"/>
        <pt x="582" y="451" on="1"/>
        <pt x="475" y="433" on="1"/>
        <pt x="457" y="506" on="0"/>
        <pt x="379" y="584" on="0"/>
        <pt x="328" y="584" on="1"/>
        <pt x="274" y="584" on="0"/>
        <pt x="198" y="512" on="0"/>
        <pt x="181" y="443" on="1"/>
        <pt x="393" y="443" on="1"/>
        <pt x="374" y="367" on="1"/>
        <pt x="171" y="367" on="1"/>
        <pt x="170" y="335" on="1"/>
        <pt x="170" y="311" on="0"/>
        <pt x="171" y="300" on="1"/>
        <pt x="360" y="300" on="1"/>
        <pt x="342" y="223" on="1"/>
        <pt x="182" y="223" on="1"/>
        <pt x="199" y="157" on="0"/>
        <pt x="275" y="87" on="0"/>
      </contour>
    </TTGlyph>
    <TTGlyph name="F" xMin="79" yMin="0" xMax="569" yMax="670">
      <contour>
        <pt x="186" y="573" on="1"/>
        <pt x="186" y="374" on="1"/>
        <pt x="532" y="374" on="1"/>
        <pt x="532" y="277" on="1"/>
        <pt x="186" y="277" on="1"/>
        <pt x="186" y="0" on="1"/>
        <pt x="79" y="0" on="1"/>
        <pt x="79" y="670" on="1"/>
        <pt x="569" y="670" on="1"/>
        <pt x="569" y="573" on="1"/>
      </contour>
    </TTGlyph>
    <TTGlyph name="G" xMin="48" yMin="-14" xMax="738" yMax="684">
      <contour>
        <pt x="367" y="380" on="1"/>
        <pt x="736" y="380" on="1"/>
        <pt x="738" y="344" on="0"/>
        <pt x="738" y="334" on="1"/>
        <pt x="738" y="185" on="0"/>
        <pt x="548" y="-14" on="0"/>
        <pt x="252" y="-14" on="0"/>
        <pt x="48" y="188" on="0"/>
        <pt x="48" y="335" on="1"/>
        <pt x="48" y="481" on="0"/>
        <pt x="250" y="684" on="0"/>
        <pt x="397" y="684" on="1"/>
        <pt x="507" y="684" on="0"/>
        <pt x="681" y="580" on="0"/>
        <pt x="716" y="486" on="1"/>
        <pt x="619" y="452" on="1"/>
        <pt x="555" y="583" on="0"/>
        <pt x="397" y="583" on="1"/>
        <pt x="296" y="583" on="0"/>
        <pt x="157" y="440" on="0"/>
        <pt x="157" y="335" on="1"/>
        <pt x="157" y="229" on="0"/>
        <pt x="299" y="87" on="0"/>
        <pt x="403" y="87" on="1"/>
        <pt x="494" y="87" on="0"/>
        <pt x="618" y="194" on="0"/>
        <pt x="633" y="282" on="1"/>
        <pt x="367" y="282" on="1"/>
      </contour>
    </TTGlyph>
    <TTGlyph name="Gbreve" xMin="48" yMin="-14" xMax="738" yMax="868">
      <contour>
        <pt x="473" y="726" on="0"/>
        <pt x="331" y="726" on="0"/>
        <pt x="246" y="803" on="0"/>
        <pt x="246" y="868" on="1"/>
        <pt x="333" y="868" on="1"/>
        <pt x="333" y="837" on="0"/>
        <pt x="373" y="798" on="0"/>
        <pt x="402" y="798" on="1"/>
        <pt x="432" y="798" on="0"/>
        <pt x="472" y="837" on="0"/>
        <pt x="472" y="868" on="1"/>
        <pt x="558" y="868" on="1"/>
        <pt x="558" y="803" on="0"/>
      </contour>
      <contour>
        <pt x="367" y="380" on="1"/>
        <pt x="736" y="380" on="1"/>
        <pt x="738" y="344" on="0"/>
        <pt x="738" y="334" on="1"/>
        <pt x="738" y="185" on="0"/>
        <pt x="548" y="-14" on="0"/>
        <pt x="252" y="-14" on="0"/>
        <pt x="48" y="188" on="0"/>
        <pt x="48" y="335" on="1"/>
        <pt x="48" y="481" on="0"/>
        <pt x="250" y="684" on="0"/>
        <pt x="397" y="684" on="1"/>
        <pt x="507" y="684" on="0"/>
        <pt x="681" y="580" on="0"/>
        <pt x="716" y="486" on="1"/>
        <pt x="619" y="452" on="1"/>
        <pt x="555" y="583" on="0"/>
        <pt x="397" y="583" on="1"/>
        <pt x="296" y="583" on="0"/>
        <pt x="157" y="440" on="0"/>
        <pt x="157" y="335" on="1"/>
        <pt x="157" y="229" on="0"/>
        <pt x="299" y="87" on="0"/>
        <pt x="403" y="87" on="1"/>
        <pt x="494" y="87" on="0"/>
        <pt x="618" y="194" on="0"/>
        <pt x="633" y="282" on="1"/>
        <pt x="367" y="282" on="1"/>
      </contour>
    </TTGlyph>
    <TTGlyph name="Gcommaaccent" xMin="48" yMin="-191" xMax="738" yMax="684">
      <contour>
        <pt x="367" y="380" on="1"/>
        <pt x="736" y="380" on="1"/>
        <pt x="738" y="344" on="0"/>
        <pt x="738" y="334" on="1"/>
        <pt x="738" y="185" on="0"/>
        <pt x="548" y="-14" on="0"/>
        <pt x="252" y="-14" on="0"/>
        <pt x="48" y="188" on="0"/>
        <pt x="48" y="335" on="1"/>
        <pt x="48" y="481" on="0"/>
        <pt x="250" y="684" on="0"/>
        <pt x="397" y="684" on="1"/>
        <pt x="507" y="684" on="0"/>
        <pt x="681" y="580" on="0"/>
        <pt x="716" y="486" on="1"/>
        <pt x="619" y="452" on="1"/>
        <pt x="555" y="583" on="0"/>
        <pt x="397" y="583" on="1"/>
        <pt x="296" y="583" on="0"/>
        <pt x="157" y="440" on="0"/>
        <pt x="157" y="335" on="1"/>
        <pt x="157" y="229" on="0"/>
        <pt x="299" y="87" on="0"/>
        <pt x="403" y="87" on="1"/>
        <pt x="494" y="87" on="0"/>
        <pt x="618" y="194" on="0"/>
        <pt x="633" y="282" on="1"/>
        <pt x="367" y="282" on="1"/>
      </contour>
      <contour>
        <pt x="337" y="-45" on="1"/>
        <pt x="450" y="-45" on="1"/>
        <pt x="366" y="-191" on="1"/>
        <pt x="287" y="-191" on="1"/>
      </contour>
    </TTGlyph>
    <TTGlyph name="Gdotaccent" xMin="48" yMin="-14" xMax="738" yMax="878">
      <contour>
        <pt x="430" y="752" on="0"/>
        <pt x="374" y="752" on="0"/>
        <pt x="338" y="788" on="0"/>
        <pt x="338" y="815" on="1"/>
        <pt x="338" y="841" on="0"/>
        <pt x="375" y="878" on="0"/>
        <pt x="429" y="878" on="0"/>
        <pt x="467" y="841" on="0"/>
        <pt x="467" y="815" on="1"/>
        <pt x="467" y="788" on="0"/>
      </contour>
      <contour>
        <pt x="367" y="380" on="1"/>
        <pt x="736" y="380" on="1"/>
        <pt x="738" y="344" on="0"/>
        <pt x="738" y="334" on="1"/>
        <pt x="738" y="185" on="0"/>
        <pt x="548" y="-14" on="0"/>
        <pt x="252" y="-14" on="0"/>
        <pt x="48" y="188" on="0"/>
        <pt x="48" y="335" on="1"/>
        <pt x="48" y="481" on="0"/>
        <pt x="250" y="684" on="0"/>
        <pt x="397" y="684" on="1"/>
        <pt x="507" y="684" on="0"/>
        <pt x="681" y="580" on="0"/>
        <pt x="716" y="486" on="1"/>
        <pt x="619" y="452" on="1"/>
        <pt x="555" y="583" on="0"/>
        <pt x="397" y="583" on="1"/>
        <pt x="296" y="583" on="0"/>
        <pt x="157" y="440" on="0"/>
        <pt x="157" y="335" on="1"/>
        <pt x="157" y="229" on="0"/>
        <pt x="299" y="87" on="0"/>
        <pt x="403" y="87" on="1"/>
        <pt x="494" y="87" on="0"/>
        <pt x="618" y="194" on="0"/>
        <pt x="633" y="282" on="1"/>
        <pt x="367" y="282" on="1"/>
      </contour>
    </TTGlyph>
    <TTGlyph name="H" xMin="79" yMin="0" xMax="655" yMax="670">
      <contour>
        <pt x="655" y="670" on="1"/>
        <pt x="655" y="0" on="1"/>
        <pt x="548" y="0" on="1"/>
        <pt x="548" y="288" on="1"/>
        <pt x="186" y="288" on="1"/>
        <pt x="186" y="0" on="1"/>
        <pt x="79" y="0" on="1"/>
        <pt x="79" y="670" on="1"/>
        <pt x="186" y="670" on="1"/>
        <pt x="186" y="386" on="1"/>
        <pt x="548" y="386" on="1"/>
        <pt x="548" y="670" on="1"/>
      </contour>
    </TTGlyph>
    <TTGlyph name="Hbar" xMin="30" yMin="0" xMax="732" yMax="670">
      <contour>
        <pt x="732" y="455" on="1"/>
        <pt x="666" y="455" on="1"/>
        <pt x="666" y="0" on="1"/>
        <pt x="559" y="0" on="1"/>
        <pt x="559" y="258" on="1"/>
        <pt x="203" y="258" on="1"/>
        <pt x="203" y="0" on="1"/>
        <pt x="96" y="0" on="1"/>
        <pt x="96" y="455" on="1"/>
        <pt x="30" y="455" on="1"/>
        <pt x="30" y="545" on="1"/>
        <pt x="96" y="545" on="1"/>
        <pt x="96" y="670" on="1"/>
        <pt x="203" y="670" on="1"/>
        <pt x="203" y="545" on="1"/>
        <pt x="559" y="545" on="1"/>
        <pt x="559" y="670" on="1"/>
        <pt x="666" y="670" on="1"/>
        <pt x="666" y="545" on="1"/>
        <pt x="732" y="545" on="1"/>
      </contour>
      <contour>
        <pt x="559" y="455" on="1"/>
        <pt x="203" y="455" on="1"/>
        <pt x="203" y="356" on="1"/>
        <pt x="559" y="356" on="1"/>
      </contour>
    </TTGlyph>
    <TTGlyph name="I" xMin="79" yMin="0" xMax="186" yMax="670">
      <contour>
        <pt x="186" y="0" on="1"/>
        <pt x="79" y="0" on="1"/>
        <pt x="79" y="670" on="1"/>
        <pt x="186" y="670" on="1"/>
      </contour>
    </TTGlyph>
    <TTGlyph name="I.ss05" xMin="23" yMin="0" xMax="425" yMax="670">
      <contour>
        <pt x="278" y="573" on="1"/>
        <pt x="278" y="97" on="1"/>
        <pt x="425" y="97" on="1"/>
        <pt x="425" y="0" on="1"/>
        <pt x="23" y="0" on="1"/>
        <pt x="23" y="97" on="1"/>
        <pt x="170" y="97" on="1"/>
        <pt x="170" y="573" on="1"/>
        <pt x="23" y="573" on="1"/>
        <pt x="23" y="670" on="1"/>
        <pt x="425" y="670" on="1"/>
        <pt x="425" y="573" on="1"/>
      </contour>
    </TTGlyph>
    <TTGlyph name="IJ" xMin="79" yMin="-14" xMax="789" yMax="670">
      <contour>
        <pt x="79" y="670" on="1"/>
        <pt x="186" y="670" on="1"/>
        <pt x="186" y="0" on="1"/>
        <pt x="79" y="0" on="1"/>
      </contour>
      <contour>
        <pt x="789" y="670" on="1"/>
        <pt x="789" y="240" on="1"/>
        <pt x="789" y="128" on="0"/>
        <pt x="648" y="-14" on="0"/>
        <pt x="535" y="-14" on="1"/>
        <pt x="432" y="-14" on="0"/>
        <pt x="299" y="105" on="0"/>
        <pt x="284" y="204" on="1"/>
        <pt x="386" y="225" on="1"/>
        <pt x="395" y="161" on="0"/>
        <pt x="472" y="83" on="0"/>
        <pt x="535" y="83" on="1"/>
        <pt x="600" y="83" on="0"/>
        <pt x="681" y="171" on="0"/>
        <pt x="681" y="240" on="1"/>
        <pt x="681" y="670" on="1"/>
      </contour>
    </TTGlyph>
    <TTGlyph name="IJ.ss05" xMin="23" yMin="-14" xMax="972" yMax="670">
      <contour>
        <pt x="425" y="670" on="1"/>
        <pt x="425" y="573" on="1"/>
        <pt x="278" y="573" on="1"/>
        <pt x="278" y="97" on="1"/>
        <pt x="425" y="97" on="1"/>
        <pt x="425" y="0" on="1"/>
        <pt x="23" y="0" on="1"/>
        <pt x="23" y="97" on="1"/>
        <pt x="170" y="97" on="1"/>
        <pt x="170" y="573" on="1"/>
        <pt x="23" y="573" on="1"/>
        <pt x="23" y="670" on="1"/>
      </contour>
      <contour>
        <pt x="972" y="670" on="1"/>
        <pt x="972" y="240" on="1"/>
        <pt x="972" y="128" on="0"/>
        <pt x="831" y="-14" on="0"/>
        <pt x="718" y="-14" on="1"/>
        <pt x="615" y="-14" on="0"/>
        <pt x="482" y="105" on="0"/>
        <pt x="467" y="204" on="1"/>
        <pt x="569" y="225" on="1"/>
        <pt x="578" y="161" on="0"/>
        <pt x="655" y="83" on="0"/>
        <pt x="718" y="83" on="1"/>
        <pt x="783" y="83" on="0"/>
        <pt x="864" y="171" on="0"/>
        <pt x="864" y="240" on="1"/>
        <pt x="864" y="573" on="1"/>
        <pt x="636" y="573" on="1"/>
        <pt x="636" y="670" on="1"/>
      </contour>
    </TTGlyph>
    <TTGlyph name="Iacute" xMin="79" yMin="0" xMax="287" yMax="883">
      <contour>
        <pt x="181" y="741" on="1"/>
        <pt x="92" y="741" on="1"/>
        <pt x="165" y="883" on="1"/>
        <pt x="287" y="883" on="1"/>
      </contour>
      <contour>
        <pt x="186" y="0" on="1"/>
        <pt x="79" y="0" on="1"/>
        <pt x="79" y="670" on="1"/>
        <pt x="186" y="670" on="1"/>
      </contour>
    </TTGlyph>
    <TTGlyph name="Iacute.ss05" xMin="23" yMin="0" xMax="425" yMax="883">
      <contour>
        <pt x="273" y="741" on="1"/>
        <pt x="184" y="741" on="1"/>
        <pt x="257" y="883" on="1"/>
        <pt x="379" y="883" on="1"/>
      </contour>
      <contour>
        <pt x="278" y="573" on="1"/>
        <pt x="278" y="97" on="1"/>
        <pt x="425" y="97" on="1"/>
        <pt x="425" y="0" on="1"/>
        <pt x="23" y="0" on="1"/>
        <pt x="23" y="97" on="1"/>
        <pt x="170" y="97" on="1"/>
        <pt x="170" y="573" on="1"/>
        <pt x="23" y="573" on="1"/>
        <pt x="23" y="670" on="1"/>
        <pt x="425" y="670" on="1"/>
        <pt x="425" y="573" on="1"/>
      </contour>
    </TTGlyph>
    <TTGlyph name="Icircumflex" xMin="-32" yMin="0" xMax="298" yMax="878">
      <contour>
        <pt x="298" y="733" on="1"/>
        <pt x="193" y="733" on="1"/>
        <pt x="133" y="810" on="1"/>
        <pt x="72" y="733" on="1"/>
        <pt x="-32" y="733" on="1"/>
        <pt x="83" y="878" on="1"/>
        <pt x="182" y="878" on="1"/>
      </contour>
      <contour>
        <pt x="79" y="670" on="1"/>
        <pt x="186" y="670" on="1"/>
        <pt x="186" y="0" on="1"/>
        <pt x="79" y="0" on="1"/>
      </contour>
    </TTGlyph>
    <TTGlyph name="Icircumflex.ss05" xMin="23" yMin="0" xMax="425" yMax="878">
      <contour>
        <pt x="164" y="733" on="1"/>
        <pt x="60" y="733" on="1"/>
        <pt x="175" y="878" on="1"/>
        <pt x="274" y="878" on="1"/>
        <pt x="390" y="733" on="1"/>
        <pt x="285" y="733" on="1"/>
        <pt x="225" y="810" on="1"/>
      </contour>
      <contour>
        <pt x="278" y="573" on="1"/>
        <pt x="278" y="97" on="1"/>
        <pt x="425" y="97" on="1"/>
        <pt x="425" y="0" on="1"/>
        <pt x="23" y="0" on="1"/>
        <pt x="23" y="97" on="1"/>
        <pt x="170" y="97" on="1"/>
        <pt x="170" y="573" on="1"/>
        <pt x="23" y="573" on="1"/>
        <pt x="23" y="670" on="1"/>
        <pt x="425" y="670" on="1"/>
        <pt x="425" y="573" on="1"/>
      </contour>
    </TTGlyph>
    <TTGlyph name="Idieresis" xMin="-37" yMin="0" xMax="302" yMax="873">
      <contour>
        <pt x="1" y="873" on="0"/>
        <pt x="57" y="873" on="0"/>
        <pt x="95" y="834" on="0"/>
        <pt x="95" y="808" on="1"/>
        <pt x="95" y="780" on="0"/>
        <pt x="58" y="744" on="0"/>
        <pt x="0" y="744" on="0"/>
        <pt x="-37" y="780" on="0"/>
        <pt x="-37" y="808" on="1"/>
        <pt x="-37" y="834" on="0"/>
      </contour>
      <contour>
        <pt x="208" y="873" on="0"/>
        <pt x="264" y="873" on="0"/>
        <pt x="302" y="834" on="0"/>
        <pt x="302" y="808" on="1"/>
        <pt x="302" y="780" on="0"/>
        <pt x="265" y="744" on="0"/>
        <pt x="207" y="744" on="0"/>
        <pt x="170" y="780" on="0"/>
        <pt x="170" y="808" on="1"/>
        <pt x="170" y="834" on="0"/>
      </contour>
      <contour>
        <pt x="186" y="0" on="1"/>
        <pt x="79" y="0" on="1"/>
        <pt x="79" y="670" on="1"/>
        <pt x="186" y="670" on="1"/>
      </contour>
    </TTGlyph>
    <TTGlyph name="Idieresis.ss05" xMin="23" yMin="0" xMax="425" yMax="873">
      <contour>
        <pt x="150" y="744" on="0"/>
        <pt x="92" y="744" on="0"/>
        <pt x="55" y="780" on="0"/>
        <pt x="55" y="808" on="1"/>
        <pt x="55" y="834" on="0"/>
        <pt x="93" y="873" on="0"/>
        <pt x="149" y="873" on="0"/>
        <pt x="187" y="834" on="0"/>
        <pt x="187" y="808" on="1"/>
        <pt x="187" y="780" on="0"/>
      </contour>
      <contour>
        <pt x="357" y="744" on="0"/>
        <pt x="299" y="744" on="0"/>
        <pt x="262" y="780" on="0"/>
        <pt x="262" y="808" on="1"/>
        <pt x="262" y="834" on="0"/>
        <pt x="300" y="873" on="0"/>
        <pt x="356" y="873" on="0"/>
        <pt x="394" y="834" on="0"/>
        <pt x="394" y="808" on="1"/>
        <pt x="394" y="780" on="0"/>
      </contour>
      <contour>
        <pt x="278" y="573" on="1"/>
        <pt x="278" y="97" on="1"/>
        <pt x="425" y="97" on="1"/>
        <pt x="425" y="0" on="1"/>
        <pt x="23" y="0" on="1"/>
        <pt x="23" y="97" on="1"/>
        <pt x="170" y="97" on="1"/>
        <pt x="170" y="573" on="1"/>
        <pt x="23" y="573" on="1"/>
        <pt x="23" y="670" on="1"/>
        <pt x="425" y="670" on="1"/>
        <pt x="425" y="573" on="1"/>
      </contour>
    </TTGlyph>
    <TTGlyph name="Idotaccent" xMin="68" yMin="0" xMax="197" yMax="878">
      <contour>
        <pt x="105" y="878" on="0"/>
        <pt x="159" y="878" on="0"/>
        <pt x="197" y="841" on="0"/>
        <pt x="197" y="815" on="1"/>
        <pt x="197" y="788" on="0"/>
        <pt x="160" y="752" on="0"/>
        <pt x="104" y="752" on="0"/>
        <pt x="68" y="788" on="0"/>
        <pt x="68" y="815" on="1"/>
        <pt x="68" y="841" on="0"/>
      </contour>
      <contour>
        <pt x="186" y="0" on="1"/>
        <pt x="79" y="0" on="1"/>
        <pt x="79" y="670" on="1"/>
        <pt x="186" y="670" on="1"/>
      </contour>
    </TTGlyph>
    <TTGlyph name="Idotaccent.ss05" xMin="23" yMin="0" xMax="425" yMax="878">
      <contour>
        <pt x="251" y="752" on="0"/>
        <pt x="195" y="752" on="0"/>
        <pt x="159" y="788" on="0"/>
        <pt x="159" y="815" on="1"/>
        <pt x="159" y="841" on="0"/>
        <pt x="196" y="878" on="0"/>
        <pt x="250" y="878" on="0"/>
        <pt x="288" y="841" on="0"/>
        <pt x="288" y="815" on="1"/>
        <pt x="288" y="788" on="0"/>
      </contour>
      <contour>
        <pt x="278" y="573" on="1"/>
        <pt x="278" y="97" on="1"/>
        <pt x="425" y="97" on="1"/>
        <pt x="425" y="0" on="1"/>
        <pt x="23" y="0" on="1"/>
        <pt x="23" y="97" on="1"/>
        <pt x="170" y="97" on="1"/>
        <pt x="170" y="573" on="1"/>
        <pt x="23" y="573" on="1"/>
        <pt x="23" y="670" on="1"/>
        <pt x="425" y="670" on="1"/>
        <pt x="425" y="573" on="1"/>
      </contour>
    </TTGlyph>
    <TTGlyph name="Igrave" xMin="-19" yMin="0" xMax="186" yMax="883">
      <contour>
        <pt x="103" y="883" on="1"/>
        <pt x="176" y="741" on="1"/>
        <pt x="87" y="741" on="1"/>
        <pt x="-19" y="883" on="1"/>
      </contour>
      <contour>
        <pt x="186" y="0" on="1"/>
        <pt x="79" y="0" on="1"/>
        <pt x="79" y="670" on="1"/>
        <pt x="186" y="670" on="1"/>
      </contour>
    </TTGlyph>
    <TTGlyph name="Igrave.ss05" xMin="23" yMin="0" xMax="425" yMax="883">
      <contour>
        <pt x="178" y="741" on="1"/>
        <pt x="72" y="883" on="1"/>
        <pt x="194" y="883" on="1"/>
        <pt x="267" y="741" on="1"/>
      </contour>
      <contour>
        <pt x="278" y="573" on="1"/>
        <pt x="278" y="97" on="1"/>
        <pt x="425" y="97" on="1"/>
        <pt x="425" y="0" on="1"/>
        <pt x="23" y="0" on="1"/>
        <pt x="23" y="97" on="1"/>
        <pt x="170" y="97" on="1"/>
        <pt x="170" y="573" on="1"/>
        <pt x="23" y="573" on="1"/>
        <pt x="23" y="670" on="1"/>
        <pt x="425" y="670" on="1"/>
        <pt x="425" y="573" on="1"/>
      </contour>
    </TTGlyph>
    <TTGlyph name="Imacron" xMin="-19" yMin="0" xMax="283" yMax="837">
      <contour>
        <pt x="283" y="752" on="1"/>
        <pt x="-19" y="752" on="1"/>
        <pt x="-19" y="837" on="1"/>
        <pt x="283" y="837" on="1"/>
      </contour>
      <contour>
        <pt x="186" y="0" on="1"/>
        <pt x="79" y="0" on="1"/>
        <pt x="79" y="670" on="1"/>
        <pt x="186" y="670" on="1"/>
      </contour>
    </TTGlyph>
    <TTGlyph name="Imacron.ss05" xMin="23" yMin="0" xMax="425" yMax="837">
      <contour>
        <pt x="375" y="752" on="1"/>
        <pt x="74" y="752" on="1"/>
        <pt x="74" y="837" on="1"/>
        <pt x="375" y="837" on="1"/>
      </contour>
      <contour>
        <pt x="278" y="573" on="1"/>
        <pt x="278" y="97" on="1"/>
        <pt x="425" y="97" on="1"/>
        <pt x="425" y="0" on="1"/>
        <pt x="23" y="0" on="1"/>
        <pt x="23" y="97" on="1"/>
        <pt x="170" y="97" on="1"/>
        <pt x="170" y="573" on="1"/>
        <pt x="23" y="573" on="1"/>
        <pt x="23" y="670" on="1"/>
        <pt x="425" y="670" on="1"/>
        <pt x="425" y="573" on="1"/>
      </contour>
    </TTGlyph>
    <TTGlyph name="Iogonek" xMin="42" yMin="-205" xMax="208" yMax="670">
      <contour>
        <pt x="202" y="-122" on="1"/>
        <pt x="208" y="-187" on="1"/>
        <pt x="166" y="-205" on="0"/>
        <pt x="131" y="-205" on="1"/>
        <pt x="93" y="-205" on="0"/>
        <pt x="42" y="-162" on="0"/>
        <pt x="42" y="-119" on="1"/>
        <pt x="42" y="-88" on="0"/>
        <pt x="74" y="-34" on="0"/>
        <pt x="113" y="0" on="1"/>
        <pt x="79" y="0" on="1"/>
        <pt x="79" y="670" on="1"/>
        <pt x="186" y="670" on="1"/>
        <pt x="186" y="0" on="1"/>
        <pt x="155" y="-34" on="0"/>
        <pt x="137" y="-55" on="0"/>
        <pt x="120" y="-86" on="0"/>
        <pt x="120" y="-100" on="1"/>
        <pt x="120" y="-133" on="0"/>
        <pt x="154" y="-133" on="1"/>
        <pt x="167" y="-133" on="0"/>
      </contour>
    </TTGlyph>
    <TTGlyph name="Iogonek.ss05" xMin="23" yMin="-205" xMax="425" yMax="670">
      <contour>
        <pt x="278" y="573" on="1"/>
        <pt x="278" y="97" on="1"/>
        <pt x="425" y="97" on="1"/>
        <pt x="425" y="0" on="1"/>
        <pt x="277" y="0" on="1"/>
        <pt x="246" y="-34" on="0"/>
        <pt x="228" y="-55" on="0"/>
        <pt x="211" y="-86" on="0"/>
        <pt x="211" y="-100" on="1"/>
        <pt x="211" y="-133" on="0"/>
        <pt x="245" y="-133" on="1"/>
        <pt x="258" y="-133" on="0"/>
        <pt x="293" y="-122" on="1"/>
        <pt x="299" y="-187" on="1"/>
        <pt x="257" y="-205" on="0"/>
        <pt x="222" y="-205" on="1"/>
        <pt x="184" y="-205" on="0"/>
        <pt x="133" y="-162" on="0"/>
        <pt x="133" y="-119" on="1"/>
        <pt x="133" y="-88" on="0"/>
        <pt x="165" y="-34" on="0"/>
        <pt x="204" y="0" on="1"/>
        <pt x="23" y="0" on="1"/>
        <pt x="23" y="97" on="1"/>
        <pt x="170" y="97" on="1"/>
        <pt x="170" y="573" on="1"/>
        <pt x="23" y="573" on="1"/>
        <pt x="23" y="670" on="1"/>
        <pt x="425" y="670" on="1"/>
        <pt x="425" y="573" on="1"/>
      </contour>
    </TTGlyph>
    <TTGlyph name="J" xMin="19" yMin="-14" xMax="524" yMax="670">
      <contour>
        <pt x="524" y="670" on="1"/>
        <pt x="524" y="240" on="1"/>
        <pt x="524" y="128" on="0"/>
        <pt x="383" y="-14" on="0"/>
        <pt x="270" y="-14" on="1"/>
        <pt x="167" y="-14" on="0"/>
        <pt x="34" y="105" on="0"/>
        <pt x="19" y="204" on="1"/>
        <pt x="121" y="225" on="1"/>
        <pt x="130" y="161" on="0"/>
        <pt x="207" y="83" on="0"/>
        <pt x="270" y="83" on="1"/>
        <pt x="335" y="83" on="0"/>
        <pt x="416" y="171" on="0"/>
        <pt x="416" y="240" on="1"/>
        <pt x="416" y="670" on="1"/>
      </contour>
    </TTGlyph>
    <TTGlyph name="J.ss05" xMin="19" yMin="-14" xMax="524" yMax="670">
      <contour>
        <pt x="524" y="670" on="1"/>
        <pt x="524" y="240" on="1"/>
        <pt x="524" y="128" on="0"/>
        <pt x="383" y="-14" on="0"/>
        <pt x="270" y="-14" on="1"/>
        <pt x="167" y="-14" on="0"/>
        <pt x="34" y="105" on="0"/>
        <pt x="19" y="204" on="1"/>
        <pt x="121" y="225" on="1"/>
        <pt x="130" y="161" on="0"/>
        <pt x="207" y="83" on="0"/>
        <pt x="270" y="83" on="1"/>
        <pt x="335" y="83" on="0"/>
        <pt x="416" y="171" on="0"/>
        <pt x="416" y="240" on="1"/>
        <pt x="416" y="573" on="1"/>
        <pt x="188" y="573" on="1"/>
        <pt x="188" y="670" on="1"/>
      </contour>
    </TTGlyph>
    <TTGlyph name="K" xMin="79" yMin="0" xMax="663" yMax="670">
      <contour>
        <pt x="663" y="0" on="1"/>
        <pt x="518" y="0" on="1"/>
        <pt x="223" y="282" on="1"/>
        <pt x="186" y="282" on="1"/>
        <pt x="186" y="0" on="1"/>
        <pt x="79" y="0" on="1"/>
        <pt x="79" y="670" on="1"/>
        <pt x="186" y="670" on="1"/>
        <pt x="186" y="380" on="1"/>
        <pt x="215" y="380" on="1"/>
        <pt x="508" y="670" on="1"/>
        <pt x="641" y="670" on="1"/>
        <pt x="306" y="334" on="1"/>
      </contour>
    </TTGlyph>
    <TTGlyph name="K.ss03" xMin="79" yMin="0" xMax="699" yMax="670">
      <contour>
        <pt x="699" y="0" on="1"/>
        <pt x="565" y="0" on="1"/>
        <pt x="338" y="303" on="1"/>
        <pt x="186" y="132" on="1"/>
        <pt x="186" y="0" on="1"/>
        <pt x="79" y="0" on="1"/>
        <pt x="79" y="670" on="1"/>
        <pt x="186" y="670" on="1"/>
        <pt x="186" y="270" on="1"/>
        <pt x="540" y="670" on="1"/>
        <pt x="663" y="670" on="1"/>
        <pt x="409" y="384" on="1"/>
      </contour>
    </TTGlyph>
    <TTGlyph name="Kcommaaccent" xMin="79" yMin="-191" xMax="663" yMax="670">
      <contour>
        <pt x="663" y="0" on="1"/>
        <pt x="518" y="0" on="1"/>
        <pt x="223" y="282" on="1"/>
        <pt x="186" y="282" on="1"/>
        <pt x="186" y="0" on="1"/>
        <pt x="79" y="0" on="1"/>
        <pt x="79" y="670" on="1"/>
        <pt x="186" y="670" on="1"/>
        <pt x="186" y="380" on="1"/>
        <pt x="215" y="380" on="1"/>
        <pt x="508" y="670" on="1"/>
        <pt x="641" y="670" on="1"/>
        <pt x="306" y="334" on="1"/>
      </contour>
      <contour>
        <pt x="277" y="-45" on="1"/>
        <pt x="390" y="-45" on="1"/>
        <pt x="306" y="-191" on="1"/>
        <pt x="227" y="-191" on="1"/>
      </contour>
    </TTGlyph>
    <TTGlyph name="Kcommaaccent.ss03" xMin="79" yMin="-191" xMax="699" yMax="670">
      <contour>
        <pt x="699" y="0" on="1"/>
        <pt x="565" y="0" on="1"/>
        <pt x="338" y="303" on="1"/>
        <pt x="186" y="132" on="1"/>
        <pt x="186" y="0" on="1"/>
        <pt x="79" y="0" on="1"/>
        <pt x="79" y="670" on="1"/>
        <pt x="186" y="670" on="1"/>
        <pt x="186" y="270" on="1"/>
        <pt x="540" y="670" on="1"/>
        <pt x="663" y="670" on="1"/>
        <pt x="409" y="384" on="1"/>
      </contour>
      <contour>
        <pt x="313" y="-45" on="1"/>
        <pt x="426" y="-45" on="1"/>
        <pt x="342" y="-191" on="1"/>
        <pt x="263" y="-191" on="1"/>
      </contour>
    </TTGlyph>
    <TTGlyph name="L" xMin="79" yMin="0" xMax="552" yMax="670">
      <contour>
        <pt x="552" y="97" on="1"/>
        <pt x="552" y="0" on="1"/>
        <pt x="79" y="0" on="1"/>
        <pt x="79" y="670" on="1"/>
        <pt x="186" y="670" on="1"/>
        <pt x="186" y="97" on="1"/>
      </contour>
    </TTGlyph>
    <TTGlyph name="Lacute" xMin="79" yMin="0" xMax="552" yMax="883">
      <contour>
        <pt x="180" y="741" on="1"/>
        <pt x="91" y="741" on="1"/>
        <pt x="164" y="883" on="1"/>
        <pt x="286" y="883" on="1"/>
      </contour>
      <contour>
        <pt x="552" y="97" on="1"/>
        <pt x="552" y="0" on="1"/>
        <pt x="79" y="0" on="1"/>
        <pt x="79" y="670" on="1"/>
        <pt x="186" y="670" on="1"/>
        <pt x="186" y="97" on="1"/>
      </contour>
    </TTGlyph>
    <TTGlyph name="Lcaron" xMin="79" yMin="0" xMax="552" yMax="670">
      <contour>
        <pt x="552" y="97" on="1"/>
        <pt x="552" y="0" on="1"/>
        <pt x="79" y="0" on="1"/>
        <pt x="79" y="670" on="1"/>
        <pt x="186" y="670" on="1"/>
        <pt x="186" y="97" on="1"/>
      </contour>
      <contour>
        <pt x="385" y="484" on="1"/>
        <pt x="303" y="484" on="1"/>
        <pt x="303" y="670" on="1"/>
        <pt x="408" y="670" on="1"/>
      </contour>
    </TTGlyph>
    <TTGlyph name="Lcommaaccent" xMin="79" yMin="-191" xMax="552" yMax="670">
      <contour>
        <pt x="552" y="97" on="1"/>
        <pt x="552" y="0" on="1"/>
        <pt x="79" y="0" on="1"/>
        <pt x="79" y="670" on="1"/>
        <pt x="186" y="670" on="1"/>
        <pt x="186" y="97" on="1"/>
      </contour>
      <contour>
        <pt x="253" y="-45" on="1"/>
        <pt x="366" y="-45" on="1"/>
        <pt x="282" y="-191" on="1"/>
        <pt x="203" y="-191" on="1"/>
      </contour>
    </TTGlyph>
    <TTGlyph name="Ldot" xMin="79" yMin="0" xMax="552" yMax="670">
      <contour>
        <pt x="552" y="97" on="1"/>
        <pt x="552" y="0" on="1"/>
        <pt x="79" y="0" on="1"/>
        <pt x="79" y="670" on="1"/>
        <pt x="186" y="670" on="1"/>
        <pt x="186" y="97" on="1"/>
      </contour>
      <contour>
        <pt x="426" y="285" on="0"/>
        <pt x="370" y="285" on="0"/>
        <pt x="334" y="320" on="0"/>
        <pt x="334" y="348" on="1"/>
        <pt x="334" y="373" on="0"/>
        <pt x="371" y="410" on="0"/>
        <pt x="425" y="410" on="0"/>
        <pt x="463" y="373" on="0"/>
        <pt x="463" y="348" on="1"/>
        <pt x="463" y="320" on="0"/>
      </contour>
    </TTGlyph>
    <TTGlyph name="Lslash" xMin="30" yMin="0" xMax="569" yMax="670">
      <contour>
        <pt x="569" y="97" on="1"/>
        <pt x="569" y="0" on="1"/>
        <pt x="96" y="0" on="1"/>
        <pt x="96" y="231" on="1"/>
        <pt x="30" y="200" on="1"/>
        <pt x="30" y="301" on="1"/>
        <pt x="96" y="332" on="1"/>
        <pt x="96" y="670" on="1"/>
        <pt x="204" y="670" on="1"/>
        <pt x="204" y="384" on="1"/>
        <pt x="345" y="451" on="1"/>
        <pt x="345" y="350" on="1"/>
        <pt x="204" y="283" on="1"/>
        <pt x="204" y="97" on="1"/>
      </contour>
    </TTGlyph>
    <TTGlyph name="M" xMin="79" yMin="0" xMax="813" yMax="670">
      <contour>
        <pt x="813" y="670" on="1"/>
        <pt x="813" y="0" on="1"/>
        <pt x="709" y="0" on="1"/>
        <pt x="709" y="443" on="1"/>
        <pt x="472" y="0" on="1"/>
        <pt x="421" y="0" on="1"/>
        <pt x="183" y="443" on="1"/>
        <pt x="183" y="0" on="1"/>
        <pt x="79" y="0" on="1"/>
        <pt x="79" y="670" on="1"/>
        <pt x="173" y="670" on="1"/>
        <pt x="446" y="163" on="1"/>
        <pt x="720" y="670" on="1"/>
      </contour>
    </TTGlyph>
    <TTGlyph name="N" xMin="79" yMin="0" xMax="682" yMax="670">
      <contour>
        <pt x="682" y="670" on="1"/>
        <pt x="682" y="0" on="1"/>
        <pt x="591" y="0" on="1"/>
        <pt x="186" y="481" on="1"/>
        <pt x="186" y="0" on="1"/>
        <pt x="79" y="0" on="1"/>
        <pt x="79" y="670" on="1"/>
        <pt x="170" y="670" on="1"/>
        <pt x="574" y="181" on="1"/>
        <pt x="574" y="670" on="1"/>
      </contour>
    </TTGlyph>
    <TTGlyph name="Nacute" xMin="79" yMin="0" xMax="682" yMax="883">
      <contour>
        <pt x="436" y="741" on="1"/>
        <pt x="347" y="741" on="1"/>
        <pt x="420" y="883" on="1"/>
        <pt x="542" y="883" on="1"/>
      </contour>
      <contour>
        <pt x="682" y="670" on="1"/>
        <pt x="682" y="0" on="1"/>
        <pt x="591" y="0" on="1"/>
        <pt x="186" y="481" on="1"/>
        <pt x="186" y="0" on="1"/>
        <pt x="79" y="0" on="1"/>
        <pt x="79" y="670" on="1"/>
        <pt x="170" y="670" on="1"/>
        <pt x="574" y="181" on="1"/>
        <pt x="574" y="670" on="1"/>
      </contour>
    </TTGlyph>
    <TTGlyph name="Ncaron" xMin="79" yMin="0" xMax="682" yMax="879">
      <contour>
        <pt x="338" y="733" on="1"/>
        <pt x="223" y="879" on="1"/>
        <pt x="327" y="879" on="1"/>
        <pt x="388" y="801" on="1"/>
        <pt x="448" y="879" on="1"/>
        <pt x="553" y="879" on="1"/>
        <pt x="437" y="733" on="1"/>
      </contour>
      <contour>
        <pt x="682" y="670" on="1"/>
        <pt x="682" y="0" on="1"/>
        <pt x="591" y="0" on="1"/>
        <pt x="186" y="481" on="1"/>
        <pt x="186" y="0" on="1"/>
        <pt x="79" y="0" on="1"/>
        <pt x="79" y="670" on="1"/>
        <pt x="170" y="670" on="1"/>
        <pt x="574" y="181" on="1"/>
        <pt x="574" y="670" on="1"/>
      </contour>
    </TTGlyph>
    <TTGlyph name="Ncommaaccent" xMin="79" yMin="-191" xMax="682" yMax="670">
      <contour>
        <pt x="682" y="670" on="1"/>
        <pt x="682" y="0" on="1"/>
        <pt x="591" y="0" on="1"/>
        <pt x="186" y="481" on="1"/>
        <pt x="186" y="0" on="1"/>
        <pt x="79" y="0" on="1"/>
        <pt x="79" y="670" on="1"/>
        <pt x="170" y="670" on="1"/>
        <pt x="574" y="181" on="1"/>
        <pt x="574" y="670" on="1"/>
      </contour>
      <contour>
        <pt x="345" y="-45" on="1"/>
        <pt x="458" y="-45" on="1"/>
        <pt x="374" y="-191" on="1"/>
        <pt x="295" y="-191" on="1"/>
      </contour>
    </TTGlyph>
    <TTGlyph name="Ntilde" xMin="79" yMin="0" xMax="682" yMax="879">
      <contour>
        <pt x="334" y="803" on="1"/>
        <pt x="319" y="803" on="0"/>
        <pt x="301" y="781" on="0"/>
        <pt x="301" y="763" on="1"/>
        <pt x="230" y="763" on="1"/>
        <pt x="230" y="824" on="0"/>
        <pt x="288" y="879" on="0"/>
        <pt x="327" y="879" on="1"/>
        <pt x="361" y="879" on="0"/>
        <pt x="430" y="836" on="0"/>
        <pt x="450" y="836" on="1"/>
        <pt x="465" y="836" on="0"/>
        <pt x="482" y="860" on="0"/>
        <pt x="482" y="879" on="1"/>
        <pt x="552" y="879" on="1"/>
        <pt x="552" y="816" on="0"/>
        <pt x="496" y="761" on="0"/>
        <pt x="456" y="761" on="1"/>
        <pt x="421" y="761" on="0"/>
        <pt x="353" y="803" on="0"/>
      </contour>
      <contour>
        <pt x="682" y="670" on="1"/>
        <pt x="682" y="0" on="1"/>
        <pt x="591" y="0" on="1"/>
        <pt x="186" y="481" on="1"/>
        <pt x="186" y="0" on="1"/>
        <pt x="79" y="0" on="1"/>
        <pt x="79" y="670" on="1"/>
        <pt x="170" y="670" on="1"/>
        <pt x="574" y="181" on="1"/>
        <pt x="574" y="670" on="1"/>
      </contour>
    </TTGlyph>
    <TTGlyph name="O" xMin="48" yMin="-14" xMax="747" yMax="684">
      <contour>
        <pt x="250" y="684" on="0"/>
        <pt x="544" y="684" on="0"/>
        <pt x="747" y="480" on="0"/>
        <pt x="747" y="188" on="0"/>
        <pt x="544" y="-14" on="0"/>
        <pt x="250" y="-14" on="0"/>
        <pt x="48" y="188" on="0"/>
        <pt x="48" y="334" on="1"/>
        <pt x="48" y="481" on="0"/>
      </contour>
      <contour>
        <pt x="295" y="87" on="0"/>
        <pt x="499" y="87" on="0"/>
        <pt x="639" y="229" on="0"/>
        <pt x="639" y="334" on="1"/>
        <pt x="639" y="440" on="0"/>
        <pt x="499" y="583" on="0"/>
        <pt x="295" y="583" on="0"/>
        <pt x="156" y="440" on="0"/>
        <pt x="156" y="334" on="1"/>
        <pt x="156" y="229" on="0"/>
      </contour>
    </TTGlyph>
    <TTGlyph name="OE" xMin="48" yMin="0" xMax="981" yMax="670">
      <contour>
        <pt x="981" y="97" on="1"/>
        <pt x="981" y="0" on="1"/>
        <pt x="434" y="0" on="1"/>
        <pt x="260" y="0" on="0"/>
        <pt x="48" y="187" on="0"/>
        <pt x="48" y="335" on="1"/>
        <pt x="48" y="482" on="0"/>
        <pt x="260" y="670" on="0"/>
        <pt x="434" y="670" on="1"/>
        <pt x="979" y="670" on="1"/>
        <pt x="979" y="573" on="1"/>
        <pt x="589" y="573" on="1"/>
        <pt x="589" y="384" on="1"/>
        <pt x="950" y="384" on="1"/>
        <pt x="950" y="288" on="1"/>
        <pt x="589" y="288" on="1"/>
        <pt x="589" y="97" on="1"/>
      </contour>
      <contour>
        <pt x="481" y="97" on="1"/>
        <pt x="481" y="573" on="1"/>
        <pt x="434" y="573" on="1"/>
        <pt x="305" y="573" on="0"/>
        <pt x="156" y="442" on="0"/>
        <pt x="156" y="228" on="0"/>
        <pt x="305" y="97" on="0"/>
        <pt x="434" y="97" on="1"/>
      </contour>
    </TTGlyph>
    <TTGlyph name="Oacute" xMin="48" yMin="-14" xMax="747" yMax="883">
      <contour>
        <pt x="446" y="741" on="1"/>
        <pt x="357" y="741" on="1"/>
        <pt x="430" y="883" on="1"/>
        <pt x="552" y="883" on="1"/>
      </contour>
      <contour>
        <pt x="250" y="684" on="0"/>
        <pt x="544" y="684" on="0"/>
        <pt x="747" y="480" on="0"/>
        <pt x="747" y="188" on="0"/>
        <pt x="544" y="-14" on="0"/>
        <pt x="250" y="-14" on="0"/>
        <pt x="48" y="188" on="0"/>
        <pt x="48" y="334" on="1"/>
        <pt x="48" y="481" on="0"/>
      </contour>
      <contour>
        <pt x="295" y="87" on="0"/>
        <pt x="499" y="87" on="0"/>
        <pt x="639" y="229" on="0"/>
        <pt x="639" y="334" on="1"/>
        <pt x="639" y="440" on="0"/>
        <pt x="499" y="583" on="0"/>
        <pt x="295" y="583" on="0"/>
        <pt x="156" y="440" on="0"/>
        <pt x="156" y="334" on="1"/>
        <pt x="156" y="229" on="0"/>
      </contour>
    </TTGlyph>
    <TTGlyph name="Ocircumflex" xMin="48" yMin="-14" xMax="747" yMax="878">
      <contour>
        <pt x="337" y="733" on="1"/>
        <pt x="233" y="733" on="1"/>
        <pt x="348" y="878" on="1"/>
        <pt x="447" y="878" on="1"/>
        <pt x="563" y="733" on="1"/>
        <pt x="458" y="733" on="1"/>
        <pt x="398" y="810" on="1"/>
      </contour>
      <contour>
        <pt x="250" y="684" on="0"/>
        <pt x="544" y="684" on="0"/>
        <pt x="747" y="480" on="0"/>
        <pt x="747" y="188" on="0"/>
        <pt x="544" y="-14" on="0"/>
        <pt x="250" y="-14" on="0"/>
        <pt x="48" y="188" on="0"/>
        <pt x="48" y="334" on="1"/>
        <pt x="48" y="481" on="0"/>
      </contour>
      <contour>
        <pt x="295" y="87" on="0"/>
        <pt x="499" y="87" on="0"/>
        <pt x="639" y="229" on="0"/>
        <pt x="639" y="334" on="1"/>
        <pt x="639" y="440" on="0"/>
        <pt x="499" y="583" on="0"/>
        <pt x="295" y="583" on="0"/>
        <pt x="156" y="440" on="0"/>
        <pt x="156" y="334" on="1"/>
        <pt x="156" y="229" on="0"/>
      </contour>
    </TTGlyph>
    <TTGlyph name="Odieresis" xMin="48" yMin="-14" xMax="747" yMax="873">
      <contour>
        <pt x="323" y="744" on="0"/>
        <pt x="265" y="744" on="0"/>
        <pt x="228" y="780" on="0"/>
        <pt x="228" y="808" on="1"/>
        <pt x="228" y="834" on="0"/>
        <pt x="266" y="873" on="0"/>
        <pt x="322" y="873" on="0"/>
        <pt x="360" y="834" on="0"/>
        <pt x="360" y="808" on="1"/>
        <pt x="360" y="780" on="0"/>
      </contour>
      <contour>
        <pt x="530" y="744" on="0"/>
        <pt x="472" y="744" on="0"/>
        <pt x="435" y="780" on="0"/>
        <pt x="435" y="808" on="1"/>
        <pt x="435" y="834" on="0"/>
        <pt x="473" y="873" on="0"/>
        <pt x="529" y="873" on="0"/>
        <pt x="567" y="834" on="0"/>
        <pt x="567" y="808" on="1"/>
        <pt x="567" y="780" on="0"/>
      </contour>
      <contour>
        <pt x="250" y="684" on="0"/>
        <pt x="544" y="684" on="0"/>
        <pt x="747" y="480" on="0"/>
        <pt x="747" y="188" on="0"/>
        <pt x="544" y="-14" on="0"/>
        <pt x="250" y="-14" on="0"/>
        <pt x="48" y="188" on="0"/>
        <pt x="48" y="334" on="1"/>
        <pt x="48" y="481" on="0"/>
      </contour>
      <contour>
        <pt x="295" y="87" on="0"/>
        <pt x="499" y="87" on="0"/>
        <pt x="639" y="229" on="0"/>
        <pt x="639" y="334" on="1"/>
        <pt x="639" y="440" on="0"/>
        <pt x="499" y="583" on="0"/>
        <pt x="295" y="583" on="0"/>
        <pt x="156" y="440" on="0"/>
        <pt x="156" y="334" on="1"/>
        <pt x="156" y="229" on="0"/>
      </contour>
    </TTGlyph>
    <TTGlyph name="Ograve" xMin="48" yMin="-14" xMax="747" yMax="883">
      <contour>
        <pt x="352" y="741" on="1"/>
        <pt x="246" y="883" on="1"/>
        <pt x="368" y="883" on="1"/>
        <pt x="441" y="741" on="1"/>
      </contour>
      <contour>
        <pt x="250" y="684" on="0"/>
        <pt x="544" y="684" on="0"/>
        <pt x="747" y="480" on="0"/>
        <pt x="747" y="188" on="0"/>
        <pt x="544" y="-14" on="0"/>
        <pt x="250" y="-14" on="0"/>
        <pt x="48" y="188" on="0"/>
        <pt x="48" y="334" on="1"/>
        <pt x="48" y="481" on="0"/>
      </contour>
      <contour>
        <pt x="295" y="87" on="0"/>
        <pt x="499" y="87" on="0"/>
        <pt x="639" y="229" on="0"/>
        <pt x="639" y="334" on="1"/>
        <pt x="639" y="440" on="0"/>
        <pt x="499" y="583" on="0"/>
        <pt x="295" y="583" on="0"/>
        <pt x="156" y="440" on="0"/>
        <pt x="156" y="334" on="1"/>
        <pt x="156" y="229" on="0"/>
      </contour>
    </TTGlyph>
    <TTGlyph name="Ohungarumlaut" xMin="48" yMin="-14" xMax="747" yMax="883">
      <contour>
        <pt x="356" y="741" on="1"/>
        <pt x="262" y="741" on="1"/>
        <pt x="335" y="883" on="1"/>
        <pt x="464" y="883" on="1"/>
      </contour>
      <contour>
        <pt x="432" y="741" on="1"/>
        <pt x="504" y="883" on="1"/>
        <pt x="633" y="883" on="1"/>
        <pt x="526" y="741" on="1"/>
      </contour>
      <contour>
        <pt x="250" y="684" on="0"/>
        <pt x="544" y="684" on="0"/>
        <pt x="747" y="480" on="0"/>
        <pt x="747" y="188" on="0"/>
        <pt x="544" y="-14" on="0"/>
        <pt x="250" y="-14" on="0"/>
        <pt x="48" y="188" on="0"/>
        <pt x="48" y="334" on="1"/>
        <pt x="48" y="481" on="0"/>
      </contour>
      <contour>
        <pt x="295" y="87" on="0"/>
        <pt x="499" y="87" on="0"/>
        <pt x="639" y="229" on="0"/>
        <pt x="639" y="334" on="1"/>
        <pt x="639" y="440" on="0"/>
        <pt x="499" y="583" on="0"/>
        <pt x="295" y="583" on="0"/>
        <pt x="156" y="440" on="0"/>
        <pt x="156" y="334" on="1"/>
        <pt x="156" y="229" on="0"/>
      </contour>
    </TTGlyph>
    <TTGlyph name="Omacron" xMin="48" yMin="-14" xMax="747" yMax="837">
      <contour>
        <pt x="548" y="752" on="1"/>
        <pt x="247" y="752" on="1"/>
        <pt x="247" y="837" on="1"/>
        <pt x="548" y="837" on="1"/>
      </contour>
      <contour>
        <pt x="250" y="684" on="0"/>
        <pt x="544" y="684" on="0"/>
        <pt x="747" y="480" on="0"/>
        <pt x="747" y="188" on="0"/>
        <pt x="544" y="-14" on="0"/>
        <pt x="250" y="-14" on="0"/>
        <pt x="48" y="188" on="0"/>
        <pt x="48" y="334" on="1"/>
        <pt x="48" y="481" on="0"/>
      </contour>
      <contour>
        <pt x="295" y="87" on="0"/>
        <pt x="499" y="87" on="0"/>
        <pt x="639" y="229" on="0"/>
        <pt x="639" y="334" on="1"/>
        <pt x="639" y="440" on="0"/>
        <pt x="499" y="583" on="0"/>
        <pt x="295" y="583" on="0"/>
        <pt x="156" y="440" on="0"/>
        <pt x="156" y="334" on="1"/>
        <pt x="156" y="229" on="0"/>
      </contour>
    </TTGlyph>
    <TTGlyph name="Oslash" xMin="48" yMin="-14" xMax="747" yMax="684">
      <contour>
        <pt x="736" y="605" on="1"/>
        <pt x="677" y="546" on="1"/>
        <pt x="747" y="452" on="0"/>
        <pt x="747" y="334" on="1"/>
        <pt x="747" y="188" on="0"/>
        <pt x="544" y="-14" on="0"/>
        <pt x="397" y="-14" on="1"/>
        <pt x="278" y="-14" on="0"/>
        <pt x="187" y="55" on="1"/>
        <pt x="120" y="-12" on="1"/>
        <pt x="58" y="51" on="1"/>
        <pt x="123" y="116" on="1"/>
        <pt x="48" y="212" on="0"/>
        <pt x="48" y="334" on="1"/>
        <pt x="48" y="481" on="0"/>
        <pt x="250" y="684" on="0"/>
        <pt x="397" y="684" on="1"/>
        <pt x="520" y="684" on="0"/>
        <pt x="616" y="609" on="1"/>
        <pt x="674" y="667" on="1"/>
      </contour>
      <contour>
        <pt x="156" y="334" on="1"/>
        <pt x="156" y="256" on="0"/>
        <pt x="198" y="191" on="1"/>
        <pt x="542" y="535" on="1"/>
        <pt x="478" y="583" on="0"/>
        <pt x="397" y="583" on="1"/>
        <pt x="295" y="583" on="0"/>
        <pt x="156" y="440" on="0"/>
      </contour>
      <contour>
        <pt x="397" y="87" on="1"/>
        <pt x="499" y="87" on="0"/>
        <pt x="639" y="229" on="0"/>
        <pt x="639" y="334" on="1"/>
        <pt x="639" y="410" on="0"/>
        <pt x="601" y="470" on="1"/>
        <pt x="260" y="129" on="1"/>
        <pt x="321" y="87" on="0"/>
      </contour>
    </TTGlyph>
    <TTGlyph name="Otilde" xMin="48" yMin="-14" xMax="747" yMax="879">
      <contour>
        <pt x="345" y="803" on="1"/>
        <pt x="330" y="803" on="0"/>
        <pt x="312" y="781" on="0"/>
        <pt x="312" y="763" on="1"/>
        <pt x="241" y="763" on="1"/>
        <pt x="241" y="824" on="0"/>
        <pt x="299" y="879" on="0"/>
        <pt x="338" y="879" on="1"/>
        <pt x="372" y="879" on="0"/>
        <pt x="441" y="836" on="0"/>
        <pt x="461" y="836" on="1"/>
        <pt x="476" y="836" on="0"/>
        <pt x="493" y="860" on="0"/>
        <pt x="493" y="879" on="1"/>
        <pt x="563" y="879" on="1"/>
        <pt x="563" y="816" on="0"/>
        <pt x="507" y="761" on="0"/>
        <pt x="467" y="761" on="1"/>
        <pt x="432" y="761" on="0"/>
        <pt x="364" y="803" on="0"/>
      </contour>
      <contour>
        <pt x="250" y="684" on="0"/>
        <pt x="544" y="684" on="0"/>
        <pt x="747" y="480" on="0"/>
        <pt x="747" y="188" on="0"/>
        <pt x="544" y="-14" on="0"/>
        <pt x="250" y="-14" on="0"/>
        <pt x="48" y="188" on="0"/>
        <pt x="48" y="334" on="1"/>
        <pt x="48" y="481" on="0"/>
      </contour>
      <contour>
        <pt x="295" y="87" on="0"/>
        <pt x="499" y="87" on="0"/>
        <pt x="639" y="229" on="0"/>
        <pt x="639" y="334" on="1"/>
        <pt x="639" y="440" on="0"/>
        <pt x="499" y="583" on="0"/>
        <pt x="295" y="583" on="0"/>
        <pt x="156" y="440" on="0"/>
        <pt x="156" y="334" on="1"/>
        <pt x="156" y="229" on="0"/>
      </contour>
    </TTGlyph>
    <TTGlyph name="P" xMin="79" yMin="0" xMax="622" yMax="670">
      <contour>
        <pt x="79" y="670" on="1"/>
        <pt x="381" y="670" on="1"/>
        <pt x="491" y="670" on="0"/>
        <pt x="622" y="551" on="0"/>
        <pt x="622" y="454" on="1"/>
        <pt x="622" y="356" on="0"/>
        <pt x="491" y="236" on="0"/>
        <pt x="381" y="236" on="1"/>
        <pt x="186" y="236" on="1"/>
        <pt x="186" y="0" on="1"/>
        <pt x="79" y="0" on="1"/>
      </contour>
      <contour>
        <pt x="186" y="334" on="1"/>
        <pt x="381" y="334" on="1"/>
        <pt x="443" y="334" on="0"/>
        <pt x="515" y="399" on="0"/>
        <pt x="515" y="454" on="1"/>
        <pt x="515" y="507" on="0"/>
        <pt x="443" y="573" on="0"/>
        <pt x="381" y="573" on="1"/>
        <pt x="186" y="573" on="1"/>
      </contour>
    </TTGlyph>
    <TTGlyph name="Q" xMin="48" yMin="-162" xMax="749" yMax="684">
      <contour>
        <pt x="666" y="-162" on="1"/>
        <pt x="521" y="8" on="1"/>
        <pt x="461" y="-14" on="0"/>
        <pt x="397" y="-14" on="1"/>
        <pt x="250" y="-14" on="0"/>
        <pt x="48" y="188" on="0"/>
        <pt x="48" y="334" on="1"/>
        <pt x="48" y="481" on="0"/>
        <pt x="250" y="684" on="0"/>
        <pt x="544" y="684" on="0"/>
        <pt x="747" y="480" on="0"/>
        <pt x="747" y="334" on="1"/>
        <pt x="747" y="254" on="0"/>
        <pt x="680" y="114" on="0"/>
        <pt x="621" y="65" on="1"/>
        <pt x="749" y="-87" on="1"/>
      </contour>
      <contour>
        <pt x="156" y="334" on="1"/>
        <pt x="156" y="229" on="0"/>
        <pt x="295" y="87" on="0"/>
        <pt x="499" y="87" on="0"/>
        <pt x="639" y="229" on="0"/>
        <pt x="639" y="334" on="1"/>
        <pt x="639" y="440" on="0"/>
        <pt x="499" y="583" on="0"/>
        <pt x="295" y="583" on="0"/>
        <pt x="156" y="440" on="0"/>
      </contour>
    </TTGlyph>
    <TTGlyph name="Q.ss04" xMin="48" yMin="-170" xMax="782" yMax="684">
      <contour>
        <pt x="633" y="-170" on="1"/>
        <pt x="499" y="1" on="1"/>
        <pt x="451" y="-14" on="0"/>
        <pt x="397" y="-14" on="1"/>
        <pt x="250" y="-14" on="0"/>
        <pt x="48" y="188" on="0"/>
        <pt x="48" y="334" on="1"/>
        <pt x="48" y="481" on="0"/>
        <pt x="250" y="684" on="0"/>
        <pt x="544" y="684" on="0"/>
        <pt x="747" y="480" on="0"/>
        <pt x="747" y="334" on="1"/>
        <pt x="747" y="248" on="0"/>
        <pt x="671" y="100" on="0"/>
        <pt x="605" y="53" on="1"/>
        <pt x="782" y="-170" on="1"/>
      </contour>
      <contour>
        <pt x="156" y="334" on="1"/>
        <pt x="156" y="229" on="0"/>
        <pt x="295" y="87" on="0"/>
        <pt x="499" y="87" on="0"/>
        <pt x="639" y="229" on="0"/>
        <pt x="639" y="334" on="1"/>
        <pt x="639" y="440" on="0"/>
        <pt x="499" y="583" on="0"/>
        <pt x="295" y="583" on="0"/>
        <pt x="156" y="440" on="0"/>
      </contour>
    </TTGlyph>
    <TTGlyph name="R" xMin="79" yMin="0" xMax="655" yMax="670">
      <contour>
        <pt x="655" y="0" on="1"/>
        <pt x="522" y="0" on="1"/>
        <pt x="283" y="267" on="1"/>
        <pt x="186" y="267" on="1"/>
        <pt x="186" y="0" on="1"/>
        <pt x="79" y="0" on="1"/>
        <pt x="79" y="670" on="1"/>
        <pt x="394" y="670" on="1"/>
        <pt x="497" y="670" on="0"/>
        <pt x="624" y="559" on="0"/>
        <pt x="624" y="468" on="1"/>
        <pt x="624" y="382" on="0"/>
        <pt x="509" y="273" on="0"/>
        <pt x="413" y="268" on="1"/>
      </contour>
      <contour>
        <pt x="186" y="364" on="1"/>
        <pt x="394" y="364" on="1"/>
        <pt x="449" y="364" on="0"/>
        <pt x="517" y="421" on="0"/>
        <pt x="517" y="515" on="0"/>
        <pt x="449" y="573" on="0"/>
        <pt x="394" y="573" on="1"/>
        <pt x="186" y="573" on="1"/>
      </contour>
    </TTGlyph>
    <TTGlyph name="Racute" xMin="79" yMin="0" xMax="655" yMax="883">
      <contour>
        <pt x="380" y="741" on="1"/>
        <pt x="291" y="741" on="1"/>
        <pt x="364" y="883" on="1"/>
        <pt x="486" y="883" on="1"/>
      </contour>
      <contour>
        <pt x="655" y="0" on="1"/>
        <pt x="522" y="0" on="1"/>
        <pt x="283" y="267" on="1"/>
        <pt x="186" y="267" on="1"/>
        <pt x="186" y="0" on="1"/>
        <pt x="79" y="0" on="1"/>
        <pt x="79" y="670" on="1"/>
        <pt x="394" y="670" on="1"/>
        <pt x="497" y="670" on="0"/>
        <pt x="624" y="559" on="0"/>
        <pt x="624" y="468" on="1"/>
        <pt x="624" y="382" on="0"/>
        <pt x="509" y="273" on="0"/>
        <pt x="413" y="268" on="1"/>
      </contour>
      <contour>
        <pt x="186" y="364" on="1"/>
        <pt x="394" y="364" on="1"/>
        <pt x="449" y="364" on="0"/>
        <pt x="517" y="421" on="0"/>
        <pt x="517" y="515" on="0"/>
        <pt x="449" y="573" on="0"/>
        <pt x="394" y="573" on="1"/>
        <pt x="186" y="573" on="1"/>
      </contour>
    </TTGlyph>
    <TTGlyph name="Rcaron" xMin="79" yMin="0" xMax="655" yMax="879">
      <contour>
        <pt x="282" y="733" on="1"/>
        <pt x="167" y="879" on="1"/>
        <pt x="271" y="879" on="1"/>
        <pt x="332" y="801" on="1"/>
        <pt x="392" y="879" on="1"/>
        <pt x="497" y="879" on="1"/>
        <pt x="381" y="733" on="1"/>
      </contour>
      <contour>
        <pt x="655" y="0" on="1"/>
        <pt x="522" y="0" on="1"/>
        <pt x="283" y="267" on="1"/>
        <pt x="186" y="267" on="1"/>
        <pt x="186" y="0" on="1"/>
        <pt x="79" y="0" on="1"/>
        <pt x="79" y="670" on="1"/>
        <pt x="394" y="670" on="1"/>
        <pt x="497" y="670" on="0"/>
        <pt x="624" y="559" on="0"/>
        <pt x="624" y="468" on="1"/>
        <pt x="624" y="382" on="0"/>
        <pt x="509" y="273" on="0"/>
        <pt x="413" y="268" on="1"/>
      </contour>
      <contour>
        <pt x="186" y="364" on="1"/>
        <pt x="394" y="364" on="1"/>
        <pt x="449" y="364" on="0"/>
        <pt x="517" y="421" on="0"/>
        <pt x="517" y="515" on="0"/>
        <pt x="449" y="573" on="0"/>
        <pt x="394" y="573" on="1"/>
        <pt x="186" y="573" on="1"/>
      </contour>
    </TTGlyph>
    <TTGlyph name="Rcommaaccent" xMin="79" yMin="-191" xMax="655" yMax="670">
      <contour>
        <pt x="655" y="0" on="1"/>
        <pt x="522" y="0" on="1"/>
        <pt x="283" y="267" on="1"/>
        <pt x="186" y="267" on="1"/>
        <pt x="186" y="0" on="1"/>
        <pt x="79" y="0" on="1"/>
        <pt x="79" y="670" on="1"/>
        <pt x="394" y="670" on="1"/>
        <pt x="497" y="670" on="0"/>
        <pt x="624" y="559" on="0"/>
        <pt x="624" y="468" on="1"/>
        <pt x="624" y="382" on="0"/>
        <pt x="509" y="273" on="0"/>
        <pt x="413" y="268" on="1"/>
      </contour>
      <contour>
        <pt x="186" y="364" on="1"/>
        <pt x="394" y="364" on="1"/>
        <pt x="449" y="364" on="0"/>
        <pt x="517" y="421" on="0"/>
        <pt x="517" y="515" on="0"/>
        <pt x="449" y="573" on="0"/>
        <pt x="394" y="573" on="1"/>
        <pt x="186" y="573" on="1"/>
      </contour>
      <contour>
        <pt x="289" y="-45" on="1"/>
        <pt x="402" y="-45" on="1"/>
        <pt x="318" y="-191" on="1"/>
        <pt x="239" y="-191" on="1"/>
      </contour>
    </TTGlyph>
    <TTGlyph name="S" xMin="48" yMin="-14" xMax="582" yMax="684">
      <contour>
        <pt x="313" y="684" on="1"/>
        <pt x="414" y="684" on="0"/>
        <pt x="553" y="582" on="0"/>
        <pt x="571" y="495" on="1"/>
        <pt x="464" y="473" on="1"/>
        <pt x="455" y="526" on="0"/>
        <pt x="371" y="591" on="0"/>
        <pt x="311" y="591" on="1"/>
        <pt x="252" y="591" on="0"/>
        <pt x="180" y="534" on="0"/>
        <pt x="180" y="489" on="1"/>
        <pt x="180" y="454" on="0"/>
        <pt x="221" y="414" on="0"/>
        <pt x="265" y="405" on="1"/>
        <pt x="410" y="374" on="1"/>
        <pt x="582" y="336" on="0"/>
        <pt x="582" y="191" on="1"/>
        <pt x="582" y="97" on="0"/>
        <pt x="441" y="-14" on="0"/>
        <pt x="325" y="-14" on="1"/>
        <pt x="214" y="-14" on="0"/>
        <pt x="60" y="91" on="0"/>
        <pt x="48" y="185" on="1"/>
        <pt x="162" y="209" on="1"/>
        <pt x="174" y="146" on="0"/>
        <pt x="266" y="81" on="0"/>
        <pt x="335" y="81" on="1"/>
        <pt x="401" y="81" on="0"/>
        <pt x="476" y="138" on="0"/>
        <pt x="476" y="185" on="1"/>
        <pt x="476" y="223" on="0"/>
        <pt x="433" y="263" on="0"/>
        <pt x="382" y="274" on="1"/>
        <pt x="236" y="304" on="1"/>
        <pt x="67" y="343" on="0"/>
        <pt x="67" y="486" on="1"/>
        <pt x="67" y="575" on="0"/>
        <pt x="202" y="684" on="0"/>
      </contour>
    </TTGlyph>
    <TTGlyph name="Sacute" xMin="48" yMin="-14" xMax="582" yMax="883">
      <contour>
        <pt x="374" y="741" on="1"/>
        <pt x="285" y="741" on="1"/>
        <pt x="358" y="883" on="1"/>
        <pt x="480" y="883" on="1"/>
      </contour>
      <contour>
        <pt x="313" y="684" on="1"/>
        <pt x="414" y="684" on="0"/>
        <pt x="553" y="582" on="0"/>
        <pt x="571" y="495" on="1"/>
        <pt x="464" y="473" on="1"/>
        <pt x="455" y="526" on="0"/>
        <pt x="371" y="591" on="0"/>
        <pt x="311" y="591" on="1"/>
        <pt x="252" y="591" on="0"/>
        <pt x="180" y="534" on="0"/>
        <pt x="180" y="489" on="1"/>
        <pt x="180" y="454" on="0"/>
        <pt x="221" y="414" on="0"/>
        <pt x="265" y="405" on="1"/>
        <pt x="410" y="374" on="1"/>
        <pt x="582" y="336" on="0"/>
        <pt x="582" y="191" on="1"/>
        <pt x="582" y="97" on="0"/>
        <pt x="441" y="-14" on="0"/>
        <pt x="325" y="-14" on="1"/>
        <pt x="214" y="-14" on="0"/>
        <pt x="60" y="91" on="0"/>
        <pt x="48" y="185" on="1"/>
        <pt x="162" y="209" on="1"/>
        <pt x="174" y="146" on="0"/>
        <pt x="266" y="81" on="0"/>
        <pt x="335" y="81" on="1"/>
        <pt x="401" y="81" on="0"/>
        <pt x="476" y="138" on="0"/>
        <pt x="476" y="185" on="1"/>
        <pt x="476" y="223" on="0"/>
        <pt x="433" y="263" on="0"/>
        <pt x="382" y="274" on="1"/>
        <pt x="236" y="304" on="1"/>
        <pt x="67" y="343" on="0"/>
        <pt x="67" y="486" on="1"/>
        <pt x="67" y="575" on="0"/>
        <pt x="202" y="684" on="0"/>
      </contour>
    </TTGlyph>
    <TTGlyph name="Scaron" xMin="48" yMin="-14" xMax="582" yMax="879">
      <contour>
        <pt x="276" y="733" on="1"/>
        <pt x="161" y="879" on="1"/>
        <pt x="265" y="879" on="1"/>
        <pt x="326" y="801" on="1"/>
        <pt x="386" y="879" on="1"/>
        <pt x="491" y="879" on="1"/>
        <pt x="375" y="733" on="1"/>
      </contour>
      <contour>
        <pt x="265" y="405" on="1"/>
        <pt x="410" y="374" on="1"/>
        <pt x="582" y="336" on="0"/>
        <pt x="582" y="191" on="1"/>
        <pt x="582" y="97" on="0"/>
        <pt x="441" y="-14" on="0"/>
        <pt x="325" y="-14" on="1"/>
        <pt x="214" y="-14" on="0"/>
        <pt x="60" y="91" on="0"/>
        <pt x="48" y="185" on="1"/>
        <pt x="162" y="209" on="1"/>
        <pt x="174" y="146" on="0"/>
        <pt x="266" y="81" on="0"/>
        <pt x="335" y="81" on="1"/>
        <pt x="401" y="81" on="0"/>
        <pt x="476" y="138" on="0"/>
        <pt x="476" y="185" on="1"/>
        <pt x="476" y="223" on="0"/>
        <pt x="433" y="263" on="0"/>
        <pt x="382" y="274" on="1"/>
        <pt x="236" y="304" on="1"/>
        <pt x="67" y="343" on="0"/>
        <pt x="67" y="486" on="1"/>
        <pt x="67" y="575" on="0"/>
        <pt x="202" y="684" on="0"/>
        <pt x="313" y="684" on="1"/>
        <pt x="414" y="684" on="0"/>
        <pt x="553" y="582" on="0"/>
        <pt x="571" y="495" on="1"/>
        <pt x="464" y="473" on="1"/>
        <pt x="455" y="526" on="0"/>
        <pt x="371" y="591" on="0"/>
        <pt x="311" y="591" on="1"/>
        <pt x="252" y="591" on="0"/>
        <pt x="180" y="534" on="0"/>
        <pt x="180" y="489" on="1"/>
        <pt x="180" y="454" on="0"/>
        <pt x="221" y="414" on="0"/>
      </contour>
    </TTGlyph>
    <TTGlyph name="Scedilla" xMin="48" yMin="-165" xMax="582" yMax="684">
      <contour>
        <pt x="582" y="191" on="1"/>
        <pt x="582" y="106" on="0"/>
        <pt x="466" y="-2" on="0"/>
        <pt x="367" y="-12" on="1"/>
        <pt x="307" y="-165" on="1"/>
        <pt x="196" y="-165" on="1"/>
        <pt x="287" y="-12" on="1"/>
        <pt x="190" y="-3" on="0"/>
        <pt x="59" y="99" on="0"/>
        <pt x="48" y="185" on="1"/>
        <pt x="162" y="209" on="1"/>
        <pt x="174" y="146" on="0"/>
        <pt x="266" y="81" on="0"/>
        <pt x="335" y="81" on="1"/>
        <pt x="401" y="81" on="0"/>
        <pt x="476" y="138" on="0"/>
        <pt x="476" y="185" on="1"/>
        <pt x="476" y="223" on="0"/>
        <pt x="433" y="263" on="0"/>
        <pt x="382" y="274" on="1"/>
        <pt x="236" y="304" on="1"/>
        <pt x="67" y="343" on="0"/>
        <pt x="67" y="486" on="1"/>
        <pt x="67" y="575" on="0"/>
        <pt x="202" y="684" on="0"/>
        <pt x="313" y="684" on="1"/>
        <pt x="414" y="684" on="0"/>
        <pt x="553" y="582" on="0"/>
        <pt x="571" y="495" on="1"/>
        <pt x="464" y="473" on="1"/>
        <pt x="455" y="526" on="0"/>
        <pt x="371" y="591" on="0"/>
        <pt x="311" y="591" on="1"/>
        <pt x="252" y="591" on="0"/>
        <pt x="180" y="534" on="0"/>
        <pt x="180" y="489" on="1"/>
        <pt x="180" y="454" on="0"/>
        <pt x="221" y="414" on="0"/>
        <pt x="265" y="405" on="1"/>
        <pt x="410" y="374" on="1"/>
        <pt x="582" y="336" on="0"/>
      </contour>
    </TTGlyph>
    <TTGlyph name="Scommaaccent" xMin="48" yMin="-191" xMax="582" yMax="684">
      <contour>
        <pt x="313" y="684" on="1"/>
        <pt x="414" y="684" on="0"/>
        <pt x="553" y="582" on="0"/>
        <pt x="571" y="495" on="1"/>
        <pt x="464" y="473" on="1"/>
        <pt x="455" y="526" on="0"/>
        <pt x="371" y="591" on="0"/>
        <pt x="311" y="591" on="1"/>
        <pt x="252" y="591" on="0"/>
        <pt x="180" y="534" on="0"/>
        <pt x="180" y="489" on="1"/>
        <pt x="180" y="454" on="0"/>
        <pt x="221" y="414" on="0"/>
        <pt x="265" y="405" on="1"/>
        <pt x="410" y="374" on="1"/>
        <pt x="582" y="336" on="0"/>
        <pt x="582" y="191" on="1"/>
        <pt x="582" y="97" on="0"/>
        <pt x="441" y="-14" on="0"/>
        <pt x="325" y="-14" on="1"/>
        <pt x="214" y="-14" on="0"/>
        <pt x="60" y="91" on="0"/>
        <pt x="48" y="185" on="1"/>
        <pt x="162" y="209" on="1"/>
        <pt x="174" y="146" on="0"/>
        <pt x="266" y="81" on="0"/>
        <pt x="335" y="81" on="1"/>
        <pt x="401" y="81" on="0"/>
        <pt x="476" y="138" on="0"/>
        <pt x="476" y="185" on="1"/>
        <pt x="476" y="223" on="0"/>
        <pt x="433" y="263" on="0"/>
        <pt x="382" y="274" on="1"/>
        <pt x="236" y="304" on="1"/>
        <pt x="67" y="343" on="0"/>
        <pt x="67" y="486" on="1"/>
        <pt x="67" y="575" on="0"/>
        <pt x="202" y="684" on="0"/>
      </contour>
      <contour>
        <pt x="217" y="-191" on="1"/>
        <pt x="267" y="-45" on="1"/>
        <pt x="380" y="-45" on="1"/>
        <pt x="296" y="-191" on="1"/>
      </contour>
    </TTGlyph>
    <TTGlyph name="T" xMin="23" yMin="0" xMax="602" yMax="670">
      <contour>
        <pt x="602" y="573" on="1"/>
        <pt x="366" y="573" on="1"/>
        <pt x="366" y="0" on="1"/>
        <pt x="258" y="0" on="1"/>
        <pt x="258" y="573" on="1"/>
        <pt x="23" y="573" on="1"/>
        <pt x="23" y="670" on="1"/>
        <pt x="602" y="670" on="1"/>
      </contour>
    </TTGlyph>
    <TTGlyph name="Tbar" xMin="23" yMin="0" xMax="602" yMax="670">
      <contour>
        <pt x="366" y="573" on="1"/>
        <pt x="366" y="380" on="1"/>
        <pt x="493" y="380" on="1"/>
        <pt x="493" y="290" on="1"/>
        <pt x="366" y="290" on="1"/>
        <pt x="366" y="0" on="1"/>
        <pt x="258" y="0" on="1"/>
        <pt x="258" y="290" on="1"/>
        <pt x="132" y="290" on="1"/>
        <pt x="132" y="380" on="1"/>
        <pt x="258" y="380" on="1"/>
        <pt x="258" y="573" on="1"/>
        <pt x="23" y="573" on="1"/>
        <pt x="23" y="670" on="1"/>
        <pt x="602" y="670" on="1"/>
        <pt x="602" y="573" on="1"/>
      </contour>
    </TTGlyph>
    <TTGlyph name="Tcaron" xMin="23" yMin="0" xMax="602" yMax="879">
      <contour>
        <pt x="264" y="733" on="1"/>
        <pt x="149" y="879" on="1"/>
        <pt x="253" y="879" on="1"/>
        <pt x="314" y="801" on="1"/>
        <pt x="374" y="879" on="1"/>
        <pt x="479" y="879" on="1"/>
        <pt x="363" y="733" on="1"/>
      </contour>
      <contour>
        <pt x="602" y="573" on="1"/>
        <pt x="366" y="573" on="1"/>
        <pt x="366" y="0" on="1"/>
        <pt x="258" y="0" on="1"/>
        <pt x="258" y="573" on="1"/>
        <pt x="23" y="573" on="1"/>
        <pt x="23" y="670" on="1"/>
        <pt x="602" y="670" on="1"/>
      </contour>
    </TTGlyph>
    <TTGlyph name="Thorn" xMin="79" yMin="0" xMax="602" yMax="670">
      <contour>
        <pt x="186" y="555" on="1"/>
        <pt x="365" y="555" on="1"/>
        <pt x="471" y="555" on="0"/>
        <pt x="602" y="433" on="0"/>
        <pt x="602" y="237" on="0"/>
        <pt x="471" y="115" on="0"/>
        <pt x="365" y="115" on="1"/>
        <pt x="186" y="115" on="1"/>
        <pt x="186" y="0" on="1"/>
        <pt x="79" y="0" on="1"/>
        <pt x="79" y="670" on="1"/>
        <pt x="186" y="670" on="1"/>
      </contour>
      <contour>
        <pt x="186" y="213" on="1"/>
        <pt x="360" y="213" on="1"/>
        <pt x="421" y="213" on="0"/>
        <pt x="495" y="281" on="0"/>
        <pt x="495" y="335" on="1"/>
        <pt x="495" y="390" on="0"/>
        <pt x="421" y="458" on="0"/>
        <pt x="360" y="458" on="1"/>
        <pt x="186" y="458" on="1"/>
      </contour>
    </TTGlyph>
    <TTGlyph name="U" xMin="72" yMin="-14" xMax="644" yMax="670">
      <contour>
        <pt x="644" y="670" on="1"/>
        <pt x="644" y="296" on="1"/>
        <pt x="644" y="157" on="0"/>
        <pt x="488" y="-14" on="0"/>
        <pt x="361" y="-14" on="1"/>
        <pt x="231" y="-14" on="0"/>
        <pt x="72" y="157" on="0"/>
        <pt x="72" y="296" on="1"/>
        <pt x="72" y="670" on="1"/>
        <pt x="179" y="670" on="1"/>
        <pt x="179" y="296" on="1"/>
        <pt x="179" y="202" on="0"/>
        <pt x="279" y="89" on="0"/>
        <pt x="361" y="89" on="1"/>
        <pt x="440" y="89" on="0"/>
        <pt x="537" y="203" on="0"/>
        <pt x="537" y="296" on="1"/>
        <pt x="537" y="670" on="1"/>
      </contour>
    </TTGlyph>
    <TTGlyph name="Uacute" xMin="72" yMin="-14" xMax="644" yMax="883">
      <contour>
        <pt x="407" y="741" on="1"/>
        <pt x="318" y="741" on="1"/>
        <pt x="391" y="883" on="1"/>
        <pt x="513" y="883" on="1"/>
      </contour>
      <contour>
        <pt x="644" y="670" on="1"/>
        <pt x="644" y="296" on="1"/>
        <pt x="644" y="157" on="0"/>
        <pt x="488" y="-14" on="0"/>
        <pt x="361" y="-14" on="1"/>
        <pt x="231" y="-14" on="0"/>
        <pt x="72" y="157" on="0"/>
        <pt x="72" y="296" on="1"/>
        <pt x="72" y="670" on="1"/>
        <pt x="179" y="670" on="1"/>
        <pt x="179" y="296" on="1"/>
        <pt x="179" y="202" on="0"/>
        <pt x="279" y="89" on="0"/>
        <pt x="361" y="89" on="1"/>
        <pt x="440" y="89" on="0"/>
        <pt x="537" y="203" on="0"/>
        <pt x="537" y="296" on="1"/>
        <pt x="537" y="670" on="1"/>
      </contour>
    </TTGlyph>
    <TTGlyph name="Ucircumflex" xMin="72" yMin="-14" xMax="644" yMax="878">
      <contour>
        <pt x="298" y="733" on="1"/>
        <pt x="194" y="733" on="1"/>
        <pt x="309" y="878" on="1"/>
        <pt x="408" y="878" on="1"/>
        <pt x="524" y="733" on="1"/>
        <pt x="419" y="733" on="1"/>
        <pt x="359" y="810" on="1"/>
      </contour>
      <contour>
        <pt x="644" y="670" on="1"/>
        <pt x="644" y="296" on="1"/>
        <pt x="644" y="157" on="0"/>
        <pt x="488" y="-14" on="0"/>
        <pt x="361" y="-14" on="1"/>
        <pt x="231" y="-14" on="0"/>
        <pt x="72" y="157" on="0"/>
        <pt x="72" y="296" on="1"/>
        <pt x="72" y="670" on="1"/>
        <pt x="179" y="670" on="1"/>
        <pt x="179" y="296" on="1"/>
        <pt x="179" y="202" on="0"/>
        <pt x="279" y="89" on="0"/>
        <pt x="361" y="89" on="1"/>
        <pt x="440" y="89" on="0"/>
        <pt x="537" y="203" on="0"/>
        <pt x="537" y="296" on="1"/>
        <pt x="537" y="670" on="1"/>
      </contour>
    </TTGlyph>
    <TTGlyph name="Udieresis" xMin="72" yMin="-14" xMax="644" yMax="873">
      <contour>
        <pt x="284" y="744" on="0"/>
        <pt x="226" y="744" on="0"/>
        <pt x="189" y="780" on="0"/>
        <pt x="189" y="808" on="1"/>
        <pt x="189" y="834" on="0"/>
        <pt x="227" y="873" on="0"/>
        <pt x="283" y="873" on="0"/>
        <pt x="321" y="834" on="0"/>
        <pt x="321" y="808" on="1"/>
        <pt x="321" y="780" on="0"/>
      </contour>
      <contour>
        <pt x="491" y="744" on="0"/>
        <pt x="433" y="744" on="0"/>
        <pt x="396" y="780" on="0"/>
        <pt x="396" y="808" on="1"/>
        <pt x="396" y="834" on="0"/>
        <pt x="434" y="873" on="0"/>
        <pt x="490" y="873" on="0"/>
        <pt x="528" y="834" on="0"/>
        <pt x="528" y="808" on="1"/>
        <pt x="528" y="780" on="0"/>
      </contour>
      <contour>
        <pt x="644" y="670" on="1"/>
        <pt x="644" y="296" on="1"/>
        <pt x="644" y="157" on="0"/>
        <pt x="488" y="-14" on="0"/>
        <pt x="361" y="-14" on="1"/>
        <pt x="231" y="-14" on="0"/>
        <pt x="72" y="157" on="0"/>
        <pt x="72" y="296" on="1"/>
        <pt x="72" y="670" on="1"/>
        <pt x="179" y="670" on="1"/>
        <pt x="179" y="296" on="1"/>
        <pt x="179" y="202" on="0"/>
        <pt x="279" y="89" on="0"/>
        <pt x="361" y="89" on="1"/>
        <pt x="440" y="89" on="0"/>
        <pt x="537" y="203" on="0"/>
        <pt x="537" y="296" on="1"/>
        <pt x="537" y="670" on="1"/>
      </contour>
    </TTGlyph>
    <TTGlyph name="Ugrave" xMin="72" yMin="-14" xMax="644" yMax="883">
      <contour>
        <pt x="312" y="741" on="1"/>
        <pt x="206" y="883" on="1"/>
        <pt x="328" y="883" on="1"/>
        <pt x="401" y="741" on="1"/>
      </contour>
      <contour>
        <pt x="644" y="670" on="1"/>
        <pt x="644" y="296" on="1"/>
        <pt x="644" y="157" on="0"/>
        <pt x="488" y="-14" on="0"/>
        <pt x="361" y="-14" on="1"/>
        <pt x="231" y="-14" on="0"/>
        <pt x="72" y="157" on="0"/>
        <pt x="72" y="296" on="1"/>
        <pt x="72" y="670" on="1"/>
        <pt x="179" y="670" on="1"/>
        <pt x="179" y="296" on="1"/>
        <pt x="179" y="202" on="0"/>
        <pt x="279" y="89" on="0"/>
        <pt x="361" y="89" on="1"/>
        <pt x="440" y="89" on="0"/>
        <pt x="537" y="203" on="0"/>
        <pt x="537" y="296" on="1"/>
        <pt x="537" y="670" on="1"/>
      </contour>
    </TTGlyph>
    <TTGlyph name="Uhungarumlaut" xMin="72" yMin="-14" xMax="644" yMax="883">
      <contour>
        <pt x="317" y="741" on="1"/>
        <pt x="223" y="741" on="1"/>
        <pt x="296" y="883" on="1"/>
        <pt x="425" y="883" on="1"/>
      </contour>
      <contour>
        <pt x="393" y="741" on="1"/>
        <pt x="465" y="883" on="1"/>
        <pt x="594" y="883" on="1"/>
        <pt x="487" y="741" on="1"/>
      </contour>
      <contour>
        <pt x="644" y="670" on="1"/>
        <pt x="644" y="296" on="1"/>
        <pt x="644" y="157" on="0"/>
        <pt x="488" y="-14" on="0"/>
        <pt x="361" y="-14" on="1"/>
        <pt x="231" y="-14" on="0"/>
        <pt x="72" y="157" on="0"/>
        <pt x="72" y="296" on="1"/>
        <pt x="72" y="670" on="1"/>
        <pt x="179" y="670" on="1"/>
        <pt x="179" y="296" on="1"/>
        <pt x="179" y="202" on="0"/>
        <pt x="279" y="89" on="0"/>
        <pt x="361" y="89" on="1"/>
        <pt x="440" y="89" on="0"/>
        <pt x="537" y="203" on="0"/>
        <pt x="537" y="296" on="1"/>
        <pt x="537" y="670" on="1"/>
      </contour>
    </TTGlyph>
    <TTGlyph name="Umacron" xMin="72" yMin="-14" xMax="644" yMax="837">
      <contour>
        <pt x="509" y="752" on="1"/>
        <pt x="208" y="752" on="1"/>
        <pt x="208" y="837" on="1"/>
        <pt x="509" y="837" on="1"/>
      </contour>
      <contour>
        <pt x="644" y="670" on="1"/>
        <pt x="644" y="296" on="1"/>
        <pt x="644" y="157" on="0"/>
        <pt x="488" y="-14" on="0"/>
        <pt x="361" y="-14" on="1"/>
        <pt x="231" y="-14" on="0"/>
        <pt x="72" y="157" on="0"/>
        <pt x="72" y="296" on="1"/>
        <pt x="72" y="670" on="1"/>
        <pt x="179" y="670" on="1"/>
        <pt x="179" y="296" on="1"/>
        <pt x="179" y="202" on="0"/>
        <pt x="279" y="89" on="0"/>
        <pt x="361" y="89" on="1"/>
        <pt x="440" y="89" on="0"/>
        <pt x="537" y="203" on="0"/>
        <pt x="537" y="296" on="1"/>
        <pt x="537" y="670" on="1"/>
      </contour>
    </TTGlyph>
    <TTGlyph name="Uogonek" xMin="72" yMin="-207" xMax="644" yMax="670">
      <contour>
        <pt x="545" y="51" on="1"/>
        <pt x="497" y="7" on="0"/>
        <pt x="464" y="-26" on="0"/>
        <pt x="438" y="-69" on="0"/>
        <pt x="438" y="-92" on="1"/>
        <pt x="438" y="-108" on="0"/>
        <pt x="460" y="-128" on="0"/>
        <pt x="477" y="-128" on="1"/>
        <pt x="491" y="-128" on="0"/>
        <pt x="532" y="-114" on="1"/>
        <pt x="552" y="-180" on="1"/>
        <pt x="499" y="-207" on="0"/>
        <pt x="451" y="-207" on="1"/>
        <pt x="408" y="-207" on="0"/>
        <pt x="351" y="-160" on="0"/>
        <pt x="351" y="-122" on="1"/>
        <pt x="351" y="-64" on="0"/>
        <pt x="405" y="-10" on="1"/>
        <pt x="385" y="-14" on="0"/>
        <pt x="361" y="-14" on="1"/>
        <pt x="231" y="-14" on="0"/>
        <pt x="72" y="153" on="0"/>
        <pt x="72" y="288" on="1"/>
        <pt x="72" y="670" on="1"/>
        <pt x="179" y="670" on="1"/>
        <pt x="179" y="288" on="1"/>
        <pt x="179" y="198" on="0"/>
        <pt x="279" y="89" on="0"/>
        <pt x="361" y="89" on="1"/>
        <pt x="440" y="89" on="0"/>
        <pt x="537" y="198" on="0"/>
        <pt x="537" y="288" on="1"/>
        <pt x="537" y="670" on="1"/>
        <pt x="644" y="670" on="1"/>
        <pt x="644" y="288" on="1"/>
        <pt x="644" y="145" on="0"/>
      </contour>
    </TTGlyph>
    <TTGlyph name="Uring" xMin="72" yMin="-14" xMax="644" yMax="937">
      <contour>
        <pt x="358" y="722" on="1"/>
        <pt x="312" y="722" on="0"/>
        <pt x="247" y="785" on="0"/>
        <pt x="247" y="829" on="1"/>
        <pt x="247" y="874" on="0"/>
        <pt x="312" y="937" on="0"/>
        <pt x="358" y="937" on="1"/>
        <pt x="405" y="937" on="0"/>
        <pt x="469" y="874" on="0"/>
        <pt x="469" y="784" on="0"/>
        <pt x="405" y="722" on="0"/>
      </contour>
      <contour>
        <pt x="379" y="876" on="0"/>
        <pt x="337" y="876" on="0"/>
        <pt x="309" y="849" on="0"/>
        <pt x="309" y="829" on="1"/>
        <pt x="309" y="810" on="0"/>
        <pt x="337" y="782" on="0"/>
        <pt x="379" y="782" on="0"/>
        <pt x="407" y="810" on="0"/>
        <pt x="407" y="829" on="1"/>
        <pt x="407" y="849" on="0"/>
      </contour>
      <contour>
        <pt x="644" y="670" on="1"/>
        <pt x="644" y="296" on="1"/>
        <pt x="644" y="157" on="0"/>
        <pt x="488" y="-14" on="0"/>
        <pt x="361" y="-14" on="1"/>
        <pt x="231" y="-14" on="0"/>
        <pt x="72" y="157" on="0"/>
        <pt x="72" y="296" on="1"/>
        <pt x="72" y="670" on="1"/>
        <pt x="179" y="670" on="1"/>
        <pt x="179" y="296" on="1"/>
        <pt x="179" y="202" on="0"/>
        <pt x="279" y="89" on="0"/>
        <pt x="361" y="89" on="1"/>
        <pt x="440" y="89" on="0"/>
        <pt x="537" y="203" on="0"/>
        <pt x="537" y="296" on="1"/>
        <pt x="537" y="670" on="1"/>
      </contour>
    </TTGlyph>
    <TTGlyph name="V" xMin="14" yMin="0" xMax="699" yMax="670">
      <contour>
        <pt x="699" y="670" on="1"/>
        <pt x="408" y="0" on="1"/>
        <pt x="305" y="0" on="1"/>
        <pt x="14" y="670" on="1"/>
        <pt x="132" y="670" on="1"/>
        <pt x="356" y="145" on="1"/>
        <pt x="580" y="670" on="1"/>
      </contour>
    </TTGlyph>
    <TTGlyph name="W" xMin="14" yMin="0" xMax="944" yMax="670">
      <contour>
        <pt x="944" y="670" on="1"/>
        <pt x="743" y="0" on="1"/>
        <pt x="629" y="0" on="1"/>
        <pt x="479" y="498" on="1"/>
        <pt x="328" y="0" on="1"/>
        <pt x="214" y="0" on="1"/>
        <pt x="14" y="670" on="1"/>
        <pt x="126" y="670" on="1"/>
        <pt x="273" y="165" on="1"/>
        <pt x="427" y="670" on="1"/>
        <pt x="530" y="670" on="1"/>
        <pt x="684" y="165" on="1"/>
        <pt x="831" y="670" on="1"/>
      </contour>
    </TTGlyph>
    <TTGlyph name="Wacute" xMin="14" yMin="0" xMax="944" yMax="883">
      <contour>
        <pt x="528" y="741" on="1"/>
        <pt x="439" y="741" on="1"/>
        <pt x="512" y="883" on="1"/>
        <pt x="634" y="883" on="1"/>
      </contour>
      <contour>
        <pt x="944" y="670" on="1"/>
        <pt x="743" y="0" on="1"/>
        <pt x="629" y="0" on="1"/>
        <pt x="479" y="498" on="1"/>
        <pt x="328" y="0" on="1"/>
        <pt x="214" y="0" on="1"/>
        <pt x="14" y="670" on="1"/>
        <pt x="126" y="670" on="1"/>
        <pt x="273" y="165" on="1"/>
        <pt x="427" y="670" on="1"/>
        <pt x="530" y="670" on="1"/>
        <pt x="684" y="165" on="1"/>
        <pt x="831" y="670" on="1"/>
      </contour>
    </TTGlyph>
    <TTGlyph name="Wcircumflex" xMin="14" yMin="0" xMax="944" yMax="878">
      <contour>
        <pt x="419" y="733" on="1"/>
        <pt x="315" y="733" on="1"/>
        <pt x="430" y="878" on="1"/>
        <pt x="529" y="878" on="1"/>
        <pt x="645" y="733" on="1"/>
        <pt x="540" y="733" on="1"/>
        <pt x="480" y="810" on="1"/>
      </contour>
      <contour>
        <pt x="944" y="670" on="1"/>
        <pt x="743" y="0" on="1"/>
        <pt x="629" y="0" on="1"/>
        <pt x="479" y="498" on="1"/>
        <pt x="328" y="0" on="1"/>
        <pt x="214" y="0" on="1"/>
        <pt x="14" y="670" on="1"/>
        <pt x="126" y="670" on="1"/>
        <pt x="273" y="165" on="1"/>
        <pt x="427" y="670" on="1"/>
        <pt x="530" y="670" on="1"/>
        <pt x="684" y="165" on="1"/>
        <pt x="831" y="670" on="1"/>
      </contour>
    </TTGlyph>
    <TTGlyph name="Wdieresis" xMin="14" yMin="0" xMax="944" yMax="873">
      <contour>
        <pt x="405" y="744" on="0"/>
        <pt x="347" y="744" on="0"/>
        <pt x="310" y="780" on="0"/>
        <pt x="310" y="808" on="1"/>
        <pt x="310" y="834" on="0"/>
        <pt x="348" y="873" on="0"/>
        <pt x="404" y="873" on="0"/>
        <pt x="442" y="834" on="0"/>
        <pt x="442" y="808" on="1"/>
        <pt x="442" y="780" on="0"/>
      </contour>
      <contour>
        <pt x="612" y="744" on="0"/>
        <pt x="554" y="744" on="0"/>
        <pt x="517" y="780" on="0"/>
        <pt x="517" y="808" on="1"/>
        <pt x="517" y="834" on="0"/>
        <pt x="555" y="873" on="0"/>
        <pt x="611" y="873" on="0"/>
        <pt x="649" y="834" on="0"/>
        <pt x="649" y="808" on="1"/>
        <pt x="649" y="780" on="0"/>
      </contour>
      <contour>
        <pt x="944" y="670" on="1"/>
        <pt x="743" y="0" on="1"/>
        <pt x="629" y="0" on="1"/>
        <pt x="479" y="498" on="1"/>
        <pt x="328" y="0" on="1"/>
        <pt x="214" y="0" on="1"/>
        <pt x="14" y="670" on="1"/>
        <pt x="126" y="670" on="1"/>
        <pt x="273" y="165" on="1"/>
        <pt x="427" y="670" on="1"/>
        <pt x="530" y="670" on="1"/>
        <pt x="684" y="165" on="1"/>
        <pt x="831" y="670" on="1"/>
      </contour>
    </TTGlyph>
    <TTGlyph name="Wgrave" xMin="14" yMin="0" xMax="944" yMax="883">
      <contour>
        <pt x="433" y="741" on="1"/>
        <pt x="327" y="883" on="1"/>
        <pt x="449" y="883" on="1"/>
        <pt x="522" y="741" on="1"/>
      </contour>
      <contour>
        <pt x="944" y="670" on="1"/>
        <pt x="743" y="0" on="1"/>
        <pt x="629" y="0" on="1"/>
        <pt x="479" y="498" on="1"/>
        <pt x="328" y="0" on="1"/>
        <pt x="214" y="0" on="1"/>
        <pt x="14" y="670" on="1"/>
        <pt x="126" y="670" on="1"/>
        <pt x="273" y="165" on="1"/>
        <pt x="427" y="670" on="1"/>
        <pt x="530" y="670" on="1"/>
        <pt x="684" y="165" on="1"/>
        <pt x="831" y="670" on="1"/>
      </contour>
    </TTGlyph>
    <TTGlyph name="X" xMin="14" yMin="0" xMax="633" yMax="670">
      <contour>
        <pt x="502" y="0" on="1"/>
        <pt x="324" y="266" on="1"/>
        <pt x="145" y="0" on="1"/>
        <pt x="14" y="0" on="1"/>
        <pt x="242" y="336" on="1"/>
        <pt x="16" y="670" on="1"/>
        <pt x="147" y="670" on="1"/>
        <pt x="324" y="407" on="1"/>
        <pt x="500" y="670" on="1"/>
        <pt x="631" y="670" on="1"/>
        <pt x="404" y="336" on="1"/>
        <pt x="633" y="0" on="1"/>
      </contour>
    </TTGlyph>
    <TTGlyph name="Y" xMin="14" yMin="0" xMax="667" yMax="670">
      <contour>
        <pt x="392" y="224" on="1"/>
        <pt x="392" y="0" on="1"/>
        <pt x="285" y="0" on="1"/>
        <pt x="285" y="222" on="1"/>
        <pt x="14" y="670" on="1"/>
        <pt x="133" y="670" on="1"/>
        <pt x="339" y="334" on="1"/>
        <pt x="544" y="670" on="1"/>
        <pt x="667" y="670" on="1"/>
      </contour>
    </TTGlyph>
    <TTGlyph name="Yacute" xMin="14" yMin="0" xMax="667" yMax="883">
      <contour>
        <pt x="389" y="741" on="1"/>
        <pt x="300" y="741" on="1"/>
        <pt x="373" y="883" on="1"/>
        <pt x="495" y="883" on="1"/>
      </contour>
      <contour>
        <pt x="392" y="224" on="1"/>
        <pt x="392" y="0" on="1"/>
        <pt x="285" y="0" on="1"/>
        <pt x="285" y="222" on="1"/>
        <pt x="14" y="670" on="1"/>
        <pt x="133" y="670" on="1"/>
        <pt x="339" y="334" on="1"/>
        <pt x="544" y="670" on="1"/>
        <pt x="667" y="670" on="1"/>
      </contour>
    </TTGlyph>
    <TTGlyph name="Ycircumflex" xMin="14" yMin="0" xMax="667" yMax="878">
      <contour>
        <pt x="280" y="733" on="1"/>
        <pt x="176" y="733" on="1"/>
        <pt x="291" y="878" on="1"/>
        <pt x="390" y="878" on="1"/>
        <pt x="506" y="733" on="1"/>
        <pt x="401" y="733" on="1"/>
        <pt x="341" y="810" on="1"/>
      </contour>
      <contour>
        <pt x="392" y="224" on="1"/>
        <pt x="392" y="0" on="1"/>
        <pt x="285" y="0" on="1"/>
        <pt x="285" y="222" on="1"/>
        <pt x="14" y="670" on="1"/>
        <pt x="133" y="670" on="1"/>
        <pt x="339" y="334" on="1"/>
        <pt x="544" y="670" on="1"/>
        <pt x="667" y="670" on="1"/>
      </contour>
    </TTGlyph>
    <TTGlyph name="Ydieresis" xMin="14" yMin="0" xMax="667" yMax="873">
      <contour>
        <pt x="266" y="744" on="0"/>
        <pt x="208" y="744" on="0"/>
        <pt x="171" y="780" on="0"/>
        <pt x="171" y="808" on="1"/>
        <pt x="171" y="834" on="0"/>
        <pt x="209" y="873" on="0"/>
        <pt x="265" y="873" on="0"/>
        <pt x="303" y="834" on="0"/>
        <pt x="303" y="808" on="1"/>
        <pt x="303" y="780" on="0"/>
      </contour>
      <contour>
        <pt x="473" y="744" on="0"/>
        <pt x="415" y="744" on="0"/>
        <pt x="378" y="780" on="0"/>
        <pt x="378" y="808" on="1"/>
        <pt x="378" y="834" on="0"/>
        <pt x="416" y="873" on="0"/>
        <pt x="472" y="873" on="0"/>
        <pt x="510" y="834" on="0"/>
        <pt x="510" y="808" on="1"/>
        <pt x="510" y="780" on="0"/>
      </contour>
      <contour>
        <pt x="392" y="224" on="1"/>
        <pt x="392" y="0" on="1"/>
        <pt x="285" y="0" on="1"/>
        <pt x="285" y="222" on="1"/>
        <pt x="14" y="670" on="1"/>
        <pt x="133" y="670" on="1"/>
        <pt x="339" y="334" on="1"/>
        <pt x="544" y="670" on="1"/>
        <pt x="667" y="670" on="1"/>
      </contour>
    </TTGlyph>
    <TTGlyph name="Ygrave" xMin="14" yMin="0" xMax="667" yMax="883">
      <contour>
        <pt x="294" y="741" on="1"/>
        <pt x="188" y="883" on="1"/>
        <pt x="310" y="883" on="1"/>
        <pt x="383" y="741" on="1"/>
      </contour>
      <contour>
        <pt x="392" y="224" on="1"/>
        <pt x="392" y="0" on="1"/>
        <pt x="285" y="0" on="1"/>
        <pt x="285" y="222" on="1"/>
        <pt x="14" y="670" on="1"/>
        <pt x="133" y="670" on="1"/>
        <pt x="339" y="334" on="1"/>
        <pt x="544" y="670" on="1"/>
        <pt x="667" y="670" on="1"/>
      </contour>
    </TTGlyph>
    <TTGlyph name="Z" xMin="53" yMin="0" xMax="579" yMax="670">
      <contour>
        <pt x="579" y="92" on="1"/>
        <pt x="579" y="0" on="1"/>
        <pt x="53" y="0" on="1"/>
        <pt x="53" y="69" on="1"/>
        <pt x="437" y="578" on="1"/>
        <pt x="64" y="578" on="1"/>
        <pt x="64" y="670" on="1"/>
        <pt x="574" y="670" on="1"/>
        <pt x="574" y="590" on="1"/>
        <pt x="205" y="92" on="1"/>
      </contour>
    </TTGlyph>
    <TTGlyph name="Zacute" xMin="53" yMin="0" xMax="579" yMax="883">
      <contour>
        <pt x="368" y="741" on="1"/>
        <pt x="279" y="741" on="1"/>
        <pt x="352" y="883" on="1"/>
        <pt x="474" y="883" on="1"/>
      </contour>
      <contour>
        <pt x="579" y="92" on="1"/>
        <pt x="579" y="0" on="1"/>
        <pt x="53" y="0" on="1"/>
        <pt x="53" y="69" on="1"/>
        <pt x="437" y="578" on="1"/>
        <pt x="64" y="578" on="1"/>
        <pt x="64" y="670" on="1"/>
        <pt x="574" y="670" on="1"/>
        <pt x="574" y="590" on="1"/>
        <pt x="205" y="92" on="1"/>
      </contour>
    </TTGlyph>
    <TTGlyph name="Zcaron" xMin="53" yMin="0" xMax="579" yMax="879">
      <contour>
        <pt x="270" y="733" on="1"/>
        <pt x="155" y="879" on="1"/>
        <pt x="259" y="879" on="1"/>
        <pt x="320" y="801" on="1"/>
        <pt x="380" y="879" on="1"/>
        <pt x="485" y="879" on="1"/>
        <pt x="369" y="733" on="1"/>
      </contour>
      <contour>
        <pt x="579" y="92" on="1"/>
        <pt x="579" y="0" on="1"/>
        <pt x="53" y="0" on="1"/>
        <pt x="53" y="69" on="1"/>
        <pt x="437" y="578" on="1"/>
        <pt x="64" y="578" on="1"/>
        <pt x="64" y="670" on="1"/>
        <pt x="574" y="670" on="1"/>
        <pt x="574" y="590" on="1"/>
        <pt x="205" y="92" on="1"/>
      </contour>
    </TTGlyph>
    <TTGlyph name="Zdotaccent" xMin="53" yMin="0" xMax="579" yMax="878">
      <contour>
        <pt x="347" y="752" on="0"/>
        <pt x="291" y="752" on="0"/>
        <pt x="255" y="788" on="0"/>
        <pt x="255" y="815" on="1"/>
        <pt x="255" y="841" on="0"/>
        <pt x="292" y="878" on="0"/>
        <pt x="346" y="878" on="0"/>
        <pt x="384" y="841" on="0"/>
        <pt x="384" y="815" on="1"/>
        <pt x="384" y="788" on="0"/>
      </contour>
      <contour>
        <pt x="579" y="92" on="1"/>
        <pt x="579" y="0" on="1"/>
        <pt x="53" y="0" on="1"/>
        <pt x="53" y="69" on="1"/>
        <pt x="437" y="578" on="1"/>
        <pt x="64" y="578" on="1"/>
        <pt x="64" y="670" on="1"/>
        <pt x="574" y="670" on="1"/>
        <pt x="574" y="590" on="1"/>
        <pt x="205" y="92" on="1"/>
      </contour>
    </TTGlyph>
    <TTGlyph name="a" xMin="34" yMin="-14" xMax="564" yMax="510">
      <contour>
        <pt x="564" y="496" on="1"/>
        <pt x="564" y="0" on="1"/>
        <pt x="460" y="0" on="1"/>
        <pt x="460" y="57" on="1"/>
        <pt x="392" y="-14" on="0"/>
        <pt x="280" y="-14" on="1"/>
        <pt x="179" y="-14" on="0"/>
        <pt x="34" y="133" on="0"/>
        <pt x="34" y="248" on="1"/>
        <pt x="34" y="362" on="0"/>
        <pt x="180" y="510" on="0"/>
        <pt x="280" y="510" on="1"/>
        <pt x="392" y="510" on="0"/>
        <pt x="460" y="439" on="1"/>
        <pt x="460" y="496" on="1"/>
      </contour>
      <contour>
        <pt x="297" y="78" on="1"/>
        <pt x="362" y="78" on="0"/>
        <pt x="460" y="173" on="0"/>
        <pt x="460" y="323" on="0"/>
        <pt x="362" y="418" on="0"/>
        <pt x="297" y="418" on="1"/>
        <pt x="227" y="418" on="0"/>
        <pt x="135" y="325" on="0"/>
        <pt x="135" y="171" on="0"/>
        <pt x="227" y="78" on="0"/>
      </contour>
    </TTGlyph>
    <TTGlyph name="a.ss01" xMin="36" yMin="-14" xMax="489" yMax="510">
      <contour>
        <pt x="278" y="510" on="1"/>
        <pt x="375" y="510" on="0"/>
        <pt x="489" y="412" on="0"/>
        <pt x="489" y="323" on="1"/>
        <pt x="489" y="0" on="1"/>
        <pt x="390" y="0" on="1"/>
        <pt x="390" y="57" on="1"/>
        <pt x="326" y="-14" on="0"/>
        <pt x="221" y="-14" on="1"/>
        <pt x="138" y="-14" on="0"/>
        <pt x="36" y="73" on="0"/>
        <pt x="36" y="143" on="1"/>
        <pt x="36" y="214" on="0"/>
        <pt x="141" y="300" on="0"/>
        <pt x="235" y="300" on="1"/>
        <pt x="390" y="300" on="1"/>
        <pt x="390" y="315" on="1"/>
        <pt x="390" y="363" on="0"/>
        <pt x="332" y="419" on="0"/>
        <pt x="284" y="419" on="1"/>
        <pt x="180" y="419" on="0"/>
        <pt x="163" y="333" on="1"/>
        <pt x="64" y="354" on="1"/>
        <pt x="77" y="424" on="0"/>
        <pt x="195" y="510" on="0"/>
      </contour>
      <contour>
        <pt x="237" y="70" on="1"/>
        <pt x="300" y="70" on="0"/>
        <pt x="390" y="148" on="0"/>
        <pt x="390" y="204" on="1"/>
        <pt x="390" y="220" on="1"/>
        <pt x="233" y="220" on="1"/>
        <pt x="188" y="220" on="0"/>
        <pt x="136" y="179" on="0"/>
        <pt x="136" y="111" on="0"/>
        <pt x="191" y="70" on="0"/>
      </contour>
    </TTGlyph>
    <TTGlyph name="aacute" xMin="34" yMin="-14" xMax="564" yMax="709">
      <contour>
        <pt x="359" y="567" on="1"/>
        <pt x="270" y="567" on="1"/>
        <pt x="343" y="709" on="1"/>
        <pt x="465" y="709" on="1"/>
      </contour>
      <contour>
        <pt x="564" y="496" on="1"/>
        <pt x="564" y="0" on="1"/>
        <pt x="460" y="0" on="1"/>
        <pt x="460" y="57" on="1"/>
        <pt x="392" y="-14" on="0"/>
        <pt x="280" y="-14" on="1"/>
        <pt x="179" y="-14" on="0"/>
        <pt x="34" y="133" on="0"/>
        <pt x="34" y="248" on="1"/>
        <pt x="34" y="362" on="0"/>
        <pt x="180" y="510" on="0"/>
        <pt x="280" y="510" on="1"/>
        <pt x="392" y="510" on="0"/>
        <pt x="460" y="439" on="1"/>
        <pt x="460" y="496" on="1"/>
      </contour>
      <contour>
        <pt x="297" y="78" on="1"/>
        <pt x="362" y="78" on="0"/>
        <pt x="460" y="173" on="0"/>
        <pt x="460" y="323" on="0"/>
        <pt x="362" y="418" on="0"/>
        <pt x="297" y="418" on="1"/>
        <pt x="227" y="418" on="0"/>
        <pt x="135" y="325" on="0"/>
        <pt x="135" y="171" on="0"/>
        <pt x="227" y="78" on="0"/>
      </contour>
    </TTGlyph>
    <TTGlyph name="aacute.ss01" xMin="36" yMin="-14" xMax="489" yMax="709">
      <contour>
        <pt x="328" y="567" on="1"/>
        <pt x="239" y="567" on="1"/>
        <pt x="312" y="709" on="1"/>
        <pt x="434" y="709" on="1"/>
      </contour>
      <contour>
        <pt x="278" y="510" on="1"/>
        <pt x="375" y="510" on="0"/>
        <pt x="489" y="412" on="0"/>
        <pt x="489" y="323" on="1"/>
        <pt x="489" y="0" on="1"/>
        <pt x="390" y="0" on="1"/>
        <pt x="390" y="57" on="1"/>
        <pt x="326" y="-14" on="0"/>
        <pt x="221" y="-14" on="1"/>
        <pt x="138" y="-14" on="0"/>
        <pt x="36" y="73" on="0"/>
        <pt x="36" y="143" on="1"/>
        <pt x="36" y="214" on="0"/>
        <pt x="141" y="300" on="0"/>
        <pt x="235" y="300" on="1"/>
        <pt x="390" y="300" on="1"/>
        <pt x="390" y="315" on="1"/>
        <pt x="390" y="363" on="0"/>
        <pt x="332" y="419" on="0"/>
        <pt x="284" y="419" on="1"/>
        <pt x="180" y="419" on="0"/>
        <pt x="163" y="333" on="1"/>
        <pt x="64" y="354" on="1"/>
        <pt x="77" y="424" on="0"/>
        <pt x="195" y="510" on="0"/>
      </contour>
      <contour>
        <pt x="237" y="70" on="1"/>
        <pt x="300" y="70" on="0"/>
        <pt x="390" y="148" on="0"/>
        <pt x="390" y="204" on="1"/>
        <pt x="390" y="220" on="1"/>
        <pt x="233" y="220" on="1"/>
        <pt x="188" y="220" on="0"/>
        <pt x="136" y="179" on="0"/>
        <pt x="136" y="111" on="0"/>
        <pt x="191" y="70" on="0"/>
      </contour>
    </TTGlyph>
    <TTGlyph name="abreve" xMin="34" yMin="-14" xMax="564" yMax="694">
      <contour>
        <pt x="381" y="552" on="0"/>
        <pt x="239" y="552" on="0"/>
        <pt x="154" y="629" on="0"/>
        <pt x="154" y="694" on="1"/>
        <pt x="241" y="694" on="1"/>
        <pt x="241" y="663" on="0"/>
        <pt x="281" y="624" on="0"/>
        <pt x="310" y="624" on="1"/>
        <pt x="340" y="624" on="0"/>
        <pt x="380" y="663" on="0"/>
        <pt x="380" y="694" on="1"/>
        <pt x="466" y="694" on="1"/>
        <pt x="466" y="629" on="0"/>
      </contour>
      <contour>
        <pt x="564" y="496" on="1"/>
        <pt x="564" y="0" on="1"/>
        <pt x="460" y="0" on="1"/>
        <pt x="460" y="57" on="1"/>
        <pt x="392" y="-14" on="0"/>
        <pt x="280" y="-14" on="1"/>
        <pt x="179" y="-14" on="0"/>
        <pt x="34" y="133" on="0"/>
        <pt x="34" y="248" on="1"/>
        <pt x="34" y="362" on="0"/>
        <pt x="180" y="510" on="0"/>
        <pt x="280" y="510" on="1"/>
        <pt x="392" y="510" on="0"/>
        <pt x="460" y="439" on="1"/>
        <pt x="460" y="496" on="1"/>
      </contour>
      <contour>
        <pt x="297" y="78" on="1"/>
        <pt x="362" y="78" on="0"/>
        <pt x="460" y="173" on="0"/>
        <pt x="460" y="323" on="0"/>
        <pt x="362" y="418" on="0"/>
        <pt x="297" y="418" on="1"/>
        <pt x="227" y="418" on="0"/>
        <pt x="135" y="325" on="0"/>
        <pt x="135" y="171" on="0"/>
        <pt x="227" y="78" on="0"/>
      </contour>
    </TTGlyph>
    <TTGlyph name="abreve.ss01" xMin="36" yMin="-14" xMax="489" yMax="694">
      <contour>
        <pt x="350" y="552" on="0"/>
        <pt x="208" y="552" on="0"/>
        <pt x="123" y="629" on="0"/>
        <pt x="123" y="694" on="1"/>
        <pt x="210" y="694" on="1"/>
        <pt x="210" y="663" on="0"/>
        <pt x="250" y="624" on="0"/>
        <pt x="279" y="624" on="1"/>
        <pt x="309" y="624" on="0"/>
        <pt x="349" y="663" on="0"/>
        <pt x="349" y="694" on="1"/>
        <pt x="435" y="694" on="1"/>
        <pt x="435" y="629" on="0"/>
      </contour>
      <contour>
        <pt x="278" y="510" on="1"/>
        <pt x="375" y="510" on="0"/>
        <pt x="489" y="412" on="0"/>
        <pt x="489" y="323" on="1"/>
        <pt x="489" y="0" on="1"/>
        <pt x="390" y="0" on="1"/>
        <pt x="390" y="57" on="1"/>
        <pt x="326" y="-14" on="0"/>
        <pt x="221" y="-14" on="1"/>
        <pt x="138" y="-14" on="0"/>
        <pt x="36" y="73" on="0"/>
        <pt x="36" y="143" on="1"/>
        <pt x="36" y="214" on="0"/>
        <pt x="141" y="300" on="0"/>
        <pt x="235" y="300" on="1"/>
        <pt x="390" y="300" on="1"/>
        <pt x="390" y="315" on="1"/>
        <pt x="390" y="363" on="0"/>
        <pt x="332" y="419" on="0"/>
        <pt x="284" y="419" on="1"/>
        <pt x="180" y="419" on="0"/>
        <pt x="163" y="333" on="1"/>
        <pt x="64" y="354" on="1"/>
        <pt x="77" y="424" on="0"/>
        <pt x="195" y="510" on="0"/>
      </contour>
      <contour>
        <pt x="237" y="70" on="1"/>
        <pt x="300" y="70" on="0"/>
        <pt x="390" y="148" on="0"/>
        <pt x="390" y="204" on="1"/>
        <pt x="390" y="220" on="1"/>
        <pt x="233" y="220" on="1"/>
        <pt x="188" y="220" on="0"/>
        <pt x="136" y="179" on="0"/>
        <pt x="136" y="111" on="0"/>
        <pt x="191" y="70" on="0"/>
      </contour>
    </TTGlyph>
    <TTGlyph name="acircumflex" xMin="34" yMin="-14" xMax="564" yMax="704">
      <contour>
        <pt x="250" y="559" on="1"/>
        <pt x="146" y="559" on="1"/>
        <pt x="261" y="704" on="1"/>
        <pt x="360" y="704" on="1"/>
        <pt x="476" y="559" on="1"/>
        <pt x="371" y="559" on="1"/>
        <pt x="311" y="636" on="1"/>
      </contour>
      <contour>
        <pt x="564" y="496" on="1"/>
        <pt x="564" y="0" on="1"/>
        <pt x="460" y="0" on="1"/>
        <pt x="460" y="57" on="1"/>
        <pt x="392" y="-14" on="0"/>
        <pt x="280" y="-14" on="1"/>
        <pt x="179" y="-14" on="0"/>
        <pt x="34" y="133" on="0"/>
        <pt x="34" y="248" on="1"/>
        <pt x="34" y="362" on="0"/>
        <pt x="180" y="510" on="0"/>
        <pt x="280" y="510" on="1"/>
        <pt x="392" y="510" on="0"/>
        <pt x="460" y="439" on="1"/>
        <pt x="460" y="496" on="1"/>
      </contour>
      <contour>
        <pt x="297" y="78" on="1"/>
        <pt x="362" y="78" on="0"/>
        <pt x="460" y="173" on="0"/>
        <pt x="460" y="323" on="0"/>
        <pt x="362" y="418" on="0"/>
        <pt x="297" y="418" on="1"/>
        <pt x="227" y="418" on="0"/>
        <pt x="135" y="325" on="0"/>
        <pt x="135" y="171" on="0"/>
        <pt x="227" y="78" on="0"/>
      </contour>
    </TTGlyph>
    <TTGlyph name="acircumflex.ss01" xMin="36" yMin="-14" xMax="489" yMax="704">
      <contour>
        <pt x="219" y="559" on="1"/>
        <pt x="115" y="559" on="1"/>
        <pt x="230" y="704" on="1"/>
        <pt x="329" y="704" on="1"/>
        <pt x="445" y="559" on="1"/>
        <pt x="340" y="559" on="1"/>
        <pt x="280" y="636" on="1"/>
      </contour>
      <contour>
        <pt x="278" y="510" on="1"/>
        <pt x="375" y="510" on="0"/>
        <pt x="489" y="412" on="0"/>
        <pt x="489" y="323" on="1"/>
        <pt x="489" y="0" on="1"/>
        <pt x="390" y="0" on="1"/>
        <pt x="390" y="57" on="1"/>
        <pt x="326" y="-14" on="0"/>
        <pt x="221" y="-14" on="1"/>
        <pt x="138" y="-14" on="0"/>
        <pt x="36" y="73" on="0"/>
        <pt x="36" y="143" on="1"/>
        <pt x="36" y="214" on="0"/>
        <pt x="141" y="300" on="0"/>
        <pt x="235" y="300" on="1"/>
        <pt x="390" y="300" on="1"/>
        <pt x="390" y="315" on="1"/>
        <pt x="390" y="363" on="0"/>
        <pt x="332" y="419" on="0"/>
        <pt x="284" y="419" on="1"/>
        <pt x="180" y="419" on="0"/>
        <pt x="163" y="333" on="1"/>
        <pt x="64" y="354" on="1"/>
        <pt x="77" y="424" on="0"/>
        <pt x="195" y="510" on="0"/>
      </contour>
      <contour>
        <pt x="237" y="70" on="1"/>
        <pt x="300" y="70" on="0"/>
        <pt x="390" y="148" on="0"/>
        <pt x="390" y="204" on="1"/>
        <pt x="390" y="220" on="1"/>
        <pt x="233" y="220" on="1"/>
        <pt x="188" y="220" on="0"/>
        <pt x="136" y="179" on="0"/>
        <pt x="136" y="111" on="0"/>
        <pt x="191" y="70" on="0"/>
      </contour>
    </TTGlyph>
    <TTGlyph name="acute" xMin="236" yMin="567" xMax="431" yMax="709">
      <contour>
        <pt x="325" y="567" on="1"/>
        <pt x="236" y="567" on="1"/>
        <pt x="309" y="709" on="1"/>
        <pt x="431" y="709" on="1"/>
      </contour>
    </TTGlyph>
    <TTGlyph name="adieresis" xMin="34" yMin="-14" xMax="564" yMax="699">
      <contour>
        <pt x="236" y="570" on="0"/>
        <pt x="178" y="570" on="0"/>
        <pt x="141" y="606" on="0"/>
        <pt x="141" y="634" on="1"/>
        <pt x="141" y="660" on="0"/>
        <pt x="179" y="699" on="0"/>
        <pt x="235" y="699" on="0"/>
        <pt x="273" y="660" on="0"/>
        <pt x="273" y="634" on="1"/>
        <pt x="273" y="606" on="0"/>
      </contour>
      <contour>
        <pt x="443" y="570" on="0"/>
        <pt x="385" y="570" on="0"/>
        <pt x="348" y="606" on="0"/>
        <pt x="348" y="634" on="1"/>
        <pt x="348" y="660" on="0"/>
        <pt x="386" y="699" on="0"/>
        <pt x="442" y="699" on="0"/>
        <pt x="480" y="660" on="0"/>
        <pt x="480" y="634" on="1"/>
        <pt x="480" y="606" on="0"/>
      </contour>
      <contour>
        <pt x="564" y="496" on="1"/>
        <pt x="564" y="0" on="1"/>
        <pt x="460" y="0" on="1"/>
        <pt x="460" y="57" on="1"/>
        <pt x="392" y="-14" on="0"/>
        <pt x="280" y="-14" on="1"/>
        <pt x="179" y="-14" on="0"/>
        <pt x="34" y="133" on="0"/>
        <pt x="34" y="248" on="1"/>
        <pt x="34" y="362" on="0"/>
        <pt x="180" y="510" on="0"/>
        <pt x="280" y="510" on="1"/>
        <pt x="392" y="510" on="0"/>
        <pt x="460" y="439" on="1"/>
        <pt x="460" y="496" on="1"/>
      </contour>
      <contour>
        <pt x="297" y="78" on="1"/>
        <pt x="362" y="78" on="0"/>
        <pt x="460" y="173" on="0"/>
        <pt x="460" y="323" on="0"/>
        <pt x="362" y="418" on="0"/>
        <pt x="297" y="418" on="1"/>
        <pt x="227" y="418" on="0"/>
        <pt x="135" y="325" on="0"/>
        <pt x="135" y="171" on="0"/>
        <pt x="227" y="78" on="0"/>
      </contour>
    </TTGlyph>
    <TTGlyph name="adieresis.ss01" xMin="36" yMin="-14" xMax="489" yMax="699">
      <contour>
        <pt x="205" y="570" on="0"/>
        <pt x="147" y="570" on="0"/>
        <pt x="110" y="606" on="0"/>
        <pt x="110" y="634" on="1"/>
        <pt x="110" y="660" on="0"/>
        <pt x="148" y="699" on="0"/>
        <pt x="204" y="699" on="0"/>
        <pt x="242" y="660" on="0"/>
        <pt x="242" y="634" on="1"/>
        <pt x="242" y="606" on="0"/>
      </contour>
      <contour>
        <pt x="412" y="570" on="0"/>
        <pt x="354" y="570" on="0"/>
        <pt x="317" y="606" on="0"/>
        <pt x="317" y="634" on="1"/>
        <pt x="317" y="660" on="0"/>
        <pt x="355" y="699" on="0"/>
        <pt x="411" y="699" on="0"/>
        <pt x="449" y="660" on="0"/>
        <pt x="449" y="634" on="1"/>
        <pt x="449" y="606" on="0"/>
      </contour>
      <contour>
        <pt x="278" y="510" on="1"/>
        <pt x="375" y="510" on="0"/>
        <pt x="489" y="412" on="0"/>
        <pt x="489" y="323" on="1"/>
        <pt x="489" y="0" on="1"/>
        <pt x="390" y="0" on="1"/>
        <pt x="390" y="57" on="1"/>
        <pt x="326" y="-14" on="0"/>
        <pt x="221" y="-14" on="1"/>
        <pt x="138" y="-14" on="0"/>
        <pt x="36" y="73" on="0"/>
        <pt x="36" y="143" on="1"/>
        <pt x="36" y="214" on="0"/>
        <pt x="141" y="300" on="0"/>
        <pt x="235" y="300" on="1"/>
        <pt x="390" y="300" on="1"/>
        <pt x="390" y="315" on="1"/>
        <pt x="390" y="363" on="0"/>
        <pt x="332" y="419" on="0"/>
        <pt x="284" y="419" on="1"/>
        <pt x="180" y="419" on="0"/>
        <pt x="163" y="333" on="1"/>
        <pt x="64" y="354" on="1"/>
        <pt x="77" y="424" on="0"/>
        <pt x="195" y="510" on="0"/>
      </contour>
      <contour>
        <pt x="237" y="70" on="1"/>
        <pt x="300" y="70" on="0"/>
        <pt x="390" y="148" on="0"/>
        <pt x="390" y="204" on="1"/>
        <pt x="390" y="220" on="1"/>
        <pt x="233" y="220" on="1"/>
        <pt x="188" y="220" on="0"/>
        <pt x="136" y="179" on="0"/>
        <pt x="136" y="111" on="0"/>
        <pt x="191" y="70" on="0"/>
      </contour>
    </TTGlyph>
    <TTGlyph name="ae" xMin="36" yMin="-14" xMax="878" yMax="510">
      <contour>
        <pt x="878" y="213" on="1"/>
        <pt x="486" y="213" on="1"/>
        <pt x="497" y="148" on="0"/>
        <pt x="576" y="76" on="0"/>
        <pt x="637" y="76" on="1"/>
        <pt x="676" y="76" on="0"/>
        <pt x="752" y="117" on="0"/>
        <pt x="772" y="161" on="1"/>
        <pt x="865" y="141" on="1"/>
        <pt x="846" y="72" on="0"/>
        <pt x="716" y="-14" on="0"/>
        <pt x="635" y="-14" on="1"/>
        <pt x="504" y="-14" on="0"/>
        <pt x="434" y="86" on="1"/>
        <pt x="403" y="41" on="0"/>
        <pt x="292" y="-14" on="0"/>
        <pt x="225" y="-14" on="1"/>
        <pt x="134" y="-14" on="0"/>
        <pt x="36" y="74" on="0"/>
        <pt x="36" y="141" on="1"/>
        <pt x="36" y="209" on="0"/>
        <pt x="141" y="288" on="0"/>
        <pt x="233" y="288" on="1"/>
        <pt x="390" y="288" on="1"/>
        <pt x="390" y="318" on="1"/>
        <pt x="390" y="365" on="0"/>
        <pt x="328" y="422" on="0"/>
        <pt x="277" y="422" on="1"/>
        <pt x="228" y="422" on="0"/>
        <pt x="166" y="375" on="0"/>
        <pt x="160" y="333" on="1"/>
        <pt x="65" y="354" on="1"/>
        <pt x="73" y="423" on="0"/>
        <pt x="189" y="510" on="0"/>
        <pt x="279" y="510" on="1"/>
        <pt x="396" y="510" on="0"/>
        <pt x="453" y="431" on="1"/>
        <pt x="523" y="510" on="0"/>
        <pt x="632" y="510" on="1"/>
        <pt x="736" y="510" on="0"/>
        <pt x="877" y="364" on="0"/>
        <pt x="878" y="249" on="1"/>
      </contour>
      <contour>
        <pt x="486" y="288" on="1"/>
        <pt x="773" y="288" on="1"/>
        <pt x="763" y="352" on="0"/>
        <pt x="688" y="421" on="0"/>
        <pt x="636" y="421" on="1"/>
        <pt x="579" y="421" on="0"/>
        <pt x="494" y="351" on="0"/>
      </contour>
      <contour>
        <pt x="390" y="213" on="1"/>
        <pt x="233" y="213" on="1"/>
        <pt x="187" y="213" on="0"/>
        <pt x="136" y="176" on="0"/>
        <pt x="136" y="144" on="1"/>
        <pt x="136" y="111" on="0"/>
        <pt x="190" y="70" on="0"/>
        <pt x="237" y="70" on="1"/>
        <pt x="298" y="70" on="0"/>
        <pt x="390" y="147" on="0"/>
        <pt x="390" y="202" on="1"/>
      </contour>
    </TTGlyph>
    <TTGlyph name="aeacute" xMin="36" yMin="-14" xMax="878" yMax="709">
      <contour>
        <pt x="499" y="567" on="1"/>
        <pt x="410" y="567" on="1"/>
        <pt x="483" y="709" on="1"/>
        <pt x="605" y="709" on="1"/>
      </contour>
      <contour>
        <pt x="878" y="213" on="1"/>
        <pt x="486" y="213" on="1"/>
        <pt x="497" y="148" on="0"/>
        <pt x="576" y="76" on="0"/>
        <pt x="637" y="76" on="1"/>
        <pt x="676" y="76" on="0"/>
        <pt x="752" y="117" on="0"/>
        <pt x="772" y="161" on="1"/>
        <pt x="865" y="141" on="1"/>
        <pt x="846" y="72" on="0"/>
        <pt x="716" y="-14" on="0"/>
        <pt x="635" y="-14" on="1"/>
        <pt x="504" y="-14" on="0"/>
        <pt x="434" y="86" on="1"/>
        <pt x="403" y="41" on="0"/>
        <pt x="292" y="-14" on="0"/>
        <pt x="225" y="-14" on="1"/>
        <pt x="134" y="-14" on="0"/>
        <pt x="36" y="74" on="0"/>
        <pt x="36" y="141" on="1"/>
        <pt x="36" y="209" on="0"/>
        <pt x="141" y="288" on="0"/>
        <pt x="233" y="288" on="1"/>
        <pt x="390" y="288" on="1"/>
        <pt x="390" y="318" on="1"/>
        <pt x="390" y="365" on="0"/>
        <pt x="328" y="422" on="0"/>
        <pt x="277" y="422" on="1"/>
        <pt x="228" y="422" on="0"/>
        <pt x="166" y="375" on="0"/>
        <pt x="160" y="333" on="1"/>
        <pt x="65" y="354" on="1"/>
        <pt x="73" y="423" on="0"/>
        <pt x="189" y="510" on="0"/>
        <pt x="279" y="510" on="1"/>
        <pt x="396" y="510" on="0"/>
        <pt x="453" y="431" on="1"/>
        <pt x="523" y="510" on="0"/>
        <pt x="632" y="510" on="1"/>
        <pt x="736" y="510" on="0"/>
        <pt x="877" y="364" on="0"/>
        <pt x="878" y="249" on="1"/>
      </contour>
      <contour>
        <pt x="486" y="288" on="1"/>
        <pt x="773" y="288" on="1"/>
        <pt x="763" y="352" on="0"/>
        <pt x="688" y="421" on="0"/>
        <pt x="636" y="421" on="1"/>
        <pt x="579" y="421" on="0"/>
        <pt x="494" y="351" on="0"/>
      </contour>
      <contour>
        <pt x="390" y="213" on="1"/>
        <pt x="233" y="213" on="1"/>
        <pt x="187" y="213" on="0"/>
        <pt x="136" y="176" on="0"/>
        <pt x="136" y="144" on="1"/>
        <pt x="136" y="111" on="0"/>
        <pt x="190" y="70" on="0"/>
        <pt x="237" y="70" on="1"/>
        <pt x="298" y="70" on="0"/>
        <pt x="390" y="147" on="0"/>
        <pt x="390" y="202" on="1"/>
      </contour>
    </TTGlyph>
    <TTGlyph name="agrave" xMin="34" yMin="-14" xMax="564" yMax="709">
      <contour>
        <pt x="265" y="567" on="1"/>
        <pt x="159" y="709" on="1"/>
        <pt x="281" y="709" on="1"/>
        <pt x="354" y="567" on="1"/>
      </contour>
      <contour>
        <pt x="564" y="496" on="1"/>
        <pt x="564" y="0" on="1"/>
        <pt x="460" y="0" on="1"/>
        <pt x="460" y="57" on="1"/>
        <pt x="392" y="-14" on="0"/>
        <pt x="280" y="-14" on="1"/>
        <pt x="179" y="-14" on="0"/>
        <pt x="34" y="133" on="0"/>
        <pt x="34" y="248" on="1"/>
        <pt x="34" y="362" on="0"/>
        <pt x="180" y="510" on="0"/>
        <pt x="280" y="510" on="1"/>
        <pt x="392" y="510" on="0"/>
        <pt x="460" y="439" on="1"/>
        <pt x="460" y="496" on="1"/>
      </contour>
      <contour>
        <pt x="297" y="78" on="1"/>
        <pt x="362" y="78" on="0"/>
        <pt x="460" y="173" on="0"/>
        <pt x="460" y="323" on="0"/>
        <pt x="362" y="418" on="0"/>
        <pt x="297" y="418" on="1"/>
        <pt x="227" y="418" on="0"/>
        <pt x="135" y="325" on="0"/>
        <pt x="135" y="171" on="0"/>
        <pt x="227" y="78" on="0"/>
      </contour>
    </TTGlyph>
    <TTGlyph name="agrave.ss01" xMin="36" yMin="-14" xMax="489" yMax="709">
      <contour>
        <pt x="233" y="567" on="1"/>
        <pt x="127" y="709" on="1"/>
        <pt x="249" y="709" on="1"/>
        <pt x="322" y="567" on="1"/>
      </contour>
      <contour>
        <pt x="278" y="510" on="1"/>
        <pt x="375" y="510" on="0"/>
        <pt x="489" y="412" on="0"/>
        <pt x="489" y="323" on="1"/>
        <pt x="489" y="0" on="1"/>
        <pt x="390" y="0" on="1"/>
        <pt x="390" y="57" on="1"/>
        <pt x="326" y="-14" on="0"/>
        <pt x="221" y="-14" on="1"/>
        <pt x="138" y="-14" on="0"/>
        <pt x="36" y="73" on="0"/>
        <pt x="36" y="143" on="1"/>
        <pt x="36" y="214" on="0"/>
        <pt x="141" y="300" on="0"/>
        <pt x="235" y="300" on="1"/>
        <pt x="390" y="300" on="1"/>
        <pt x="390" y="315" on="1"/>
        <pt x="390" y="363" on="0"/>
        <pt x="332" y="419" on="0"/>
        <pt x="284" y="419" on="1"/>
        <pt x="180" y="419" on="0"/>
        <pt x="163" y="333" on="1"/>
        <pt x="64" y="354" on="1"/>
        <pt x="77" y="424" on="0"/>
        <pt x="195" y="510" on="0"/>
      </contour>
      <contour>
        <pt x="237" y="70" on="1"/>
        <pt x="300" y="70" on="0"/>
        <pt x="390" y="148" on="0"/>
        <pt x="390" y="204" on="1"/>
        <pt x="390" y="220" on="1"/>
        <pt x="233" y="220" on="1"/>
        <pt x="188" y="220" on="0"/>
        <pt x="136" y="179" on="0"/>
        <pt x="136" y="111" on="0"/>
        <pt x="191" y="70" on="0"/>
      </contour>
    </TTGlyph>
    <TTGlyph name="amacron" xMin="34" yMin="-14" xMax="564" yMax="663">
      <contour>
        <pt x="461" y="578" on="1"/>
        <pt x="160" y="578" on="1"/>
        <pt x="160" y="663" on="1"/>
        <pt x="461" y="663" on="1"/>
      </contour>
      <contour>
        <pt x="564" y="496" on="1"/>
        <pt x="564" y="0" on="1"/>
        <pt x="460" y="0" on="1"/>
        <pt x="460" y="57" on="1"/>
        <pt x="392" y="-14" on="0"/>
        <pt x="280" y="-14" on="1"/>
        <pt x="179" y="-14" on="0"/>
        <pt x="34" y="133" on="0"/>
        <pt x="34" y="248" on="1"/>
        <pt x="34" y="362" on="0"/>
        <pt x="180" y="510" on="0"/>
        <pt x="280" y="510" on="1"/>
        <pt x="392" y="510" on="0"/>
        <pt x="460" y="439" on="1"/>
        <pt x="460" y="496" on="1"/>
      </contour>
      <contour>
        <pt x="297" y="78" on="1"/>
        <pt x="362" y="78" on="0"/>
        <pt x="460" y="173" on="0"/>
        <pt x="460" y="323" on="0"/>
        <pt x="362" y="418" on="0"/>
        <pt x="297" y="418" on="1"/>
        <pt x="227" y="418" on="0"/>
        <pt x="135" y="325" on="0"/>
        <pt x="135" y="171" on="0"/>
        <pt x="227" y="78" on="0"/>
      </contour>
    </TTGlyph>
    <TTGlyph name="amacron.ss01" xMin="36" yMin="-14" xMax="489" yMax="663">
      <contour>
        <pt x="430" y="578" on="1"/>
        <pt x="129" y="578" on="1"/>
        <pt x="129" y="663" on="1"/>
        <pt x="430" y="663" on="1"/>
      </contour>
      <contour>
        <pt x="278" y="510" on="1"/>
        <pt x="375" y="510" on="0"/>
        <pt x="489" y="412" on="0"/>
        <pt x="489" y="323" on="1"/>
        <pt x="489" y="0" on="1"/>
        <pt x="390" y="0" on="1"/>
        <pt x="390" y="57" on="1"/>
        <pt x="326" y="-14" on="0"/>
        <pt x="221" y="-14" on="1"/>
        <pt x="138" y="-14" on="0"/>
        <pt x="36" y="73" on="0"/>
        <pt x="36" y="143" on="1"/>
        <pt x="36" y="214" on="0"/>
        <pt x="141" y="300" on="0"/>
        <pt x="235" y="300" on="1"/>
        <pt x="390" y="300" on="1"/>
        <pt x="390" y="315" on="1"/>
        <pt x="390" y="363" on="0"/>
        <pt x="332" y="419" on="0"/>
        <pt x="284" y="419" on="1"/>
        <pt x="180" y="419" on="0"/>
        <pt x="163" y="333" on="1"/>
        <pt x="64" y="354" on="1"/>
        <pt x="77" y="424" on="0"/>
        <pt x="195" y="510" on="0"/>
      </contour>
      <contour>
        <pt x="237" y="70" on="1"/>
        <pt x="300" y="70" on="0"/>
        <pt x="390" y="148" on="0"/>
        <pt x="390" y="204" on="1"/>
        <pt x="390" y="220" on="1"/>
        <pt x="233" y="220" on="1"/>
        <pt x="188" y="220" on="0"/>
        <pt x="136" y="179" on="0"/>
        <pt x="136" y="111" on="0"/>
        <pt x="191" y="70" on="0"/>
      </contour>
    </TTGlyph>
    <TTGlyph name="ampersand" xMin="57" yMin="-24" xMax="683" yMax="684">
      <contour>
        <pt x="622" y="-24" on="1"/>
        <pt x="521" y="63" on="1"/>
        <pt x="438" y="-14" on="0"/>
        <pt x="314" y="-14" on="1"/>
        <pt x="198" y="-14" on="0"/>
        <pt x="57" y="99" on="0"/>
        <pt x="57" y="192" on="1"/>
        <pt x="57" y="306" on="0"/>
        <pt x="178" y="367" on="1"/>
        <pt x="126" y="431" on="0"/>
        <pt x="126" y="504" on="1"/>
        <pt x="126" y="584" on="0"/>
        <pt x="241" y="684" on="0"/>
        <pt x="329" y="684" on="1"/>
        <pt x="416" y="684" on="0"/>
        <pt x="523" y="585" on="0"/>
        <pt x="534" y="500" on="1"/>
        <pt x="436" y="482" on="1"/>
        <pt x="426" y="596" on="0"/>
        <pt x="329" y="596" on="1"/>
        <pt x="284" y="596" on="0"/>
        <pt x="226" y="546" on="0"/>
        <pt x="226" y="502" on="1"/>
        <pt x="226" y="463" on="0"/>
        <pt x="277" y="393" on="0"/>
        <pt x="343" y="338" on="1"/>
        <pt x="501" y="202" on="1"/>
        <pt x="517" y="245" on="0"/>
        <pt x="517" y="297" on="1"/>
        <pt x="517" y="345" on="1"/>
        <pt x="610" y="345" on="1"/>
        <pt x="610" y="297" on="1"/>
        <pt x="610" y="209" on="0"/>
        <pt x="576" y="138" on="1"/>
        <pt x="683" y="46" on="1"/>
      </contour>
      <contour>
        <pt x="314" y="74" on="1"/>
        <pt x="392" y="74" on="0"/>
        <pt x="449" y="125" on="1"/>
        <pt x="261" y="287" on="1"/>
        <pt x="240" y="305" on="1"/>
        <pt x="159" y="264" on="0"/>
        <pt x="159" y="192" on="1"/>
        <pt x="159" y="139" on="0"/>
        <pt x="244" y="74" on="0"/>
      </contour>
    </TTGlyph>
    <TTGlyph name="aogonek" xMin="34" yMin="-205" xMax="586" yMax="510">
      <contour>
        <pt x="580" y="-122" on="1"/>
        <pt x="586" y="-187" on="1"/>
        <pt x="544" y="-205" on="0"/>
        <pt x="509" y="-205" on="1"/>
        <pt x="471" y="-205" on="0"/>
        <pt x="420" y="-162" on="0"/>
        <pt x="420" y="-119" on="1"/>
        <pt x="420" y="-88" on="0"/>
        <pt x="452" y="-34" on="0"/>
        <pt x="491" y="0" on="1"/>
        <pt x="460" y="0" on="1"/>
        <pt x="460" y="57" on="1"/>
        <pt x="392" y="-14" on="0"/>
        <pt x="280" y="-14" on="1"/>
        <pt x="179" y="-14" on="0"/>
        <pt x="34" y="133" on="0"/>
        <pt x="34" y="248" on="1"/>
        <pt x="34" y="362" on="0"/>
        <pt x="180" y="510" on="0"/>
        <pt x="280" y="510" on="1"/>
        <pt x="392" y="510" on="0"/>
        <pt x="460" y="439" on="1"/>
        <pt x="460" y="496" on="1"/>
        <pt x="564" y="496" on="1"/>
        <pt x="564" y="0" on="1"/>
        <pt x="533" y="-34" on="0"/>
        <pt x="515" y="-55" on="0"/>
        <pt x="498" y="-86" on="0"/>
        <pt x="498" y="-100" on="1"/>
        <pt x="498" y="-133" on="0"/>
        <pt x="532" y="-133" on="1"/>
        <pt x="545" y="-133" on="0"/>
      </contour>
      <contour>
        <pt x="297" y="78" on="1"/>
        <pt x="362" y="78" on="0"/>
        <pt x="460" y="173" on="0"/>
        <pt x="460" y="323" on="0"/>
        <pt x="362" y="418" on="0"/>
        <pt x="297" y="418" on="1"/>
        <pt x="227" y="418" on="0"/>
        <pt x="135" y="325" on="0"/>
        <pt x="135" y="171" on="0"/>
        <pt x="227" y="78" on="0"/>
      </contour>
    </TTGlyph>
    <TTGlyph name="aogonek.ss01" xMin="36" yMin="-205" xMax="513" yMax="510">
      <contour>
        <pt x="507" y="-122" on="1"/>
        <pt x="513" y="-187" on="1"/>
        <pt x="471" y="-205" on="0"/>
        <pt x="436" y="-205" on="1"/>
        <pt x="398" y="-205" on="0"/>
        <pt x="347" y="-162" on="0"/>
        <pt x="347" y="-119" on="1"/>
        <pt x="347" y="-88" on="0"/>
        <pt x="379" y="-34" on="0"/>
        <pt x="418" y="0" on="1"/>
        <pt x="390" y="0" on="1"/>
        <pt x="390" y="57" on="1"/>
        <pt x="326" y="-14" on="0"/>
        <pt x="221" y="-14" on="1"/>
        <pt x="138" y="-14" on="0"/>
        <pt x="36" y="73" on="0"/>
        <pt x="36" y="143" on="1"/>
        <pt x="36" y="214" on="0"/>
        <pt x="141" y="300" on="0"/>
        <pt x="235" y="300" on="1"/>
        <pt x="390" y="300" on="1"/>
        <pt x="390" y="315" on="1"/>
        <pt x="390" y="363" on="0"/>
        <pt x="332" y="419" on="0"/>
        <pt x="284" y="419" on="1"/>
        <pt x="180" y="419" on="0"/>
        <pt x="163" y="333" on="1"/>
        <pt x="64" y="354" on="1"/>
        <pt x="77" y="424" on="0"/>
        <pt x="195" y="510" on="0"/>
        <pt x="278" y="510" on="1"/>
        <pt x="375" y="510" on="0"/>
        <pt x="489" y="412" on="0"/>
        <pt x="489" y="323" on="1"/>
        <pt x="489" y="0" on="1"/>
        <pt x="491" y="0" on="1"/>
        <pt x="460" y="-34" on="0"/>
        <pt x="442" y="-55" on="0"/>
        <pt x="425" y="-86" on="0"/>
        <pt x="425" y="-100" on="1"/>
        <pt x="425" y="-133" on="0"/>
        <pt x="459" y="-133" on="1"/>
        <pt x="472" y="-133" on="0"/>
      </contour>
      <contour>
        <pt x="237" y="70" on="1"/>
        <pt x="300" y="70" on="0"/>
        <pt x="390" y="148" on="0"/>
        <pt x="390" y="204" on="1"/>
        <pt x="390" y="220" on="1"/>
        <pt x="233" y="220" on="1"/>
        <pt x="188" y="220" on="0"/>
        <pt x="136" y="179" on="0"/>
        <pt x="136" y="111" on="0"/>
        <pt x="191" y="70" on="0"/>
      </contour>
    </TTGlyph>
    <TTGlyph name="approxequal" xMin="65" yMin="183" xMax="515" yMax="472">
      <contour>
        <pt x="515" y="444" on="1"/>
        <pt x="515" y="356" on="1"/>
        <pt x="477" y="336" on="0"/>
        <pt x="415" y="336" on="1"/>
        <pt x="363" y="336" on="0"/>
        <pt x="229" y="385" on="0"/>
        <pt x="180" y="385" on="1"/>
        <pt x="101" y="385" on="0"/>
        <pt x="65" y="354" on="1"/>
        <pt x="65" y="441" on="1"/>
        <pt x="103" y="472" on="0"/>
        <pt x="180" y="472" on="1"/>
        <pt x="230" y="472" on="0"/>
        <pt x="369" y="423" on="0"/>
        <pt x="416" y="423" on="1"/>
        <pt x="481" y="423" on="0"/>
      </contour>
      <contour>
        <pt x="515" y="292" on="1"/>
        <pt x="515" y="204" on="1"/>
        <pt x="475" y="183" on="0"/>
        <pt x="415" y="183" on="1"/>
        <pt x="363" y="183" on="0"/>
        <pt x="229" y="233" on="0"/>
        <pt x="180" y="233" on="1"/>
        <pt x="101" y="233" on="0"/>
        <pt x="65" y="202" on="1"/>
        <pt x="65" y="289" on="1"/>
        <pt x="103" y="320" on="0"/>
        <pt x="180" y="320" on="1"/>
        <pt x="230" y="320" on="0"/>
        <pt x="369" y="271" on="0"/>
        <pt x="416" y="271" on="1"/>
        <pt x="481" y="271" on="0"/>
      </contour>
    </TTGlyph>
    <TTGlyph name="approxequal.tf" xMin="80" yMin="183" xMax="530" yMax="472">
      <contour>
        <pt x="530" y="444" on="1"/>
        <pt x="530" y="356" on="1"/>
        <pt x="492" y="336" on="0"/>
        <pt x="430" y="336" on="1"/>
        <pt x="378" y="336" on="0"/>
        <pt x="244" y="385" on="0"/>
        <pt x="195" y="385" on="1"/>
        <pt x="116" y="385" on="0"/>
        <pt x="80" y="354" on="1"/>
        <pt x="80" y="441" on="1"/>
        <pt x="118" y="472" on="0"/>
        <pt x="195" y="472" on="1"/>
        <pt x="246" y="472" on="0"/>
        <pt x="384" y="423" on="0"/>
        <pt x="431" y="423" on="1"/>
        <pt x="496" y="423" on="0"/>
      </contour>
      <contour>
        <pt x="530" y="292" on="1"/>
        <pt x="530" y="204" on="1"/>
        <pt x="490" y="183" on="0"/>
        <pt x="430" y="183" on="1"/>
        <pt x="378" y="183" on="0"/>
        <pt x="244" y="233" on="0"/>
        <pt x="195" y="233" on="1"/>
        <pt x="116" y="233" on="0"/>
        <pt x="80" y="202" on="1"/>
        <pt x="80" y="289" on="1"/>
        <pt x="118" y="320" on="0"/>
        <pt x="195" y="320" on="1"/>
        <pt x="246" y="320" on="0"/>
        <pt x="384" y="271" on="0"/>
        <pt x="431" y="271" on="1"/>
        <pt x="496" y="271" on="0"/>
      </contour>
    </TTGlyph>
    <TTGlyph name="aring" xMin="34" yMin="-14" xMax="564" yMax="762">
      <contour>
        <pt x="310" y="547" on="1"/>
        <pt x="264" y="547" on="0"/>
        <pt x="199" y="610" on="0"/>
        <pt x="199" y="654" on="1"/>
        <pt x="199" y="699" on="0"/>
        <pt x="264" y="762" on="0"/>
        <pt x="310" y="762" on="1"/>
        <pt x="357" y="762" on="0"/>
        <pt x="421" y="699" on="0"/>
        <pt x="421" y="609" on="0"/>
        <pt x="357" y="547" on="0"/>
      </contour>
      <contour>
        <pt x="331" y="701" on="0"/>
        <pt x="289" y="701" on="0"/>
        <pt x="261" y="674" on="0"/>
        <pt x="261" y="654" on="1"/>
        <pt x="261" y="635" on="0"/>
        <pt x="289" y="607" on="0"/>
        <pt x="331" y="607" on="0"/>
        <pt x="359" y="635" on="0"/>
        <pt x="359" y="654" on="1"/>
        <pt x="359" y="674" on="0"/>
      </contour>
      <contour>
        <pt x="564" y="496" on="1"/>
        <pt x="564" y="0" on="1"/>
        <pt x="460" y="0" on="1"/>
        <pt x="460" y="57" on="1"/>
        <pt x="392" y="-14" on="0"/>
        <pt x="280" y="-14" on="1"/>
        <pt x="179" y="-14" on="0"/>
        <pt x="34" y="133" on="0"/>
        <pt x="34" y="248" on="1"/>
        <pt x="34" y="362" on="0"/>
        <pt x="180" y="510" on="0"/>
        <pt x="280" y="510" on="1"/>
        <pt x="392" y="510" on="0"/>
        <pt x="460" y="439" on="1"/>
        <pt x="460" y="496" on="1"/>
      </contour>
      <contour>
        <pt x="297" y="78" on="1"/>
        <pt x="362" y="78" on="0"/>
        <pt x="460" y="173" on="0"/>
        <pt x="460" y="323" on="0"/>
        <pt x="362" y="418" on="0"/>
        <pt x="297" y="418" on="1"/>
        <pt x="227" y="418" on="0"/>
        <pt x="135" y="325" on="0"/>
        <pt x="135" y="171" on="0"/>
        <pt x="227" y="78" on="0"/>
      </contour>
    </TTGlyph>
    <TTGlyph name="aring.ss01" xMin="36" yMin="-14" xMax="489" yMax="762">
      <contour>
        <pt x="279" y="547" on="1"/>
        <pt x="233" y="547" on="0"/>
        <pt x="168" y="610" on="0"/>
        <pt x="168" y="654" on="1"/>
        <pt x="168" y="699" on="0"/>
        <pt x="233" y="762" on="0"/>
        <pt x="279" y="762" on="1"/>
        <pt x="326" y="762" on="0"/>
        <pt x="390" y="699" on="0"/>
        <pt x="390" y="609" on="0"/>
        <pt x="326" y="547" on="0"/>
      </contour>
      <contour>
        <pt x="300" y="701" on="0"/>
        <pt x="258" y="701" on="0"/>
        <pt x="230" y="674" on="0"/>
        <pt x="230" y="654" on="1"/>
        <pt x="230" y="635" on="0"/>
        <pt x="258" y="607" on="0"/>
        <pt x="300" y="607" on="0"/>
        <pt x="328" y="635" on="0"/>
        <pt x="328" y="654" on="1"/>
        <pt x="328" y="674" on="0"/>
      </contour>
      <contour>
        <pt x="278" y="510" on="1"/>
        <pt x="375" y="510" on="0"/>
        <pt x="489" y="412" on="0"/>
        <pt x="489" y="323" on="1"/>
        <pt x="489" y="0" on="1"/>
        <pt x="390" y="0" on="1"/>
        <pt x="390" y="57" on="1"/>
        <pt x="326" y="-14" on="0"/>
        <pt x="221" y="-14" on="1"/>
        <pt x="138" y="-14" on="0"/>
        <pt x="36" y="73" on="0"/>
        <pt x="36" y="143" on="1"/>
        <pt x="36" y="214" on="0"/>
        <pt x="141" y="300" on="0"/>
        <pt x="235" y="300" on="1"/>
        <pt x="390" y="300" on="1"/>
        <pt x="390" y="315" on="1"/>
        <pt x="390" y="363" on="0"/>
        <pt x="332" y="419" on="0"/>
        <pt x="284" y="419" on="1"/>
        <pt x="180" y="419" on="0"/>
        <pt x="163" y="333" on="1"/>
        <pt x="64" y="354" on="1"/>
        <pt x="77" y="424" on="0"/>
        <pt x="195" y="510" on="0"/>
      </contour>
      <contour>
        <pt x="237" y="70" on="1"/>
        <pt x="300" y="70" on="0"/>
        <pt x="390" y="148" on="0"/>
        <pt x="390" y="204" on="1"/>
        <pt x="390" y="220" on="1"/>
        <pt x="233" y="220" on="1"/>
        <pt x="188" y="220" on="0"/>
        <pt x="136" y="179" on="0"/>
        <pt x="136" y="111" on="0"/>
        <pt x="191" y="70" on="0"/>
      </contour>
    </TTGlyph>
    <TTGlyph name="arrowdown" xMin="40" yMin="-7" xMax="707" yMax="670">
      <contour>
        <pt x="707" y="326" on="1"/>
        <pt x="374" y="-7" on="1"/>
        <pt x="40" y="327" on="1"/>
        <pt x="117" y="403" on="1"/>
        <pt x="320" y="200" on="1"/>
        <pt x="320" y="670" on="1"/>
        <pt x="428" y="670" on="1"/>
        <pt x="428" y="200" on="1"/>
        <pt x="631" y="402" on="1"/>
      </contour>
    </TTGlyph>
    <TTGlyph name="arrowleft" xMin="10" yMin="-9" xMax="687" yMax="658">
      <contour>
        <pt x="687" y="270" on="1"/>
        <pt x="217" y="270" on="1"/>
        <pt x="419" y="68" on="1"/>
        <pt x="343" y="-9" on="1"/>
        <pt x="10" y="324" on="1"/>
        <pt x="344" y="658" on="1"/>
        <pt x="420" y="581" on="1"/>
        <pt x="217" y="378" on="1"/>
        <pt x="687" y="378" on="1"/>
      </contour>
    </TTGlyph>
    <TTGlyph name="arrowright" xMin="40" yMin="-9" xMax="717" yMax="658">
      <contour>
        <pt x="717" y="324" on="1"/>
        <pt x="384" y="-9" on="1"/>
        <pt x="308" y="68" on="1"/>
        <pt x="511" y="270" on="1"/>
        <pt x="40" y="270" on="1"/>
        <pt x="40" y="378" on="1"/>
        <pt x="511" y="378" on="1"/>
        <pt x="307" y="581" on="1"/>
        <pt x="383" y="658" on="1"/>
      </contour>
    </TTGlyph>
    <TTGlyph name="arrowup" xMin="40" yMin="0" xMax="707" yMax="677">
      <contour>
        <pt x="631" y="268" on="1"/>
        <pt x="428" y="471" on="1"/>
        <pt x="428" y="0" on="1"/>
        <pt x="320" y="0" on="1"/>
        <pt x="320" y="471" on="1"/>
        <pt x="117" y="267" on="1"/>
        <pt x="40" y="343" on="1"/>
        <pt x="374" y="677" on="1"/>
        <pt x="707" y="344" on="1"/>
      </contour>
    </TTGlyph>
    <TTGlyph name="asciicircum" xMin="23" yMin="444" xMax="397" yMax="670">
      <contour>
        <pt x="115" y="444" on="1"/>
        <pt x="23" y="444" on="1"/>
        <pt x="173" y="670" on="1"/>
        <pt x="247" y="670" on="1"/>
        <pt x="397" y="444" on="1"/>
        <pt x="304" y="444" on="1"/>
        <pt x="210" y="584" on="1"/>
      </contour>
    </TTGlyph>
    <TTGlyph name="asciitilde" xMin="47" yMin="231" xMax="442" yMax="374">
      <contour>
        <pt x="129" y="234" on="1"/>
        <pt x="47" y="234" on="1"/>
        <pt x="47" y="307" on="0"/>
        <pt x="119" y="373" on="0"/>
        <pt x="166" y="373" on="1"/>
        <pt x="207" y="373" on="0"/>
        <pt x="290" y="321" on="0"/>
        <pt x="332" y="321" on="0"/>
        <pt x="356" y="350" on="0"/>
        <pt x="354" y="374" on="1"/>
        <pt x="442" y="374" on="1"/>
        <pt x="442" y="299" on="0"/>
        <pt x="366" y="231" on="0"/>
        <pt x="318" y="231" on="1"/>
        <pt x="276" y="231" on="0"/>
        <pt x="195" y="283" on="0"/>
        <pt x="176" y="283" on="1"/>
        <pt x="153" y="283" on="0"/>
        <pt x="127" y="256" on="0"/>
      </contour>
    </TTGlyph>
    <TTGlyph name="asterisk" xMin="39" yMin="358" xMax="398" yMax="720">
      <contour>
        <pt x="284" y="539" on="1"/>
        <pt x="398" y="473" on="1"/>
        <pt x="366" y="417" on="1"/>
        <pt x="255" y="481" on="1"/>
        <pt x="255" y="358" on="1"/>
        <pt x="182" y="358" on="1"/>
        <pt x="182" y="481" on="1"/>
        <pt x="71" y="417" on="1"/>
        <pt x="39" y="473" on="1"/>
        <pt x="153" y="539" on="1"/>
        <pt x="39" y="605" on="1"/>
        <pt x="71" y="662" on="1"/>
        <pt x="182" y="598" on="1"/>
        <pt x="182" y="720" on="1"/>
        <pt x="255" y="720" on="1"/>
        <pt x="255" y="598" on="1"/>
        <pt x="366" y="662" on="1"/>
        <pt x="398" y="605" on="1"/>
      </contour>
    </TTGlyph>
    <TTGlyph name="at" xMin="58" yMin="-133" xMax="894" yMax="684">
      <contour>
        <pt x="663" y="473" on="1"/>
        <pt x="663" y="184" on="1"/>
        <pt x="663" y="157" on="0"/>
        <pt x="700" y="125" on="0"/>
        <pt x="728" y="125" on="1"/>
        <pt x="776" y="125" on="0"/>
        <pt x="825" y="231" on="0"/>
        <pt x="825" y="300" on="1"/>
        <pt x="825" y="441" on="0"/>
        <pt x="626" y="622" on="0"/>
        <pt x="480" y="622" on="1"/>
        <pt x="328" y="622" on="0"/>
        <pt x="126" y="425" on="0"/>
        <pt x="126" y="276" on="1"/>
        <pt x="126" y="128" on="0"/>
        <pt x="326" y="-69" on="0"/>
        <pt x="469" y="-69" on="1"/>
        <pt x="606" y="-69" on="0"/>
        <pt x="711" y="7" on="1"/>
        <pt x="746" y="-48" on="1"/>
        <pt x="694" y="-88" on="0"/>
        <pt x="545" y="-133" on="0"/>
        <pt x="471" y="-133" on="1"/>
        <pt x="298" y="-133" on="0"/>
        <pt x="58" y="99" on="0"/>
        <pt x="58" y="451" on="0"/>
        <pt x="299" y="684" on="0"/>
        <pt x="480" y="684" on="1"/>
        <pt x="653" y="684" on="0"/>
        <pt x="894" y="468" on="0"/>
        <pt x="894" y="305" on="1"/>
        <pt x="894" y="245" on="0"/>
        <pt x="862" y="140" on="0"/>
        <pt x="779" y="63" on="0"/>
        <pt x="718" y="63" on="1"/>
        <pt x="627" y="63" on="0"/>
        <pt x="601" y="132" on="1"/>
        <pt x="551" y="66" on="0"/>
        <pt x="455" y="66" on="1"/>
        <pt x="369" y="66" on="0"/>
        <pt x="254" y="180" on="0"/>
        <pt x="254" y="272" on="1"/>
        <pt x="254" y="366" on="0"/>
        <pt x="370" y="481" on="0"/>
        <pt x="455" y="481" on="1"/>
        <pt x="541" y="481" on="0"/>
        <pt x="594" y="420" on="1"/>
        <pt x="594" y="473" on="1"/>
      </contour>
      <contour>
        <pt x="412" y="136" on="0"/>
        <pt x="518" y="136" on="0"/>
        <pt x="594" y="211" on="0"/>
        <pt x="594" y="273" on="1"/>
        <pt x="594" y="334" on="0"/>
        <pt x="518" y="409" on="0"/>
        <pt x="465" y="409" on="1"/>
        <pt x="411" y="409" on="0"/>
        <pt x="335" y="335" on="0"/>
        <pt x="335" y="211" on="0"/>
      </contour>
    </TTGlyph>
    <TTGlyph name="at.case" xMin="58" yMin="-93" xMax="894" yMax="724">
      <contour>
        <pt x="663" y="513" on="1"/>
        <pt x="663" y="224" on="1"/>
        <pt x="663" y="197" on="0"/>
        <pt x="700" y="165" on="0"/>
        <pt x="728" y="165" on="1"/>
        <pt x="776" y="165" on="0"/>
        <pt x="825" y="271" on="0"/>
        <pt x="825" y="340" on="1"/>
        <pt x="825" y="481" on="0"/>
        <pt x="626" y="662" on="0"/>
        <pt x="480" y="662" on="1"/>
        <pt x="328" y="662" on="0"/>
        <pt x="126" y="465" on="0"/>
        <pt x="126" y="316" on="1"/>
        <pt x="126" y="168" on="0"/>
        <pt x="326" y="-29" on="0"/>
        <pt x="469" y="-29" on="1"/>
        <pt x="606" y="-29" on="0"/>
        <pt x="711" y="47" on="1"/>
        <pt x="746" y="-8" on="1"/>
        <pt x="694" y="-48" on="0"/>
        <pt x="545" y="-93" on="0"/>
        <pt x="471" y="-93" on="1"/>
        <pt x="298" y="-93" on="0"/>
        <pt x="58" y="139" on="0"/>
        <pt x="58" y="491" on="0"/>
        <pt x="299" y="724" on="0"/>
        <pt x="480" y="724" on="1"/>
        <pt x="653" y="724" on="0"/>
        <pt x="894" y="508" on="0"/>
        <pt x="894" y="345" on="1"/>
        <pt x="894" y="285" on="0"/>
        <pt x="862" y="180" on="0"/>
        <pt x="779" y="103" on="0"/>
        <pt x="718" y="103" on="1"/>
        <pt x="627" y="103" on="0"/>
        <pt x="601" y="172" on="1"/>
        <pt x="551" y="106" on="0"/>
        <pt x="455" y="106" on="1"/>
        <pt x="369" y="106" on="0"/>
        <pt x="254" y="220" on="0"/>
        <pt x="254" y="312" on="1"/>
        <pt x="254" y="406" on="0"/>
        <pt x="370" y="521" on="0"/>
        <pt x="455" y="521" on="1"/>
        <pt x="541" y="521" on="0"/>
        <pt x="594" y="460" on="1"/>
        <pt x="594" y="513" on="1"/>
      </contour>
      <contour>
        <pt x="412" y="176" on="0"/>
        <pt x="518" y="176" on="0"/>
        <pt x="594" y="251" on="0"/>
        <pt x="594" y="313" on="1"/>
        <pt x="594" y="374" on="0"/>
        <pt x="518" y="449" on="0"/>
        <pt x="465" y="449" on="1"/>
        <pt x="411" y="449" on="0"/>
        <pt x="335" y="375" on="0"/>
        <pt x="335" y="251" on="0"/>
      </contour>
    </TTGlyph>
    <TTGlyph name="atilde" xMin="34" yMin="-14" xMax="564" yMax="705">
      <contour>
        <pt x="258" y="629" on="1"/>
        <pt x="243" y="629" on="0"/>
        <pt x="225" y="607" on="0"/>
        <pt x="225" y="589" on="1"/>
        <pt x="154" y="589" on="1"/>
        <pt x="154" y="650" on="0"/>
        <pt x="212" y="705" on="0"/>
        <pt x="251" y="705" on="1"/>
        <pt x="285" y="705" on="0"/>
        <pt x="354" y="662" on="0"/>
        <pt x="374" y="662" on="1"/>
        <pt x="389" y="662" on="0"/>
        <pt x="406" y="686" on="0"/>
        <pt x="406" y="705" on="1"/>
        <pt x="476" y="705" on="1"/>
        <pt x="476" y="642" on="0"/>
        <pt x="420" y="587" on="0"/>
        <pt x="380" y="587" on="1"/>
        <pt x="345" y="587" on="0"/>
        <pt x="277" y="629" on="0"/>
      </contour>
      <contour>
        <pt x="564" y="496" on="1"/>
        <pt x="564" y="0" on="1"/>
        <pt x="460" y="0" on="1"/>
        <pt x="460" y="57" on="1"/>
        <pt x="392" y="-14" on="0"/>
        <pt x="280" y="-14" on="1"/>
        <pt x="179" y="-14" on="0"/>
        <pt x="34" y="133" on="0"/>
        <pt x="34" y="248" on="1"/>
        <pt x="34" y="362" on="0"/>
        <pt x="180" y="510" on="0"/>
        <pt x="280" y="510" on="1"/>
        <pt x="392" y="510" on="0"/>
        <pt x="460" y="439" on="1"/>
        <pt x="460" y="496" on="1"/>
      </contour>
      <contour>
        <pt x="297" y="78" on="1"/>
        <pt x="362" y="78" on="0"/>
        <pt x="460" y="173" on="0"/>
        <pt x="460" y="323" on="0"/>
        <pt x="362" y="418" on="0"/>
        <pt x="297" y="418" on="1"/>
        <pt x="227" y="418" on="0"/>
        <pt x="135" y="325" on="0"/>
        <pt x="135" y="171" on="0"/>
        <pt x="227" y="78" on="0"/>
      </contour>
    </TTGlyph>
    <TTGlyph name="atilde.ss01" xMin="36" yMin="-14" xMax="489" yMax="705">
      <contour>
        <pt x="226" y="629" on="1"/>
        <pt x="211" y="629" on="0"/>
        <pt x="193" y="607" on="0"/>
        <pt x="193" y="589" on="1"/>
        <pt x="122" y="589" on="1"/>
        <pt x="122" y="650" on="0"/>
        <pt x="180" y="705" on="0"/>
        <pt x="219" y="705" on="1"/>
        <pt x="253" y="705" on="0"/>
        <pt x="322" y="662" on="0"/>
        <pt x="342" y="662" on="1"/>
        <pt x="357" y="662" on="0"/>
        <pt x="374" y="686" on="0"/>
        <pt x="374" y="705" on="1"/>
        <pt x="444" y="705" on="1"/>
        <pt x="444" y="642" on="0"/>
        <pt x="388" y="587" on="0"/>
        <pt x="348" y="587" on="1"/>
        <pt x="313" y="587" on="0"/>
        <pt x="245" y="629" on="0"/>
      </contour>
      <contour>
        <pt x="278" y="510" on="1"/>
        <pt x="375" y="510" on="0"/>
        <pt x="489" y="412" on="0"/>
        <pt x="489" y="323" on="1"/>
        <pt x="489" y="0" on="1"/>
        <pt x="390" y="0" on="1"/>
        <pt x="390" y="57" on="1"/>
        <pt x="326" y="-14" on="0"/>
        <pt x="221" y="-14" on="1"/>
        <pt x="138" y="-14" on="0"/>
        <pt x="36" y="73" on="0"/>
        <pt x="36" y="143" on="1"/>
        <pt x="36" y="214" on="0"/>
        <pt x="141" y="300" on="0"/>
        <pt x="235" y="300" on="1"/>
        <pt x="390" y="300" on="1"/>
        <pt x="390" y="315" on="1"/>
        <pt x="390" y="363" on="0"/>
        <pt x="332" y="419" on="0"/>
        <pt x="284" y="419" on="1"/>
        <pt x="180" y="419" on="0"/>
        <pt x="163" y="333" on="1"/>
        <pt x="64" y="354" on="1"/>
        <pt x="77" y="424" on="0"/>
        <pt x="195" y="510" on="0"/>
      </contour>
      <contour>
        <pt x="237" y="70" on="1"/>
        <pt x="300" y="70" on="0"/>
        <pt x="390" y="148" on="0"/>
        <pt x="390" y="204" on="1"/>
        <pt x="390" y="220" on="1"/>
        <pt x="233" y="220" on="1"/>
        <pt x="188" y="220" on="0"/>
        <pt x="136" y="179" on="0"/>
        <pt x="136" y="111" on="0"/>
        <pt x="191" y="70" on="0"/>
      </contour>
    </TTGlyph>
    <TTGlyph name="b" xMin="79" yMin="-14" xMax="609" yMax="720">
      <contour>
        <pt x="363" y="510" on="1"/>
        <pt x="463" y="510" on="0"/>
        <pt x="609" y="362" on="0"/>
        <pt x="609" y="248" on="1"/>
        <pt x="609" y="133" on="0"/>
        <pt x="464" y="-14" on="0"/>
        <pt x="363" y="-14" on="1"/>
        <pt x="251" y="-14" on="0"/>
        <pt x="183" y="57" on="1"/>
        <pt x="183" y="0" on="1"/>
        <pt x="79" y="0" on="1"/>
        <pt x="79" y="720" on="1"/>
        <pt x="183" y="720" on="1"/>
        <pt x="183" y="439" on="1"/>
        <pt x="251" y="510" on="0"/>
      </contour>
      <contour>
        <pt x="346" y="78" on="1"/>
        <pt x="416" y="78" on="0"/>
        <pt x="508" y="171" on="0"/>
        <pt x="508" y="325" on="0"/>
        <pt x="416" y="418" on="0"/>
        <pt x="346" y="418" on="1"/>
        <pt x="281" y="418" on="0"/>
        <pt x="183" y="323" on="0"/>
        <pt x="183" y="173" on="0"/>
        <pt x="281" y="78" on="0"/>
      </contour>
    </TTGlyph>
    <TTGlyph name="backslash" xMin="9" yMin="-72" xMax="384" yMax="741">
      <contour>
        <pt x="384" y="-72" on="1"/>
        <pt x="297" y="-72" on="1"/>
        <pt x="9" y="741" on="1"/>
        <pt x="96" y="741" on="1"/>
      </contour>
    </TTGlyph>
    <TTGlyph name="backslash.case" xMin="27" yMin="0" xMax="367" yMax="670">
      <contour>
        <pt x="367" y="0" on="1"/>
        <pt x="264" y="0" on="1"/>
        <pt x="27" y="670" on="1"/>
        <pt x="129" y="670" on="1"/>
      </contour>
    </TTGlyph>
    <TTGlyph name="bar" xMin="79" yMin="-72" xMax="180" yMax="741">
      <contour>
        <pt x="180" y="-72" on="1"/>
        <pt x="79" y="-72" on="1"/>
        <pt x="79" y="741" on="1"/>
        <pt x="180" y="741" on="1"/>
      </contour>
    </TTGlyph>
    <TTGlyph name="bar.case" xMin="79" yMin="-41" xMax="180" yMax="711">
      <contour>
        <pt x="180" y="-41" on="1"/>
        <pt x="79" y="-41" on="1"/>
        <pt x="79" y="711" on="1"/>
        <pt x="180" y="711" on="1"/>
      </contour>
    </TTGlyph>
    <TTGlyph name="braceleft" xMin="33" yMin="-82" xMax="379" yMax="741">
      <contour>
        <pt x="238" y="603" on="1"/>
        <pt x="238" y="438" on="1"/>
        <pt x="238" y="358" on="0"/>
        <pt x="171" y="329" on="1"/>
        <pt x="238" y="301" on="0"/>
        <pt x="238" y="220" on="1"/>
        <pt x="238" y="55" on="1"/>
        <pt x="238" y="33" on="0"/>
        <pt x="264" y="6" on="0"/>
        <pt x="285" y="6" on="1"/>
        <pt x="379" y="6" on="1"/>
        <pt x="379" y="-82" on="1"/>
        <pt x="273" y="-82" on="1"/>
        <pt x="211" y="-82" on="0"/>
        <pt x="137" y="-13" on="0"/>
        <pt x="137" y="45" on="1"/>
        <pt x="137" y="208" on="1"/>
        <pt x="137" y="267" on="0"/>
        <pt x="59" y="282" on="1"/>
        <pt x="33" y="290" on="1"/>
        <pt x="33" y="368" on="1"/>
        <pt x="59" y="376" on="1"/>
        <pt x="137" y="393" on="0"/>
        <pt x="137" y="450" on="1"/>
        <pt x="137" y="613" on="1"/>
        <pt x="137" y="671" on="0"/>
        <pt x="212" y="741" on="0"/>
        <pt x="273" y="741" on="1"/>
        <pt x="379" y="741" on="1"/>
        <pt x="379" y="653" on="1"/>
        <pt x="285" y="653" on="1"/>
        <pt x="264" y="653" on="0"/>
        <pt x="238" y="625" on="0"/>
      </contour>
    </TTGlyph>
    <TTGlyph name="braceleft.case" xMin="33" yMin="0" xMax="379" yMax="670">
      <contour>
        <pt x="238" y="532" on="1"/>
        <pt x="238" y="443" on="1"/>
        <pt x="238" y="404" on="0"/>
        <pt x="203" y="347" on="0"/>
        <pt x="172" y="334" on="1"/>
        <pt x="238" y="305" on="0"/>
        <pt x="238" y="224" on="1"/>
        <pt x="238" y="138" on="1"/>
        <pt x="238" y="116" on="0"/>
        <pt x="264" y="88" on="0"/>
        <pt x="285" y="88" on="1"/>
        <pt x="379" y="88" on="1"/>
        <pt x="379" y="0" on="1"/>
        <pt x="273" y="0" on="1"/>
        <pt x="212" y="0" on="0"/>
        <pt x="137" y="70" on="0"/>
        <pt x="137" y="128" on="1"/>
        <pt x="137" y="212" on="1"/>
        <pt x="137" y="270" on="0"/>
        <pt x="59" y="287" on="1"/>
        <pt x="33" y="295" on="1"/>
        <pt x="33" y="373" on="1"/>
        <pt x="59" y="381" on="1"/>
        <pt x="137" y="396" on="0"/>
        <pt x="137" y="455" on="1"/>
        <pt x="137" y="542" on="1"/>
        <pt x="137" y="600" on="0"/>
        <pt x="212" y="670" on="0"/>
        <pt x="273" y="670" on="1"/>
        <pt x="379" y="670" on="1"/>
        <pt x="379" y="582" on="1"/>
        <pt x="285" y="582" on="1"/>
        <pt x="264" y="582" on="0"/>
        <pt x="238" y="554" on="0"/>
      </contour>
    </TTGlyph>
    <TTGlyph name="braceright" xMin="48" yMin="-82" xMax="394" yMax="741">
      <contour>
        <pt x="394" y="368" on="1"/>
        <pt x="394" y="290" on="1"/>
        <pt x="368" y="282" on="1"/>
        <pt x="290" y="267" on="0"/>
        <pt x="290" y="208" on="1"/>
        <pt x="290" y="45" on="1"/>
        <pt x="290" y="-13" on="0"/>
        <pt x="216" y="-82" on="0"/>
        <pt x="154" y="-82" on="1"/>
        <pt x="48" y="-82" on="1"/>
        <pt x="48" y="6" on="1"/>
        <pt x="142" y="6" on="1"/>
        <pt x="163" y="6" on="0"/>
        <pt x="189" y="33" on="0"/>
        <pt x="189" y="55" on="1"/>
        <pt x="189" y="220" on="1"/>
        <pt x="189" y="301" on="0"/>
        <pt x="256" y="329" on="1"/>
        <pt x="189" y="358" on="0"/>
        <pt x="189" y="438" on="1"/>
        <pt x="189" y="603" on="1"/>
        <pt x="189" y="625" on="0"/>
        <pt x="163" y="653" on="0"/>
        <pt x="142" y="653" on="1"/>
        <pt x="48" y="653" on="1"/>
        <pt x="48" y="741" on="1"/>
        <pt x="154" y="741" on="1"/>
        <pt x="215" y="741" on="0"/>
        <pt x="290" y="671" on="0"/>
        <pt x="290" y="613" on="1"/>
        <pt x="290" y="450" on="1"/>
        <pt x="290" y="393" on="0"/>
        <pt x="368" y="376" on="1"/>
      </contour>
    </TTGlyph>
    <TTGlyph name="braceright.case" xMin="48" yMin="0" xMax="394" yMax="670">
      <contour>
        <pt x="394" y="373" on="1"/>
        <pt x="394" y="295" on="1"/>
        <pt x="368" y="287" on="1"/>
        <pt x="290" y="270" on="0"/>
        <pt x="290" y="212" on="1"/>
        <pt x="290" y="128" on="1"/>
        <pt x="290" y="70" on="0"/>
        <pt x="215" y="0" on="0"/>
        <pt x="154" y="0" on="1"/>
        <pt x="48" y="0" on="1"/>
        <pt x="48" y="88" on="1"/>
        <pt x="142" y="88" on="1"/>
        <pt x="163" y="88" on="0"/>
        <pt x="189" y="116" on="0"/>
        <pt x="189" y="138" on="1"/>
        <pt x="189" y="224" on="1"/>
        <pt x="189" y="263" on="0"/>
        <pt x="224" y="320" on="0"/>
        <pt x="255" y="333" on="1"/>
        <pt x="189" y="362" on="0"/>
        <pt x="189" y="443" on="1"/>
        <pt x="189" y="532" on="1"/>
        <pt x="189" y="554" on="0"/>
        <pt x="163" y="582" on="0"/>
        <pt x="142" y="582" on="1"/>
        <pt x="48" y="582" on="1"/>
        <pt x="48" y="670" on="1"/>
        <pt x="154" y="670" on="1"/>
        <pt x="215" y="670" on="0"/>
        <pt x="290" y="600" on="0"/>
        <pt x="290" y="542" on="1"/>
        <pt x="290" y="455" on="1"/>
        <pt x="290" y="396" on="0"/>
        <pt x="368" y="381" on="1"/>
      </contour>
    </TTGlyph>
    <TTGlyph name="bracketleft" xMin="79" yMin="-82" xMax="351" yMax="741">
      <contour>
        <pt x="180" y="651" on="1"/>
        <pt x="180" y="8" on="1"/>
        <pt x="351" y="8" on="1"/>
        <pt x="351" y="-82" on="1"/>
        <pt x="79" y="-82" on="1"/>
        <pt x="79" y="741" on="1"/>
        <pt x="351" y="741" on="1"/>
        <pt x="351" y="651" on="1"/>
      </contour>
    </TTGlyph>
    <TTGlyph name="bracketleft.case" xMin="79" yMin="0" xMax="351" yMax="670">
      <contour>
        <pt x="180" y="580" on="1"/>
        <pt x="180" y="90" on="1"/>
        <pt x="351" y="90" on="1"/>
        <pt x="351" y="0" on="1"/>
        <pt x="79" y="0" on="1"/>
        <pt x="79" y="670" on="1"/>
        <pt x="351" y="670" on="1"/>
        <pt x="351" y="580" on="1"/>
      </contour>
    </TTGlyph>
    <TTGlyph name="bracketright" xMin="48" yMin="-82" xMax="319" yMax="741">
      <contour>
        <pt x="319" y="741" on="1"/>
        <pt x="319" y="-82" on="1"/>
        <pt x="48" y="-82" on="1"/>
        <pt x="48" y="8" on="1"/>
        <pt x="219" y="8" on="1"/>
        <pt x="219" y="651" on="1"/>
        <pt x="48" y="651" on="1"/>
        <pt x="48" y="741" on="1"/>
      </contour>
    </TTGlyph>
    <TTGlyph name="bracketright.case" xMin="48" yMin="0" xMax="319" yMax="670">
      <contour>
        <pt x="319" y="670" on="1"/>
        <pt x="319" y="0" on="1"/>
        <pt x="48" y="0" on="1"/>
        <pt x="48" y="90" on="1"/>
        <pt x="219" y="90" on="1"/>
        <pt x="219" y="580" on="1"/>
        <pt x="48" y="580" on="1"/>
        <pt x="48" y="670" on="1"/>
      </contour>
    </TTGlyph>
    <TTGlyph name="breve" xMin="144" yMin="551" xMax="456" yMax="693">
      <contour>
        <pt x="371" y="551" on="0"/>
        <pt x="229" y="551" on="0"/>
        <pt x="144" y="628" on="0"/>
        <pt x="144" y="693" on="1"/>
        <pt x="231" y="693" on="1"/>
        <pt x="231" y="662" on="0"/>
        <pt x="271" y="623" on="0"/>
        <pt x="300" y="623" on="1"/>
        <pt x="330" y="623" on="0"/>
        <pt x="370" y="662" on="0"/>
        <pt x="370" y="693" on="1"/>
        <pt x="456" y="693" on="1"/>
        <pt x="456" y="628" on="0"/>
      </contour>
    </TTGlyph>
    <TTGlyph name="bullet" xMin="45" yMin="107" xMax="365" yMax="416">
      <contour>
        <pt x="137" y="416" on="0"/>
        <pt x="273" y="416" on="0"/>
        <pt x="365" y="324" on="0"/>
        <pt x="365" y="261" on="1"/>
        <pt x="365" y="195" on="0"/>
        <pt x="274" y="107" on="0"/>
        <pt x="136" y="107" on="0"/>
        <pt x="45" y="195" on="0"/>
        <pt x="45" y="261" on="1"/>
        <pt x="45" y="324" on="0"/>
      </contour>
    </TTGlyph>
    <TTGlyph name="bullet.case" xMin="45" yMin="175" xMax="365" yMax="484">
      <contour>
        <pt x="137" y="484" on="0"/>
        <pt x="273" y="484" on="0"/>
        <pt x="365" y="392" on="0"/>
        <pt x="365" y="329" on="1"/>
        <pt x="365" y="263" on="0"/>
        <pt x="274" y="175" on="0"/>
        <pt x="136" y="175" on="0"/>
        <pt x="45" y="263" on="0"/>
        <pt x="45" y="329" on="1"/>
        <pt x="45" y="392" on="0"/>
      </contour>
    </TTGlyph>
    <TTGlyph name="c" xMin="36" yMin="-14" xMax="540" yMax="510">
      <contour>
        <pt x="298" y="82" on="1"/>
        <pt x="409" y="82" on="0"/>
        <pt x="444" y="186" on="1"/>
        <pt x="540" y="161" on="1"/>
        <pt x="520" y="82" on="0"/>
        <pt x="385" y="-14" on="0"/>
        <pt x="298" y="-14" on="1"/>
        <pt x="189" y="-14" on="0"/>
        <pt x="36" y="133" on="0"/>
        <pt x="36" y="248" on="1"/>
        <pt x="36" y="362" on="0"/>
        <pt x="189" y="510" on="0"/>
        <pt x="298" y="510" on="1"/>
        <pt x="383" y="510" on="0"/>
        <pt x="517" y="415" on="0"/>
        <pt x="540" y="336" on="1"/>
        <pt x="440" y="307" on="1"/>
        <pt x="426" y="360" on="0"/>
        <pt x="350" y="414" on="0"/>
        <pt x="298" y="414" on="1"/>
        <pt x="229" y="414" on="0"/>
        <pt x="138" y="321" on="0"/>
        <pt x="138" y="248" on="1"/>
        <pt x="138" y="173" on="0"/>
        <pt x="228" y="82" on="0"/>
      </contour>
    </TTGlyph>
    <TTGlyph name="cacute" xMin="36" yMin="-14" xMax="540" yMax="709">
      <contour>
        <pt x="348" y="567" on="1"/>
        <pt x="259" y="567" on="1"/>
        <pt x="332" y="709" on="1"/>
        <pt x="454" y="709" on="1"/>
      </contour>
      <contour>
        <pt x="298" y="82" on="1"/>
        <pt x="409" y="82" on="0"/>
        <pt x="444" y="186" on="1"/>
        <pt x="540" y="161" on="1"/>
        <pt x="520" y="82" on="0"/>
        <pt x="385" y="-14" on="0"/>
        <pt x="298" y="-14" on="1"/>
        <pt x="189" y="-14" on="0"/>
        <pt x="36" y="133" on="0"/>
        <pt x="36" y="248" on="1"/>
        <pt x="36" y="362" on="0"/>
        <pt x="189" y="510" on="0"/>
        <pt x="298" y="510" on="1"/>
        <pt x="383" y="510" on="0"/>
        <pt x="517" y="415" on="0"/>
        <pt x="540" y="336" on="1"/>
        <pt x="440" y="307" on="1"/>
        <pt x="426" y="360" on="0"/>
        <pt x="350" y="414" on="0"/>
        <pt x="298" y="414" on="1"/>
        <pt x="229" y="414" on="0"/>
        <pt x="138" y="321" on="0"/>
        <pt x="138" y="248" on="1"/>
        <pt x="138" y="173" on="0"/>
        <pt x="228" y="82" on="0"/>
      </contour>
    </TTGlyph>
    <TTGlyph name="caron" xMin="136" yMin="559" xMax="466" yMax="705">
      <contour>
        <pt x="466" y="705" on="1"/>
        <pt x="350" y="559" on="1"/>
        <pt x="251" y="559" on="1"/>
        <pt x="136" y="705" on="1"/>
        <pt x="240" y="705" on="1"/>
        <pt x="301" y="627" on="1"/>
        <pt x="361" y="705" on="1"/>
      </contour>
    </TTGlyph>
    <TTGlyph name="caron.alt" xMin="260" yMin="464" xMax="365" yMax="650">
      <contour>
        <pt x="342" y="464" on="1"/>
        <pt x="260" y="464" on="1"/>
        <pt x="260" y="650" on="1"/>
        <pt x="365" y="650" on="1"/>
      </contour>
    </TTGlyph>
    <TTGlyph name="ccaron" xMin="36" yMin="-14" xMax="540" yMax="705">
      <contour>
        <pt x="250" y="559" on="1"/>
        <pt x="135" y="705" on="1"/>
        <pt x="239" y="705" on="1"/>
        <pt x="300" y="627" on="1"/>
        <pt x="360" y="705" on="1"/>
        <pt x="465" y="705" on="1"/>
        <pt x="349" y="559" on="1"/>
      </contour>
      <contour>
        <pt x="298" y="82" on="1"/>
        <pt x="409" y="82" on="0"/>
        <pt x="444" y="186" on="1"/>
        <pt x="540" y="161" on="1"/>
        <pt x="520" y="82" on="0"/>
        <pt x="385" y="-14" on="0"/>
        <pt x="298" y="-14" on="1"/>
        <pt x="189" y="-14" on="0"/>
        <pt x="36" y="133" on="0"/>
        <pt x="36" y="248" on="1"/>
        <pt x="36" y="362" on="0"/>
        <pt x="189" y="510" on="0"/>
        <pt x="298" y="510" on="1"/>
        <pt x="383" y="510" on="0"/>
        <pt x="517" y="415" on="0"/>
        <pt x="540" y="336" on="1"/>
        <pt x="440" y="307" on="1"/>
        <pt x="426" y="360" on="0"/>
        <pt x="350" y="414" on="0"/>
        <pt x="298" y="414" on="1"/>
        <pt x="229" y="414" on="0"/>
        <pt x="138" y="321" on="0"/>
        <pt x="138" y="248" on="1"/>
        <pt x="138" y="173" on="0"/>
        <pt x="228" y="82" on="0"/>
      </contour>
    </TTGlyph>
    <TTGlyph name="ccedilla" xMin="36" yMin="-165" xMax="540" yMax="510">
      <contour>
        <pt x="298" y="82" on="1"/>
        <pt x="409" y="82" on="0"/>
        <pt x="444" y="186" on="1"/>
        <pt x="540" y="161" on="1"/>
        <pt x="522" y="91" on="0"/>
        <pt x="410" y="-2" on="0"/>
        <pt x="335" y="-12" on="1"/>
        <pt x="275" y="-165" on="1"/>
        <pt x="164" y="-165" on="1"/>
        <pt x="256" y="-11" on="1"/>
        <pt x="161" y="4" on="0"/>
        <pt x="36" y="145" on="0"/>
        <pt x="36" y="248" on="1"/>
        <pt x="36" y="362" on="0"/>
        <pt x="189" y="510" on="0"/>
        <pt x="298" y="510" on="1"/>
        <pt x="383" y="510" on="0"/>
        <pt x="517" y="415" on="0"/>
        <pt x="540" y="336" on="1"/>
        <pt x="440" y="307" on="1"/>
        <pt x="426" y="360" on="0"/>
        <pt x="350" y="414" on="0"/>
        <pt x="298" y="414" on="1"/>
        <pt x="229" y="414" on="0"/>
        <pt x="138" y="321" on="0"/>
        <pt x="138" y="248" on="1"/>
        <pt x="138" y="173" on="0"/>
        <pt x="228" y="82" on="0"/>
      </contour>
    </TTGlyph>
    <TTGlyph name="cdotaccent" xMin="36" yMin="-14" xMax="540" yMax="704">
      <contour>
        <pt x="326" y="578" on="0"/>
        <pt x="270" y="578" on="0"/>
        <pt x="234" y="614" on="0"/>
        <pt x="234" y="641" on="1"/>
        <pt x="234" y="667" on="0"/>
        <pt x="271" y="704" on="0"/>
        <pt x="325" y="704" on="0"/>
        <pt x="363" y="667" on="0"/>
        <pt x="363" y="641" on="1"/>
        <pt x="363" y="614" on="0"/>
      </contour>
      <contour>
        <pt x="298" y="82" on="1"/>
        <pt x="409" y="82" on="0"/>
        <pt x="444" y="186" on="1"/>
        <pt x="540" y="161" on="1"/>
        <pt x="520" y="82" on="0"/>
        <pt x="385" y="-14" on="0"/>
        <pt x="298" y="-14" on="1"/>
        <pt x="189" y="-14" on="0"/>
        <pt x="36" y="133" on="0"/>
        <pt x="36" y="248" on="1"/>
        <pt x="36" y="362" on="0"/>
        <pt x="189" y="510" on="0"/>
        <pt x="298" y="510" on="1"/>
        <pt x="383" y="510" on="0"/>
        <pt x="517" y="415" on="0"/>
        <pt x="540" y="336" on="1"/>
        <pt x="440" y="307" on="1"/>
        <pt x="426" y="360" on="0"/>
        <pt x="350" y="414" on="0"/>
        <pt x="298" y="414" on="1"/>
        <pt x="229" y="414" on="0"/>
        <pt x="138" y="321" on="0"/>
        <pt x="138" y="248" on="1"/>
        <pt x="138" y="173" on="0"/>
        <pt x="228" y="82" on="0"/>
      </contour>
    </TTGlyph>
    <TTGlyph name="cedilla" xMin="196" yMin="-165" xMax="372" yMax="0">
      <contour>
        <pt x="294" y="0" on="1"/>
        <pt x="372" y="0" on="1"/>
        <pt x="307" y="-165" on="1"/>
        <pt x="196" y="-165" on="1"/>
      </contour>
    </TTGlyph>
    <TTGlyph name="cent" xMin="36" yMin="-130" xMax="540" yMax="630">
      <contour>
        <pt x="332" y="411" on="1"/>
        <pt x="332" y="85" on="1"/>
        <pt x="415" y="101" on="0"/>
        <pt x="444" y="186" on="1"/>
        <pt x="540" y="161" on="1"/>
        <pt x="522" y="91" on="0"/>
        <pt x="411" y="-1" on="0"/>
        <pt x="336" y="-11" on="1"/>
        <pt x="336" y="-130" on="1"/>
        <pt x="248" y="-130" on="1"/>
        <pt x="248" y="-10" on="1"/>
        <pt x="156" y="7" on="0"/>
        <pt x="36" y="147" on="0"/>
        <pt x="36" y="248" on="1"/>
        <pt x="36" y="348" on="0"/>
        <pt x="157" y="489" on="0"/>
        <pt x="248" y="505" on="1"/>
        <pt x="248" y="630" on="1"/>
        <pt x="336" y="630" on="1"/>
        <pt x="336" y="507" on="1"/>
        <pt x="409" y="497" on="0"/>
        <pt x="520" y="406" on="0"/>
        <pt x="540" y="336" on="1"/>
        <pt x="440" y="307" on="1"/>
        <pt x="417" y="394" on="0"/>
      </contour>
      <contour>
        <pt x="138" y="248" on="1"/>
        <pt x="138" y="187" on="0"/>
        <pt x="200" y="103" on="0"/>
        <pt x="251" y="88" on="1"/>
        <pt x="251" y="408" on="1"/>
        <pt x="200" y="394" on="0"/>
        <pt x="138" y="307" on="0"/>
      </contour>
    </TTGlyph>
    <TTGlyph name="cent.tf" xMin="36" yMin="-130" xMax="540" yMax="630">
      <contour>
        <pt x="332" y="411" on="1"/>
        <pt x="332" y="85" on="1"/>
        <pt x="415" y="101" on="0"/>
        <pt x="444" y="186" on="1"/>
        <pt x="540" y="161" on="1"/>
        <pt x="522" y="91" on="0"/>
        <pt x="411" y="-1" on="0"/>
        <pt x="336" y="-11" on="1"/>
        <pt x="336" y="-130" on="1"/>
        <pt x="248" y="-130" on="1"/>
        <pt x="248" y="-10" on="1"/>
        <pt x="156" y="7" on="0"/>
        <pt x="36" y="147" on="0"/>
        <pt x="36" y="248" on="1"/>
        <pt x="36" y="348" on="0"/>
        <pt x="157" y="489" on="0"/>
        <pt x="248" y="505" on="1"/>
        <pt x="248" y="630" on="1"/>
        <pt x="336" y="630" on="1"/>
        <pt x="336" y="507" on="1"/>
        <pt x="409" y="497" on="0"/>
        <pt x="520" y="406" on="0"/>
        <pt x="540" y="336" on="1"/>
        <pt x="440" y="307" on="1"/>
        <pt x="417" y="394" on="0"/>
      </contour>
      <contour>
        <pt x="138" y="248" on="1"/>
        <pt x="138" y="187" on="0"/>
        <pt x="200" y="103" on="0"/>
        <pt x="251" y="88" on="1"/>
        <pt x="251" y="408" on="1"/>
        <pt x="200" y="394" on="0"/>
        <pt x="138" y="307" on="0"/>
      </contour>
    </TTGlyph>
    <TTGlyph name="circumflex" xMin="136" yMin="559" xMax="466" yMax="704">
      <contour>
        <pt x="361" y="559" on="1"/>
        <pt x="301" y="636" on="1"/>
        <pt x="240" y="559" on="1"/>
        <pt x="136" y="559" on="1"/>
        <pt x="251" y="704" on="1"/>
        <pt x="350" y="704" on="1"/>
        <pt x="466" y="559" on="1"/>
      </contour>
    </TTGlyph>
    <TTGlyph name="colon" xMin="45" yMin="-4" xMax="176" yMax="473">
      <contour>
        <pt x="83" y="473" on="0"/>
        <pt x="139" y="473" on="0"/>
        <pt x="176" y="436" on="0"/>
        <pt x="176" y="410" on="1"/>
        <pt x="176" y="383" on="0"/>
        <pt x="139" y="347" on="0"/>
        <pt x="83" y="347" on="0"/>
        <pt x="45" y="383" on="0"/>
        <pt x="45" y="410" on="1"/>
        <pt x="45" y="436" on="0"/>
      </contour>
      <contour>
        <pt x="83" y="123" on="0"/>
        <pt x="139" y="123" on="0"/>
        <pt x="176" y="86" on="0"/>
        <pt x="176" y="60" on="1"/>
        <pt x="176" y="33" on="0"/>
        <pt x="139" y="-4" on="0"/>
        <pt x="83" y="-4" on="0"/>
        <pt x="45" y="33" on="0"/>
        <pt x="45" y="60" on="1"/>
        <pt x="45" y="86" on="0"/>
      </contour>
    </TTGlyph>
    <TTGlyph name="colon.case" xMin="45" yMin="94" xMax="176" yMax="548">
      <contour>
        <pt x="83" y="548" on="0"/>
        <pt x="139" y="548" on="0"/>
        <pt x="176" y="511" on="0"/>
        <pt x="176" y="485" on="1"/>
        <pt x="176" y="458" on="0"/>
        <pt x="139" y="422" on="0"/>
        <pt x="83" y="422" on="0"/>
        <pt x="45" y="458" on="0"/>
        <pt x="45" y="485" on="1"/>
        <pt x="45" y="511" on="0"/>
      </contour>
      <contour>
        <pt x="83" y="221" on="0"/>
        <pt x="139" y="221" on="0"/>
        <pt x="176" y="183" on="0"/>
        <pt x="176" y="157" on="1"/>
        <pt x="176" y="130" on="0"/>
        <pt x="139" y="94" on="0"/>
        <pt x="83" y="94" on="0"/>
        <pt x="45" y="130" on="0"/>
        <pt x="45" y="157" on="1"/>
        <pt x="45" y="183" on="0"/>
      </contour>
    </TTGlyph>
</ttFont>
